<svg width="50" height="50" viewBox="0 0 50 50" fill="none" xmlns="http://www.w3.org/2000/svg">
<circle cx="25" cy="25" r="25" fill="#FF3E79"/>
<circle cx="25" cy="25" r="21" fill="white"/>
<path d="M30.408 33H18.936C18.952 31.608 19.288 30.392 19.944 29.352C20.6 28.312 21.496 27.408 22.632 26.64C23.176 26.24 23.744 25.856 24.336 25.488C24.928 25.104 25.472 24.696 25.968 24.264C26.464 23.832 26.872 23.368 27.192 22.872C27.512 22.36 27.68 21.776 27.696 21.12C27.696 20.816 27.656 20.496 27.576 20.16C27.512 19.808 27.376 19.488 27.168 19.2C26.96 18.896 26.672 18.648 26.304 18.456C25.936 18.248 25.456 18.144 24.864 18.144C24.32 18.144 23.864 18.256 23.496 18.48C23.144 18.688 22.856 18.984 22.632 19.368C22.424 19.736 22.264 20.176 22.152 20.688C22.056 21.2 22 21.752 21.984 22.344H19.248C19.248 21.416 19.368 20.56 19.608 19.776C19.864 18.976 20.24 18.288 20.736 17.712C21.232 17.136 21.832 16.688 22.536 16.368C23.256 16.032 24.088 15.864 25.032 15.864C26.056 15.864 26.912 16.032 27.6 16.368C28.288 16.704 28.84 17.128 29.256 17.64C29.688 18.152 29.992 18.712 30.168 19.32C30.344 19.912 30.432 20.48 30.432 21.024C30.432 21.696 30.328 22.304 30.12 22.848C29.912 23.392 29.632 23.896 29.28 24.36C28.928 24.808 28.528 25.224 28.08 25.608C27.632 25.992 27.168 26.352 26.688 26.688C26.208 27.024 25.728 27.344 25.248 27.648C24.768 27.952 24.32 28.256 23.904 28.56C23.504 28.864 23.152 29.184 22.848 29.52C22.544 29.84 22.336 30.184 22.224 30.552H30.408V33Z" fill="#FF3E79"/>
</svg>
