<svg width="50" height="50" viewBox="0 0 50 50" fill="none" xmlns="http://www.w3.org/2000/svg">
<circle cx="25" cy="25" r="25" fill="#FF3E79"/>
<circle cx="25" cy="25" r="21" fill="white"/>
<path d="M23.472 23.16C23.92 23.176 24.368 23.144 24.816 23.064C25.264 22.984 25.664 22.848 26.016 22.656C26.368 22.448 26.648 22.168 26.856 21.816C27.08 21.464 27.192 21.032 27.192 20.52C27.192 19.8 26.944 19.224 26.448 18.792C25.968 18.36 25.344 18.144 24.576 18.144C24.096 18.144 23.68 18.24 23.328 18.432C22.976 18.624 22.68 18.888 22.44 19.224C22.216 19.544 22.048 19.912 21.936 20.328C21.824 20.728 21.776 21.144 21.792 21.576H19.056C19.088 20.76 19.24 20.008 19.512 19.32C19.784 18.616 20.152 18.008 20.616 17.496C21.096 16.984 21.672 16.584 22.344 16.296C23.016 16.008 23.776 15.864 24.624 15.864C25.28 15.864 25.92 15.96 26.544 16.152C27.184 16.344 27.752 16.624 28.248 16.992C28.76 17.36 29.168 17.832 29.472 18.408C29.776 18.968 29.928 19.616 29.928 20.352C29.928 21.2 29.736 21.944 29.352 22.584C28.968 23.208 28.368 23.664 27.552 23.952V24C28.512 24.192 29.256 24.672 29.784 25.44C30.328 26.192 30.6 27.112 30.6 28.2C30.6 29 30.44 29.72 30.12 30.36C29.8 30.984 29.368 31.52 28.824 31.968C28.28 32.4 27.648 32.736 26.928 32.976C26.208 33.216 25.448 33.336 24.648 33.336C23.672 33.336 22.816 33.2 22.08 32.928C21.36 32.64 20.752 32.24 20.256 31.728C19.776 31.216 19.408 30.6 19.152 29.88C18.896 29.16 18.76 28.36 18.744 27.48H21.48C21.448 28.504 21.696 29.36 22.224 30.048C22.768 30.72 23.576 31.056 24.648 31.056C25.56 31.056 26.32 30.8 26.928 30.288C27.552 29.76 27.864 29.016 27.864 28.056C27.864 27.4 27.736 26.88 27.48 26.496C27.224 26.112 26.888 25.824 26.472 25.632C26.056 25.424 25.584 25.296 25.056 25.248C24.544 25.2 24.016 25.184 23.472 25.2V23.16Z" fill="#FF3E79"/>
</svg>
