<svg width="152" height="117" viewBox="0 0 152 117" fill="none" xmlns="http://www.w3.org/2000/svg">
<path opacity="0.1" d="M13.2 53.8279C11.0966 54.515 9.13355 56.178 8.60352 58.4846C8.00197 61.1348 9.38735 63.813 9.58506 66.5305C10.2315 75.45 -1.51063 81.7431 0.163609 90.5083C0.829659 93.9872 3.5191 96.5519 6.17068 98.6622C10.4152 102.043 15.1238 105.028 20.333 105.872C28.2471 107.153 36.5173 103.386 44.2113 105.767C50.416 107.687 55.1639 113.315 61.3266 115.392C66.0184 116.974 71.0706 116.35 75.9489 115.71C78.5724 115.367 81.3292 114.969 83.4507 113.265C87.4007 110.093 87.6391 103.831 90.2809 99.3423C94.3571 92.4139 103.295 91.0608 110.79 92.4069C118.284 93.7531 125.558 97.0721 133.151 96.7916C134.773 96.7342 136.437 96.4944 137.851 95.6348C139.571 94.5888 140.735 92.7477 141.763 90.9248C148.168 79.5669 151.737 66.3553 151.991 53.0553C152.034 50.7571 151.96 48.3593 150.96 46.3247C149.698 43.7572 147.174 42.2246 144.65 41.1898C138.609 38.7191 131.936 38.3195 126.015 35.515C120.304 32.813 115.676 28.0721 110.704 24.0169C100.842 15.9612 89.2503 10.386 77.1183 7.85503C74.262 7.25909 71.2978 6.83282 68.4597 7.5213C65.1897 8.31495 62.3713 10.5178 59.8375 12.8876C53.0943 19.1975 47.6915 26.977 41.4798 33.8899C37.2239 38.6228 32.5553 42.9677 27.5292 46.8729C25.2253 48.6636 22.7855 50.7893 20.2236 52.113C17.8805 53.3231 15.6777 53.0188 13.2 53.8279Z" fill="#FF3E79"/>
<path d="M142.262 58.3711C139.177 57.7261 133.337 56.516 126.727 55.1755C116.941 53.1914 114.388 60.7016 114.388 60.7016C114.388 64.5269 101.628 80.3943 101.628 80.3943L97.8221 71.8688C98.4069 71.9591 99.0045 71.9188 99.572 71.751C101.751 71.1004 102.828 68.6423 103.177 66.3974C103.698 63.0162 103.222 59.5565 101.807 56.4417C101.158 55.0199 100.317 53.6822 99.795 52.2098C97.5949 46.0317 101.406 38.8804 99.1009 32.7261C98.1488 30.1867 96.2502 28.1269 94.9377 25.7543C91.9931 20.4189 92.1193 13.7444 88.9082 8.56182C85.8963 3.70315 79.9607 0.823014 74.2747 1.46523C70.9221 1.84382 68.5257 3.04131 65.4015 1.60545C62.764 0.396742 59.5978 -0.954989 56.8817 0.949214C54.5653 2.57297 54.1712 5.77142 52.9064 8.2996C50.6853 12.7404 45.4158 15.6388 44.7961 20.5647C44.6432 21.7791 44.7961 23.0382 44.4413 24.2105C43.4289 27.5239 39.0204 28.5027 37.2143 31.4599C35.4461 34.3541 37.2325 38.7304 40.5221 39.5647C41.9243 39.9209 43.4331 39.7049 44.8339 40.0821C46.1478 40.4327 47.4224 41.661 47.1952 42.944L44.2815 43.4741L35.8976 44.4051L34.6006 44.4865C34.6006 44.4865 34.6006 44.5089 34.6006 44.5496L34.5305 44.558L34.5992 44.6141C34.5992 44.7136 34.5992 44.8693 34.5992 45.074C32.2393 45.998 28.4154 48.4645 26.9712 54.9343C26.6403 56.411 25.9717 57.7909 25.0179 58.9657C22.8683 61.6159 19.3011 66.7914 19.5002 71.7595C19.7806 78.8434 19.7806 81.6773 29.1446 79.6932C31.5101 79.1926 34.0832 78.1662 36.6086 76.9126C36.7558 79.8656 37.1386 82.7612 37.9378 84.9346C40.4913 91.877 35.1012 116.388 35.1012 116.388H87.1554C87.1554 116.388 82.7581 101.936 78.5038 94.5692C75.4905 89.3502 76.6038 86.1938 77.5096 84.7958C78.2951 83.6077 78.8819 82.2996 79.247 80.9229C79.4012 80.3186 79.5513 79.6329 79.6803 78.8729C80.638 79.6567 81.6602 80.3606 82.817 80.7813C83.8883 81.1697 85.1068 81.2763 86.1907 80.9762C88.409 83.6881 90.8867 86.6621 93.5383 89.7526C103.751 101.653 106.587 94.286 106.587 94.286C106.587 94.286 116.941 74.5933 118.366 68.6423C119.791 62.6914 122.905 62.9746 122.905 62.9746C131.441 65.1326 139.008 62.0001 142.523 60.1155C142.694 60.0248 142.833 59.8833 142.92 59.7106C143.007 59.5379 143.038 59.3424 143.01 59.1511C142.981 58.9598 142.894 58.782 142.76 58.6423C142.626 58.5026 142.452 58.4079 142.262 58.3711ZM36.9395 61.9314C37.6517 61.1196 38.2637 60.2251 38.7624 59.2672H38.789C38.5305 60.2576 38.1972 61.2269 37.792 62.1669C36.997 62.3198 36.5174 62.3997 36.5174 62.3997L36.9395 61.9314Z" fill="url(#paint0_linear_1_6022)"/>
<path d="M56.5103 2.20972C54.2205 3.81666 53.8307 6.97724 52.5841 9.4844C50.3883 13.8789 45.179 16.7492 44.5663 21.6233C44.4148 22.825 44.5663 24.0716 44.2157 25.2298C43.2159 28.5096 38.8565 29.4785 37.0644 32.4049C35.3159 35.2682 37.0827 39.5997 40.3344 40.4256C41.724 40.7789 43.2117 40.5658 44.5971 40.9374C45.9825 41.309 47.3244 42.6663 46.8659 44.0223C46.5252 45.0318 45.3235 45.6068 45.1047 46.65C44.914 47.5474 45.5254 48.4028 46.1171 49.1011C46.8687 49.9845 47.6708 50.8538 48.6762 51.4329C51.4413 53.0258 54.8908 52.0695 58.0794 51.9644C61.937 51.8498 65.7187 53.0521 68.8021 55.3731C69.6841 56.042 70.5142 56.8146 71.0611 57.7779C72.8433 60.9161 71.1578 64.8549 71.5364 68.4432C71.9655 72.5208 75.0111 75.7935 78.0861 78.504C79.3145 79.5865 80.6101 80.6536 82.1525 81.2131C83.695 81.7726 85.5389 81.7417 86.8359 80.7433C88.1989 79.6945 88.6728 77.8366 88.6812 76.1161C88.6896 74.3955 88.3279 72.6834 88.4148 70.9657C88.4569 70.1244 88.764 69.1246 89.5842 68.9592C89.9951 68.8764 90.4116 69.0433 90.7859 69.2312C93.4025 70.5465 95.9124 73.1223 98.7169 72.2866C100.872 71.643 101.942 69.2102 102.281 66.9877C102.796 63.6427 102.325 60.2204 100.927 57.1385C100.285 55.7363 99.453 54.4084 98.937 52.9501C96.7692 46.8239 100.534 39.7441 98.2569 33.6571C97.316 31.1443 95.4385 29.1055 94.1414 26.7568C91.2248 21.4761 91.3552 14.8703 88.1792 9.741C85.2023 4.93142 79.3327 2.08212 73.7126 2.71733C70.3978 3.09172 68.0295 4.27799 64.9404 2.85755C62.3323 1.66426 59.2025 0.319545 56.5103 2.20972Z" fill="#40243E"/>
<path d="M78.7346 46.6277C78.7346 46.6277 87.849 43.8233 91.4947 60.089L100.749 80.8417C100.749 80.8417 113.369 65.1369 113.369 61.351C113.369 61.351 115.893 53.9192 125.568 55.8823C132.104 57.2088 137.871 58.4063 140.927 59.0443C141.113 59.083 141.282 59.1778 141.412 59.316C141.542 59.4542 141.627 59.629 141.654 59.8168C141.682 60.0046 141.651 60.1962 141.565 60.3658C141.48 60.5354 141.345 60.6747 141.178 60.7648C137.703 62.6298 130.222 65.7301 121.782 63.5945C121.782 63.5945 118.698 63.314 117.295 69.2033C115.893 75.0926 105.657 94.5833 105.657 94.5833C105.657 94.5833 102.853 101.875 92.7567 90.0963C82.6608 78.3177 75.0889 68.2218 75.0889 68.2218L78.7346 46.6277Z" fill="#E09999"/>
<path d="M78.7354 48.5906L77.5267 52.5715L76.332 56.5089L73.9679 64.2953L62.7502 66.3987L59.0947 64.0668L54.6174 61.2105L50.7571 58.5463L45.0824 54.6201L40.4551 44.9448C40.4551 44.9448 41.7311 44.7191 45.7092 43.9955L51.2521 42.9817C55.0801 42.2806 56.5272 39.4313 56.9689 36.5316C57.4975 33.0597 56.5805 29.5205 56.5805 29.5205H70.7428C70.7428 29.5205 72.3273 31.9043 72.0791 36.0212C72.0012 37.2394 71.7882 38.4452 71.4439 39.6164C70.1988 43.9268 73.0102 45.3655 74.9172 45.8324C75.4329 45.9633 75.9605 46.0417 76.4919 46.0666L78.7354 48.5906Z" fill="#E09999"/>
<path opacity="0.1" d="M72.0748 36.0213C69.9045 37.627 67.2977 38.5358 64.5995 38.6274C61.9013 38.7191 59.2389 37.9892 56.9646 36.5345C57.4932 33.0626 56.5762 29.5234 56.5762 29.5234H70.7385C70.7385 29.5234 72.3272 31.8974 72.0748 36.0213Z" fill="black"/>
<path d="M64.1521 38.2145C71.509 38.2145 77.4731 32.2505 77.4731 24.8935C77.4731 17.5365 71.509 11.5725 64.1521 11.5725C56.7951 11.5725 50.8311 17.5365 50.8311 24.8935C50.8311 32.2505 56.7951 38.2145 64.1521 38.2145Z" fill="#E09999"/>
<path opacity="0.1" d="M78.7354 48.5906L77.5267 52.5715L76.332 56.5089L73.9679 64.2954L62.7502 66.3987L59.0947 64.0668L54.6174 61.2105L50.7571 58.5463L45.0824 54.6202L40.4551 44.9449C40.4551 44.9449 41.7311 44.7191 45.7092 43.9956C48.5136 51.7989 52.0612 54.7043 55.2624 55.6466C57.1764 56.2075 58.9657 56.0672 60.3917 55.8569C62.2247 55.5636 64.0989 55.6591 65.8926 56.1373C70.1974 57.3348 72.4633 55.0422 73.6538 52.1326C74.5344 49.9802 74.8261 47.4885 74.9158 45.8227C75.4315 45.9535 75.9591 46.032 76.4905 46.0569L78.7354 48.5906Z" fill="black"/>
<path d="M34.9865 116.458C34.9865 116.458 40.3149 92.1994 37.791 85.3286C37.0688 83.3655 36.6902 80.7966 36.5206 78.1381C36.0999 71.5098 36.9496 64.2954 36.9496 64.2954C37.0702 64.0613 37.1838 63.8285 37.2932 63.5943C37.5736 62.9961 37.8204 62.4109 38.0335 61.8388C41.0385 53.7536 37.3002 48.3705 35.4044 46.3121C35.1004 45.9743 34.7723 45.6589 34.4229 45.3684L45.1498 44.1765C47.9696 52.2687 51.5859 55.254 54.839 56.2103C56.7531 56.7712 58.5423 56.631 59.9683 56.4206C61.8013 56.1273 63.6755 56.2229 65.4692 56.7011C69.774 57.8986 72.04 55.6059 73.2304 52.6963C74.7084 49.0843 74.5261 44.5229 74.5261 44.5229L80.6958 46.3457C80.6958 46.3457 80.1518 49.7251 79.6596 54.1659C79.5432 55.2077 79.4296 56.307 79.3272 57.4358C78.9066 62.1444 78.657 67.3509 79.1534 70.8844C79.6577 74.3763 79.4782 77.9328 78.6247 81.3561C78.2645 82.7187 77.6848 84.0135 76.9084 85.1898C76.0124 86.5724 74.9117 89.6979 77.89 94.865C82.0966 102.157 86.4435 116.459 86.4435 116.459L34.9865 116.458Z" fill="#FF3E79"/>
<path d="M80.6277 46.4172C80.6277 46.4172 85.722 54.4098 79.0376 61.2807C72.3533 68.1515 75.0189 58.4762 75.0189 58.4762L76.7016 47.2586L80.6277 46.4172Z" fill="#EE3A71"/>
<path opacity="0.1" d="M35.4043 46.3121C35.7845 46.1918 36.1743 46.1045 36.5695 46.0513C38.3924 46.9206 39.402 49.3338 39.9503 51.8536C40.3162 53.5626 40.3351 55.3277 40.0058 57.0442C39.6766 58.7607 39.0058 60.3935 38.0334 61.8458C41.0384 53.7536 37.3001 48.3705 35.4043 46.3121Z" fill="black"/>
<path opacity="0.1" d="M79.3297 57.4372C76.336 57.6349 72.4252 57.2844 72.4252 57.2844C72.9525 59.6962 71.8644 61.5807 70.7426 62.8091C70.3136 63.2842 69.7722 63.6439 69.1681 63.8554C68.5639 64.0668 67.9163 64.1231 67.2847 64.0192C60.8149 62.8974 50.977 68.7867 50.977 68.7867C50.977 68.7867 43.9407 74.4699 36.5202 78.1423C36.0996 71.514 36.9493 64.2996 36.9493 64.2996C37.0699 64.0655 37.1835 63.8327 37.2929 63.5985C40.2908 63.0376 51.1832 60.8221 53.3552 57.569C53.6777 57.0853 54.1965 56.6323 54.8415 56.2117C56.6966 55.0114 59.6651 54.0705 62.4878 53.3834C66.0009 52.5217 69.6391 52.2909 73.2329 52.7019C74.7758 52.8787 76.3023 53.1764 77.7985 53.5923C78.4519 53.7732 79.0829 53.9681 79.6621 54.1715C81.2494 54.7323 82.4525 55.3591 82.6614 56.0266C82.9432 56.924 81.3433 57.3054 79.3297 57.4372Z" fill="black"/>
<path opacity="0.1" d="M76.3318 56.5089C74.1738 56.4725 72.285 56.3028 72.285 56.3028C72.8122 58.7146 71.7241 60.5992 70.6023 61.8275C70.1734 62.3026 69.632 62.6624 69.0278 62.8738C68.4237 63.0852 67.7761 63.1416 67.1445 63.0376C64.706 62.617 61.788 63.1905 59.1 64.0668L54.6171 61.2105L50.7568 58.5463C51.8786 57.9448 52.7466 57.2843 53.2149 56.5832C54.4601 54.7155 58.5433 53.3259 62.3475 52.3976C67.3399 51.1667 72.5635 51.2265 77.5264 52.5715L77.6583 52.6066C80.0967 53.2866 82.2365 54.1294 82.5211 55.0408C82.9306 56.3519 79.3661 56.5622 76.3318 56.5089Z" fill="black"/>
<path d="M36.4298 45.3474C36.4298 45.3474 29.0948 46.0934 26.9564 55.6018C26.6258 57.0798 25.9589 58.4618 25.0074 59.6401C22.8816 62.2665 19.3663 67.3804 19.5626 72.2895C19.843 79.3005 19.843 82.105 29.0976 80.1419C38.3522 78.1788 50.8319 68.0829 50.8319 68.0829C50.8319 68.0829 60.6698 62.2034 67.1396 63.3153C67.7712 63.419 68.4187 63.3626 69.0228 63.1512C69.6269 62.9397 70.1683 62.5801 70.5974 62.1052C71.7192 60.8769 72.8143 58.9923 72.2801 56.5805C72.2801 56.5805 83.2173 57.5621 82.5162 55.3185C82.2358 54.4071 80.0918 53.5644 77.6534 52.8857C72.6518 51.5068 67.3801 51.4344 62.3426 52.6754C58.5314 53.605 54.4552 54.9946 53.21 56.861C50.686 60.6469 36.3835 63.0307 36.3835 63.0307L36.8042 62.5581C38.1625 61.0241 39.1421 59.1929 39.6642 57.2115C40.1863 55.2302 40.2364 53.154 39.8105 51.1498C39.2636 48.63 38.2583 46.2168 36.4298 45.3474Z" fill="#E09999"/>
<path d="M34.4951 45.2956C34.4951 45.2956 34.0744 62.2623 40.3844 59.7383C46.6943 57.2144 41.7866 45.2956 41.7866 45.2956L38.9822 45.0151L34.4951 45.2956Z" fill="#EE3A71"/>
<path opacity="0.1" d="M53.3789 25.1218C57.5391 24.66 61.6418 23.7782 65.6244 22.4899C66.648 22.159 67.76 21.7187 68.2381 20.7568C68.3615 20.5086 68.454 20.2141 68.6966 20.0781C68.9028 19.9617 69.158 19.9982 69.3893 20.0514C70.7565 20.3754 71.9301 21.2321 73.2328 21.7579C74.5354 22.2838 76.1943 22.4072 77.1954 21.42C78.3775 20.2534 77.9863 18.2482 77.208 16.7829C74.3181 11.3311 67.5482 8.84218 61.3897 9.29369C60.5245 9.35679 59.6454 9.47317 58.8657 9.85457C57.2167 10.6468 56.3137 12.4094 55.4205 14.0065C53.6832 17.104 44.4973 26.1048 53.3789 25.1218Z" fill="black"/>
<path d="M53.3789 24.7012C57.5391 24.2394 61.6418 23.3576 65.6244 22.0692C66.648 21.7383 67.76 21.298 68.2381 20.3361C68.3615 20.0879 68.454 19.7935 68.6966 19.6574C68.9028 19.5411 69.158 19.5775 69.3893 19.6308C70.7565 19.9547 71.9301 20.8115 73.2328 21.3373C74.5354 21.8631 76.1943 21.9865 77.1954 20.9994C78.3775 19.8327 77.9863 17.8276 77.208 16.3622C74.3181 10.9104 67.5482 8.42152 61.3897 8.87303C60.5245 8.93613 59.6454 9.05252 58.8657 9.43392C57.2167 10.2262 56.3137 11.9887 55.4205 13.5859C53.6832 16.6833 44.4973 25.6841 53.3789 24.7012Z" fill="#40243E"/>
<path d="M143.761 39.5464H115.296C114.952 39.5464 114.622 39.683 114.379 39.9263C114.136 40.1695 113.999 40.4994 113.999 40.8434V57.5297C113.999 57.8737 114.136 58.2036 114.379 58.4469C114.622 58.6901 114.952 58.8268 115.296 58.8268H143.761C144.105 58.8268 144.435 58.6901 144.678 58.4469C144.921 58.2036 145.058 57.8737 145.058 57.5297V40.8434C145.058 40.4994 144.921 40.1695 144.678 39.9263C144.435 39.683 144.105 39.5464 143.761 39.5464Z" fill="url(#paint1_linear_1_6022)"/>
<path d="M143.023 39.7734H116.029C115.107 39.7734 114.359 40.5211 114.359 41.4435V56.9309C114.359 57.8532 115.107 58.6009 116.029 58.6009H143.023C143.946 58.6009 144.693 57.8532 144.693 56.9309V41.4435C144.693 40.5211 143.946 39.7734 143.023 39.7734Z" fill="#54514C"/>
<path d="M144.693 43.0688H114.359V46.5211H144.693V43.0688Z" fill="#FFAA00"/>
<path opacity="0.3" d="M144.693 43.0688H114.359V46.5211H144.693V43.0688Z" fill="black"/>
<path d="M141.816 49.0828H117.235V50.757H141.816V49.0828Z" fill="#D6D6E3"/>
<path d="M119.275 57.3461C120.604 57.3461 121.682 56.2688 121.682 54.9399C121.682 53.611 120.604 52.5337 119.275 52.5337C117.946 52.5337 116.869 53.611 116.869 54.9399C116.869 56.2688 117.946 57.3461 119.275 57.3461Z" fill="#F2C94C"/>
<path opacity="0.3" d="M119.275 57.3461C120.604 57.3461 121.682 56.2688 121.682 54.9399C121.682 53.611 120.604 52.5337 119.275 52.5337C117.946 52.5337 116.869 53.611 116.869 54.9399C116.869 56.2688 117.946 57.3461 119.275 57.3461Z" fill="black"/>
<path opacity="0.05" d="M35.4766 63.1035C35.4766 63.1035 32.8124 64.5183 32.3707 66.2473C31.929 67.9762 31.4102 68.2917 31.4102 68.2917" fill="black"/>
<path opacity="0.05" d="M100.82 80.7715C100.82 80.7715 99.5577 85.1183 100.82 85.6792V80.7715Z" fill="black"/>
<path opacity="0.05" d="M37.8604 85.6793C37.8604 85.6793 48.7976 88.063 56.9304 83.1553H60.4359C60.4359 83.1553 70.9525 88.4837 76.0005 86.9412" fill="black"/>
<path d="M115.501 77.2476L113.38 82.1067L122.849 86.2396L124.97 81.3805L115.501 77.2476Z" fill="#8ED16F"/>
<path d="M121.14 82.6761C121.38 82.1253 120.682 81.2893 119.582 80.8088C118.481 80.3283 117.393 80.3853 117.153 80.9361C116.913 81.4869 117.61 82.3229 118.711 82.8033C119.812 83.2838 120.899 83.2269 121.14 82.6761Z" fill="#8ED16F"/>
<path opacity="0.1" d="M121.14 82.6761C121.38 82.1253 120.682 81.2893 119.582 80.8088C118.481 80.3283 117.393 80.3853 117.153 80.9361C116.913 81.4869 117.61 82.3229 118.711 82.8033C119.812 83.2838 120.899 83.2269 121.14 82.6761Z" fill="black"/>
<path d="M129.387 59.9361L127.267 64.7952L136.735 68.9281L138.856 64.069L129.387 59.9361Z" fill="#8ED16F"/>
<path d="M135.025 65.3643C135.266 64.8135 134.568 63.9775 133.467 63.4971C132.366 63.0166 131.279 63.0735 131.039 63.6243C130.798 64.1751 131.496 65.0111 132.597 65.4916C133.698 65.9721 134.785 65.9151 135.025 65.3643Z" fill="#8ED16F"/>
<path opacity="0.1" d="M135.025 65.3643C135.266 64.8135 134.568 63.9775 133.467 63.4971C132.366 63.0166 131.279 63.0735 131.039 63.6243C130.798 64.1751 131.496 65.0111 132.597 65.4916C133.698 65.9721 134.785 65.9151 135.025 65.3643Z" fill="black"/>
<path d="M146.206 77.5222L141.003 78.542L142.99 88.6806L148.193 87.6608L146.206 77.5222Z" fill="#8ED16F"/>
<path d="M144.951 85.2483C145.541 85.1328 145.832 84.0835 145.601 82.9048C145.37 81.7261 144.704 80.8643 144.115 80.9799C143.525 81.0955 143.234 82.1447 143.465 83.3234C143.696 84.5021 144.362 85.3639 144.951 85.2483Z" fill="#8ED16F"/>
<path opacity="0.1" d="M144.951 85.2483C145.541 85.1328 145.832 84.0835 145.601 82.9048C145.37 81.7261 144.704 80.8643 144.115 80.9799C143.525 81.0955 143.234 82.1447 143.465 83.3234C143.696 84.5021 144.362 85.3639 144.951 85.2483Z" fill="black"/>
<path d="M127.489 101.033L125.368 105.892L134.837 110.025L136.958 105.166L127.489 101.033Z" fill="#8ED16F"/>
<path d="M133.13 106.462C133.37 105.911 132.673 105.075 131.572 104.595C130.471 104.114 129.384 104.171 129.143 104.722C128.903 105.273 129.6 106.109 130.701 106.589C131.802 107.07 132.889 107.013 133.13 106.462Z" fill="#8ED16F"/>
<path opacity="0.1" d="M133.13 106.462C133.37 105.911 132.673 105.075 131.572 104.595C130.471 104.114 129.384 104.171 129.143 104.722C128.903 105.273 129.6 106.109 130.701 106.589C131.802 107.07 132.889 107.013 133.13 106.462Z" fill="black"/>
<path d="M104.093 96.441L101.972 101.3L111.441 105.433L113.561 100.574L104.093 96.441Z" fill="#8ED16F"/>
<path d="M109.732 101.87C109.973 101.319 109.275 100.483 108.174 100.003C107.074 99.5222 105.986 99.5792 105.746 100.13C105.505 100.681 106.203 101.517 107.304 101.997C108.405 102.478 109.492 102.421 109.732 101.87Z" fill="#8ED16F"/>
<path opacity="0.1" d="M109.732 101.87C109.973 101.319 109.275 100.483 108.174 100.003C107.074 99.5222 105.986 99.5792 105.746 100.13C105.505 100.681 106.203 101.517 107.304 101.997C108.405 102.478 109.492 102.421 109.732 101.87Z" fill="black"/>
<defs>
<linearGradient id="paint0_linear_1_6022" x1="86.9023" y1="115.323" x2="21.8623" y2="-55.7486" gradientUnits="userSpaceOnUse">
<stop stop-color="#E0E0E0"/>
<stop offset="1" stop-color="white"/>
</linearGradient>
<linearGradient id="paint1_linear_1_6022" x1="30605.2" y1="8797.86" x2="30605.2" y2="6146.61" gradientUnits="userSpaceOnUse">
<stop stop-color="#808080" stop-opacity="0.25"/>
<stop offset="0.54" stop-color="#808080" stop-opacity="0.12"/>
<stop offset="1" stop-color="#808080" stop-opacity="0.1"/>
</linearGradient>
</defs>
</svg>
