<svg width="64" height="44" viewBox="0 0 64 44" fill="none" xmlns="http://www.w3.org/2000/svg">
<path d="M49 31L56 38L63 31" stroke="#FF3E79" stroke-width="1.5" stroke-linecap="round" stroke-linejoin="round"/>
<path d="M8.19336 38.5125C8.19336 38.5125 15.6843 35.5985 15.7724 33.6836C15.8606 31.7686 15.9487 31.6021 15.7724 31.3523C15.5962 31.1025 13.5693 27.9388 13.393 26.6899C13.393 26.6899 11.4541 23.526 13.0405 20.1958C13.0405 20.1958 12.688 15.3667 13.4811 13.9513C14.2743 12.536 16.5657 9.70518 21.8533 9.95496C27.1411 10.2047 28.9917 12.6193 29.2561 13.2853C29.5205 13.9513 29.9611 14.8671 29.9611 17.0319C29.8729 19.1966 29.6085 20.0292 30.1373 20.4455C30.6662 20.7786 31.5474 25.6075 29.1679 26.8564C29.1679 26.8564 27.6698 30.3532 26.5241 31.4355C26.5241 31.4355 25.819 34.2664 27.4935 35.1822C29.1679 36.0981 34.7201 38.8455 34.7201 38.8455" stroke="#F9357C" stroke-width="1.5" stroke-miterlimit="10"/>
<path d="M21.3586 43.1213C32.6023 43.1213 41.7172 33.692 41.7172 22.0606C41.7172 10.4291 32.6023 1 21.3586 1C10.1149 1 1 10.4291 1 22.0606C1 33.692 10.1149 43.1213 21.3586 43.1213Z" stroke="#F9357C" stroke-width="1.5" stroke-miterlimit="10"/>
</svg>
