<svg width="24" height="18" viewBox="0 0 24 18" fill="none" xmlns="http://www.w3.org/2000/svg">
<path d="M24 2V15.7C24 16.8028 23.1028 17.7 22 17.7H2C0.8972 17.7 0 16.8028 0 15.7V9.7C0 9.4791 0.1791 9.3 0.4 9.3C0.6209 9.3 0.8 9.4791 0.8 9.7V15.7C0.8 16.3616 1.33835 16.9 2 16.9H22C22.6616 16.9 23.2 16.3616 23.2 15.7V2C23.2 1.33835 22.6616 0.8 22 0.8H2C1.33835 0.8 0.8 1.33835 0.8 2V3.6H21.3C21.5209 3.6 21.7 3.7791 21.7 4C21.7 4.2209 21.5209 4.4 21.3 4.4H0.8V7H21.3C21.5209 7 21.7 7.1791 21.7 7.4C21.7 7.6209 21.5209 7.8 21.3 7.8H0.4C0.1791 7.8 0 7.6209 0 7.4V2C0 0.8972 0.8972 0 2 0H22C23.1028 0 24 0.8972 24 2ZM20.8 12.4C20.8 11.3731 19.6585 10.7504 18.7938 11.3091C19.6423 12.6992 18.6379 14.5 17 14.5C15.8421 14.5 14.9 13.5579 14.9 12.4C14.9 10.6766 16.8719 9.6895 18.25 10.7137C19.6343 9.68975 21.6 10.6798 21.6 12.4C21.6 13.5579 20.6579 14.5 19.5 14.5C19.2791 14.5 19.1 14.3209 19.1 14.1C19.1 13.8791 19.2791 13.7 19.5 13.7C20.2169 13.7 20.8 13.1168 20.8 12.4ZM18.3 12.4C18.3 11.6831 17.7169 11.1 17 11.1C16.2831 11.1 15.7 11.6831 15.7 12.4C15.7 13.1168 16.2831 13.7 17 13.7C17.7169 13.7 18.3 13.1168 18.3 12.4ZM3.65 11.55H7C7.2209 11.55 7.4 11.3709 7.4 11.15C7.4 10.9291 7.2209 10.75 7 10.75H3.65C3.4291 10.75 3.25 10.9291 3.25 11.15C3.25 11.3709 3.4291 11.55 3.65 11.55ZM3.65 14.05H7C7.2209 14.05 7.4 13.8709 7.4 13.65C7.4 13.4291 7.2209 13.25 7 13.25H3.65C3.4291 13.25 3.25 13.4291 3.25 13.65C3.25 13.8709 3.4291 14.05 3.65 14.05Z" fill="#54514C" fill-opacity="0.75"/>
</svg>
