<svg width="25" height="25" viewBox="0 0 25 25" fill="none" xmlns="http://www.w3.org/2000/svg">
<path d="M20.8333 0L19.5357 2.86905L16.6667 4.16667L19.5357 5.46429L20.8333 8.33333L22.1429 5.46429L25 4.16667L22.1429 2.86905L20.8333 0ZM11.9048 1.19048C5.35714 1.19048 0 6.54762 0 13.0952V25H23.8095V13.0952C23.8095 11.3452 23.4167 9.67857 22.7381 8.17857L21.2619 11.3929C21.369 11.9524 21.4286 12.5 21.4286 13.0952C21.4286 18.369 17.1786 22.619 11.9048 22.619C6.63095 22.619 2.38095 18.369 2.38095 13.0952V12.9286C3.91525 12.3602 5.31484 11.4795 6.49109 10.3422C7.66735 9.20489 8.59465 7.83574 9.21428 6.32143C10.4999 7.90283 12.1703 9.12746 14.0651 9.87791C15.96 10.6284 18.0159 10.8795 20.0357 10.6071L19 8.33333H18.4524C15.0952 8.33333 12.0238 6.54762 10.3095 3.71429C10.8333 3.63095 11.3571 3.57143 11.9048 3.57143C12.5 3.57143 13.0476 3.63095 13.5952 3.72619L16.8214 2.27381C15.2802 1.56134 13.6027 1.19173 11.9048 1.19048ZM7.25 4.7619C6.50112 7.02723 4.94065 8.93542 2.86905 10.119C3.61905 7.82143 5.20238 5.95238 7.25 4.7619ZM8.33333 12.7976C7.93867 12.7976 7.56016 12.9544 7.28109 13.2335C7.00202 13.5125 6.84524 13.891 6.84524 14.2857C6.84524 14.6804 7.00202 15.0589 7.28109 15.338C7.56016 15.617 7.93867 15.7738 8.33333 15.7738C8.728 15.7738 9.1065 15.617 9.38558 15.338C9.66465 15.0589 9.82143 14.6804 9.82143 14.2857C9.82143 13.891 9.66465 13.5125 9.38558 13.2335C9.1065 12.9544 8.728 12.7976 8.33333 12.7976ZM15.4762 12.7976C15.0815 12.7976 14.703 12.9544 14.4239 13.2335C14.1449 13.5125 13.9881 13.891 13.9881 14.2857C13.9881 14.6804 14.1449 15.0589 14.4239 15.338C14.703 15.617 15.0815 15.7738 15.4762 15.7738C15.8709 15.7738 16.2494 15.617 16.5284 15.338C16.8075 15.0589 16.9643 14.6804 16.9643 14.2857C16.9643 13.891 16.8075 13.5125 16.5284 13.2335C16.2494 12.9544 15.8709 12.7976 15.4762 12.7976ZM2.38095 20.2024C3.07143 21.119 3.88095 21.9286 4.79762 22.619H2.38095V20.2024ZM21.4286 20.2024V22.619H19.0119C19.9286 21.9286 20.7381 21.119 21.4286 20.2024Z" fill="white"/>
</svg>
