<svg width="153" height="115" viewBox="0 0 153 115" fill="none" xmlns="http://www.w3.org/2000/svg">
<path d="M127.549 95.8935V98.8557L130.017 99.0202L129.852 95.5649L127.549 95.8935Z" fill="#E09999"/>
<path d="M128.043 97.2101L126.397 96.8811C126.397 96.8811 124.093 100.995 122.612 101.324C121.316 101.612 118.257 102.656 119.386 104.125C119.556 104.336 119.775 104.501 120.025 104.606C120.274 104.71 120.546 104.75 120.815 104.723L127.878 104.121C127.878 104.121 130.675 104.285 130.675 102.64V97.2095L128.043 97.2101Z" fill="#313131"/>
<path d="M127.756 80.5608L127.047 96.6279L131.536 97.8093L127.756 80.5608Z" fill="#54514C"/>
<path d="M129.41 102.299V106.552L132.955 106.788L132.718 101.826L129.41 102.299Z" fill="#E09999"/>
<path d="M122.084 60.0042L123.974 62.8395L128.227 88.3579L128.936 103.717H136.025L134.371 66.3846C134.371 66.3846 137.679 62.3678 135.316 58.3511L122.084 60.0042Z" fill="#54514C"/>
<path d="M130.118 104.189L127.756 103.716C127.756 103.716 124.448 109.623 122.321 110.096C120.498 110.501 116.245 111.947 117.597 113.989C117.832 114.329 118.155 114.601 118.531 114.774C118.907 114.948 119.323 115.017 119.735 114.976L129.883 114.112C129.883 114.112 133.9 114.349 133.9 111.986V104.189H130.118Z" fill="#313131"/>
<path d="M130.355 27.6338C133.095 27.6338 135.316 25.4123 135.316 22.6719C135.316 19.9315 133.095 17.71 130.355 17.71C127.614 17.71 125.393 19.9315 125.393 22.6719C125.393 25.4123 127.614 27.6338 130.355 27.6338Z" fill="#E09999"/>
<path d="M127.52 25.2707V32.3595C127.52 32.5958 132.954 31.8869 132.954 31.8869C132.954 31.8869 133.19 25.2711 133.19 24.5623L127.52 25.2707Z" fill="#E09999"/>
<path d="M133.426 28.3428C133.426 28.3428 130.355 27.6339 124.92 31.1781H123.975L123.739 36.6126C123.739 36.6126 120.431 40.157 120.903 41.5745C120.903 41.5745 116.887 46.3004 118.541 48.1903C118.541 48.1903 114.76 52.6797 116.414 54.5698C116.414 54.5698 112.397 59.768 114.76 60.4771C114.76 60.4771 119.958 60.4771 122.794 60.9497C125.629 61.4223 137.443 58.8233 137.443 58.8233C137.443 58.8233 137.679 52.6799 137.443 52.6799H137.207C137.207 52.6799 138.152 47.0091 137.679 46.7726C137.679 46.7726 137.915 40.3931 137.207 40.1568L133.426 28.3428Z" fill="#FFB156"/>
<path d="M132.669 33.7832C131.802 33.9012 130.979 34.2362 130.276 34.757C129.573 35.2779 129.014 35.9678 128.649 36.7628C127.966 38.2681 127.738 39.9403 127.992 41.5736C128.701 46.2994 130.355 47.7168 130.355 47.7168C130.355 47.7168 128.701 48.4256 129.174 49.1345C129.646 49.8434 128.701 49.8434 128.701 49.8434C128.701 49.8434 128.701 50.0797 127.992 50.5523C127.283 51.0249 126.811 50.7886 126.574 51.0249C126.338 51.2612 125.393 51.0249 125.393 51.0249C125.393 51.0249 122.558 55.9868 125.393 56.4594C128.228 56.932 129.41 54.569 130.591 54.8053C131.773 55.0416 137.443 53.1513 136.971 48.6619C136.498 44.1726 134.372 33.54 132.718 33.7763L132.669 33.7832Z" fill="white"/>
<path d="M125.959 20.0558C125.949 19.5532 126.058 19.0555 126.277 18.6027C126.495 18.15 126.817 17.7549 127.216 17.4494C128.017 16.8473 129.037 15.4596 129.992 15.7645C130.418 15.9008 130.813 16.1271 131.248 16.2358C131.949 16.4109 132.684 16.2649 133.404 16.1933C135.213 16.0133 137.177 17.5361 138.729 18.4844C140.281 19.4327 141.461 21.039 141.71 22.8399C141.875 24.028 141.643 25.231 141.598 26.4296C141.553 27.6282 141.736 28.9263 142.563 29.7943C143.511 30.7911 145.028 30.9586 146.21 31.6618C147.04 32.1807 147.683 32.9513 148.043 33.8611C148.404 34.7708 148.465 35.7721 148.216 36.7188C148.066 37.107 147.967 37.5136 147.924 37.9278C147.92 38.3443 148.146 38.8053 148.553 38.8956C148.733 38.9156 148.914 38.9188 149.095 38.9051C149.713 38.9242 150.219 39.4178 150.526 39.9544C150.833 40.4911 151.01 41.0977 151.35 41.6146C152.179 42.8764 148.985 43.5718 150.447 43.9512C147.922 44.5556 150.146 44.9502 147.89 46.2356C146.921 46.7881 145.817 47.485 144.775 47.0853C144.061 46.8114 143.621 46.0792 143.406 45.3461C143.191 44.6129 143.148 43.836 142.934 43.1017C142.684 42.3113 142.262 41.5856 141.7 40.9761C141.138 40.3666 140.449 39.8881 139.681 39.5746C138.779 39.1957 137.793 39.0302 136.919 38.5914C136.172 38.2064 135.535 37.6382 135.068 36.9399C134.601 36.2416 134.319 35.4361 134.248 34.599C134.204 33.9962 134.27 33.3744 134.081 32.8004C133.709 31.6676 132.467 31.036 131.949 29.962C131.405 28.8336 131.771 27.4942 131.639 26.2496C131.531 25.4988 131.321 24.7663 131.014 24.0725C130.55 22.9092 130.003 21.7206 129.029 20.9337C128.112 20.1935 127.022 19.8318 125.868 20.0687C125.496 20.1453 125.924 19.694 125.868 20.0687" fill="#54514C"/>
<path d="M130 23.9716C130.261 23.9716 130.473 23.5485 130.473 23.0265C130.473 22.5045 130.261 22.0813 130 22.0813C129.739 22.0813 129.527 22.5045 129.527 23.0265C129.527 23.5485 129.739 23.9716 130 23.9716Z" fill="#C88686"/>
<path d="M0.55036 60.1274C0.404444 60.1276 0.264551 60.1856 0.161373 60.2888C0.058195 60.392 0.000160259 60.5319 0 60.6778V79.4495C0.000160259 79.5954 0.058195 79.7353 0.161373 79.8384C0.264551 79.9416 0.404444 79.9997 0.55036 79.9998H64.5587C64.7046 79.9997 64.8445 79.9416 64.9477 79.8384C65.0509 79.7353 65.1089 79.5954 65.1091 79.4495V60.6778C65.1089 60.5319 65.0509 60.392 64.9477 60.2888C64.8445 60.1856 64.7046 60.1276 64.5587 60.1274H0.55036Z" fill="#F2F2F2"/>
<path d="M1.37891 70.0635C1.37891 74.7895 5.21007 78.6207 9.93606 78.6207H55.1725C59.8985 78.6207 63.7297 74.7895 63.7297 70.0635C63.7297 65.3375 59.8985 61.5063 55.1725 61.5063H9.93605C5.21007 61.5063 1.37891 65.3375 1.37891 70.0635Z" fill="white"/>
<path d="M55.859 75.0703C55.6172 75.0703 55.3853 75.1664 55.2143 75.3374C55.0433 75.5083 54.9473 75.7402 54.9473 75.982C54.9473 76.2238 55.0433 76.4557 55.2143 76.6267C55.3853 76.7977 55.6172 76.8938 55.859 76.8938H59.5057C59.7475 76.8938 59.9794 76.7977 60.1504 76.6267C60.3213 76.4557 60.4174 76.2238 60.4174 75.982C60.4174 75.7402 60.3213 75.5083 60.1504 75.3374C59.9794 75.1664 59.7475 75.0703 59.5057 75.0703H55.859Z" fill="#FFB156"/>
<path d="M60.4175 73.302H18.3203V73.542H60.4175V73.302Z" fill="#E0E0E0"/>
<path d="M9.54836 75.4043C12.481 75.4043 14.8584 73.0269 14.8584 70.0943C14.8584 67.1616 12.481 64.7842 9.54836 64.7842C6.61568 64.7842 4.23828 67.1616 4.23828 70.0943C4.23828 73.0269 6.61568 75.4043 9.54836 75.4043Z" fill="#FFB156"/>
<path d="M18.3869 71.9626L18.2539 71.763L22.6284 68.8465L25.628 70.2865L29.9429 67.5291L38.5259 71.1903L45.3609 67.8326L51.9974 70.5243L60.3372 67.1741L60.4962 67.3537L52.046 70.8026L45.3704 68.0962L38.533 71.4549L29.9653 67.8001L25.6449 70.5606L22.6479 69.122L18.3869 71.9626Z" fill="#54514C" fill-opacity="0.75"/>
<path d="M19.1011 75.1957C18.8965 75.1989 18.7014 75.2825 18.5579 75.4284C18.4144 75.5742 18.334 75.7706 18.334 75.9752C18.334 76.1798 18.4144 76.3762 18.5579 76.522C18.7014 76.6678 18.8965 76.7514 19.1011 76.7547H27.2566C27.4633 76.7581 27.663 76.6792 27.8115 76.5354C27.9601 76.3916 28.0455 76.1946 28.0488 75.9879C28.0522 75.7811 27.9733 75.5815 27.8295 75.433C27.6857 75.2844 27.4887 75.199 27.282 75.1957C27.2735 75.1955 27.2651 75.1955 27.2566 75.1957H19.1011Z" fill="#F2F2F2"/>
<path d="M9.56305 73.4166C11.3896 73.4166 12.8702 71.9359 12.8702 70.1094C12.8702 68.2829 11.3896 66.8022 9.56305 66.8022C7.73654 66.8022 6.25586 68.2829 6.25586 70.1094C6.25586 71.9359 7.73654 73.4166 9.56305 73.4166Z" stroke="white" stroke-width="1.5" stroke-linecap="round" stroke-linejoin="round"/>
<path d="M9.5625 68.2722V70.1095L10.6649 71.2119" stroke="white" stroke-width="1.5" stroke-linecap="round" stroke-linejoin="round"/>
<path d="M8.8863 0C8.74038 0.000160259 8.60049 0.0581965 8.49731 0.161375C8.39413 0.264553 8.3361 0.404446 8.33594 0.550362V19.322C8.3361 19.4679 8.39413 19.6078 8.49731 19.711C8.60049 19.8142 8.74038 19.8722 8.8863 19.8724H72.8946C73.0405 19.8722 73.1804 19.8142 73.2836 19.711C73.3868 19.6078 73.4448 19.4679 73.445 19.322V0.550362C73.4448 0.404446 73.3868 0.264553 73.2836 0.161375C73.1804 0.0581965 73.0405 0.000160259 72.8946 0H8.8863Z" fill="#F2F2F2"/>
<path d="M9.71484 9.93631C9.71484 14.6623 13.546 18.4935 18.272 18.4935H63.5083C68.2343 18.4935 72.0654 14.6623 72.0654 9.93631C72.0654 5.21032 68.2343 1.37915 63.5083 1.37915H18.272C13.546 1.37915 9.71484 5.21032 9.71484 9.93631Z" fill="white"/>
<path d="M64.1949 14.9429C63.9531 14.9429 63.7212 15.0389 63.5502 15.2099C63.3793 15.3809 63.2832 15.6128 63.2832 15.8546C63.2832 16.0964 63.3793 16.3283 63.5502 16.4993C63.7212 16.6703 63.9531 16.7663 64.1949 16.7663H67.8416C68.0834 16.7663 68.3153 16.6703 68.4863 16.4993C68.6573 16.3283 68.7533 16.0964 68.7533 15.8546C68.7533 15.6128 68.6573 15.3809 68.4863 15.2099C68.3153 15.0389 68.0834 14.9429 67.8416 14.9429H64.1949Z" fill="#54514C"/>
<path d="M68.7534 13.1746H26.6562V13.4145H68.7534V13.1746Z" fill="#E0E0E0"/>
<path d="M17.8238 15.262C20.7564 15.262 23.1338 12.8846 23.1338 9.95192C23.1338 7.01925 20.7564 4.64185 17.8238 4.64185C14.8911 4.64185 12.5137 7.01925 12.5137 9.95192C12.5137 12.8846 14.8911 15.262 17.8238 15.262Z" fill="#E6E6E6"/>
<path d="M26.7228 11.8349L26.5898 11.6353L30.9643 8.71902L33.9639 10.159L38.2786 7.40234L38.337 7.42717L46.8618 11.0638L53.6969 7.70608L60.3341 10.3969L68.6739 12.0922L68.8329 12.2718L60.3817 10.6753L53.7061 7.96865L46.8685 11.3273L38.3008 7.67258L33.9803 10.4329L30.9833 8.9943L26.7228 11.8349Z" fill="#54514C" fill-opacity="0.75"/>
<path d="M27.437 15.0687C27.2324 15.072 27.0374 15.1556 26.8939 15.3014C26.7503 15.4472 26.6699 15.6436 26.6699 15.8482C26.6699 16.0528 26.7503 16.2492 26.8939 16.3951C27.0374 16.5409 27.2324 16.6245 27.437 16.6278H35.5925C35.7991 16.6308 35.9985 16.5517 36.1468 16.4079C36.2951 16.2641 36.3803 16.0673 36.3836 15.8607C36.3869 15.6541 36.3081 15.4547 36.1644 15.3062C36.0208 15.1577 35.8241 15.0723 35.6175 15.0687C35.6092 15.0686 35.6009 15.0686 35.5925 15.0687H27.437Z" fill="#F2F2F2"/>
<path d="M17.8384 13.2745C19.6649 13.2745 21.1456 11.7939 21.1456 9.96734C21.1456 8.14083 19.6649 6.66016 17.8384 6.66016C16.0119 6.66016 14.5312 8.14083 14.5312 9.96734C14.5312 11.7939 16.0119 13.2745 17.8384 13.2745Z" stroke="white" stroke-width="1.5" stroke-linecap="round" stroke-linejoin="round"/>
<path d="M17.8379 8.13013V9.96745L18.9403 11.0698" stroke="white" stroke-width="1.5" stroke-linecap="round" stroke-linejoin="round"/>
<path d="M34.4566 30.0713C34.3107 30.0714 34.1708 30.1295 34.0676 30.2327C33.9644 30.3358 33.9064 30.4757 33.9062 30.6216V49.3933C33.9064 49.5392 33.9644 49.6791 34.0676 49.7823C34.1708 49.8855 34.3107 49.9435 34.4566 49.9437H98.465C98.6109 49.9435 98.7508 49.8855 98.8539 49.7823C98.9571 49.6791 99.0152 49.5392 99.0153 49.3933V30.6216C99.0152 30.4757 98.9571 30.3358 98.8539 30.2327C98.7508 30.1295 98.6109 30.0714 98.465 30.0713H34.4566Z" fill="#F2F2F2"/>
<path d="M35.3184 40.0413C35.3184 44.7673 39.1495 48.5984 43.8755 48.5984H89.112C93.838 48.5984 97.6691 44.7673 97.6691 40.0413C97.6691 35.3153 93.838 31.4841 89.112 31.4841H43.8755C39.1495 31.4841 35.3184 35.3153 35.3184 40.0413Z" fill="white"/>
<path d="M89.7984 45.0483C89.5566 45.0483 89.3247 45.1444 89.1538 45.3154C88.9828 45.4864 88.8867 45.7183 88.8867 45.9601C88.8867 46.2019 88.9828 46.4338 89.1538 46.6047C89.3247 46.7757 89.5566 46.8718 89.7984 46.8718H93.4447C93.6865 46.8718 93.9184 46.7757 94.0894 46.6047C94.2604 46.4338 94.3564 46.2019 94.3564 45.9601C94.3564 45.7183 94.2604 45.4864 94.0894 45.3154C93.9184 45.1444 93.6865 45.0483 93.4447 45.0483H89.798H89.7984Z" fill="#FF3E79"/>
<path d="M94.3569 43.2795H52.2598V43.5195H94.3569V43.2795Z" fill="#E0E0E0"/>
<path d="M43.4722 45.3745C46.4049 45.3745 48.7823 42.9971 48.7823 40.0645C48.7823 37.1318 46.4049 34.7544 43.4722 34.7544C40.5395 34.7544 38.1621 37.1318 38.1621 40.0645C38.1621 42.9971 40.5395 45.3745 43.4722 45.3745Z" fill="#FF3E79"/>
<path d="M52.3266 41.9402L52.1934 41.7406L56.5678 38.8244L59.5676 40.2643L63.8824 37.5077L63.9407 37.5325L72.4653 41.1691L79.3006 37.8114L85.9378 40.5021L94.2776 33.1155L94.4366 33.2951L85.9854 40.7798L79.3098 38.0734L72.4724 41.4321L63.9047 37.7773L59.5842 40.5376L56.588 39.0996L52.3266 41.9402Z" fill="#54514C" fill-opacity="0.75"/>
<path d="M53.0404 45.1737C52.938 45.172 52.8363 45.1905 52.7411 45.2282C52.6459 45.2658 52.559 45.3218 52.4854 45.393C52.4119 45.4642 52.3531 45.5492 52.3123 45.6432C52.2716 45.7371 52.2498 45.8382 52.2482 45.9405C52.2465 46.0429 52.265 46.1446 52.3026 46.2398C52.3403 46.335 52.3963 46.4219 52.4675 46.4954C52.5387 46.569 52.6237 46.6278 52.7176 46.6686C52.8116 46.7093 52.9126 46.7311 53.015 46.7327C53.0235 46.7329 53.0319 46.7329 53.0404 46.7327H61.1959C61.4005 46.7295 61.5956 46.6459 61.7391 46.5C61.8826 46.3542 61.963 46.1578 61.963 45.9532C61.963 45.7486 61.8826 45.5522 61.7391 45.4064C61.5956 45.2606 61.4005 45.177 61.1959 45.1737H53.0404Z" fill="#F2F2F2"/>
<path d="M43.4869 43.3868C45.3134 43.3868 46.7941 41.9062 46.7941 40.0796C46.7941 38.2531 45.3134 36.7725 43.4869 36.7725C41.6604 36.7725 40.1797 38.2531 40.1797 40.0796C40.1797 41.9062 41.6604 43.3868 43.4869 43.3868Z" stroke="white" stroke-width="1.5" stroke-linecap="round" stroke-linejoin="round"/>
<path d="M43.4863 38.2424V40.0798L44.5887 41.1822" stroke="white" stroke-width="1.5" stroke-linecap="round" stroke-linejoin="round"/>
</svg>
