<svg width="31" height="26" viewBox="0 0 31 26" fill="none" xmlns="http://www.w3.org/2000/svg">
<path d="M18.8738 7.14403V4.1726C18.8738 3.38453 18.5386 2.62873 17.942 2.07148C17.3453 1.51423 16.5361 1.20117 15.6922 1.20117H4.55661C3.71279 1.20117 2.90354 1.51423 2.30687 2.07148C1.7102 2.62873 1.375 3.38453 1.375 4.1726V22.0012C1.375 22.7892 1.7102 23.545 2.30687 24.1023C2.90354 24.6595 3.71279 24.9726 4.55661 24.9726H15.6922C16.5361 24.9726 17.3453 24.6595 17.942 24.1023C18.5386 23.545 18.8738 22.7892 18.8738 22.0012V19.0297" stroke="#FF3E79" stroke-width="1.5" stroke-linecap="round" stroke-linejoin="round"/>
<path d="M30.0076 13.088H7.73633H17.4258H30.0076ZM30.0076 13.088L25.2352 8.63086M30.0076 13.088L25.2352 17.5451" stroke="#FF3E79" stroke-width="1.5" stroke-linecap="round" stroke-linejoin="round"/>
</svg>
