<svg width="31" height="22" viewBox="0 0 31 22" fill="none" xmlns="http://www.w3.org/2000/svg">
<path d="M1.37695 20.4045L2.65196 16.8322C1.55001 15.3101 1.15137 13.5076 1.53017 11.7598C1.90897 10.012 3.03943 8.43782 4.71136 7.33003C6.38329 6.22225 8.48291 5.65619 10.6199 5.73711C12.7568 5.81803 14.7856 6.54042 16.3291 7.76997C17.8726 8.99952 18.8258 10.6525 19.0113 12.4217C19.1969 14.1909 18.6022 15.9558 17.3379 17.3883C16.0736 18.8208 14.2257 19.8234 12.1378 20.2097C10.0499 20.5961 7.86399 20.3398 5.98659 19.4885L1.37695 20.4045" stroke="#54514C" stroke-opacity="0.75" stroke-width="1.5" stroke-linecap="round" stroke-linejoin="round"/>
<path d="M10.2031 13.0771V13.0869" stroke="#54514C" stroke-opacity="0.75" stroke-width="1.5" stroke-linecap="round" stroke-linejoin="round"/>
<path d="M14.4824 13.0771V13.0869" stroke="#54514C" stroke-opacity="0.75" stroke-width="1.5" stroke-linecap="round" stroke-linejoin="round"/>
<path d="M6.2793 13.0771V13.0869" stroke="#54514C" stroke-opacity="0.75" stroke-width="1.5" stroke-linecap="round" stroke-linejoin="round"/>
<path d="M30.0098 15.761L28.7348 12.1886C29.8367 10.6665 30.2354 8.864 29.8566 7.1162C29.4778 5.3684 28.3473 3.79427 26.6754 2.68648C25.0034 1.57869 22.9038 1.01263 20.7669 1.09355C18.6299 1.17447 16.6011 1.89687 15.0576 3.12641C13.5141 4.35596 12.8771 5.83239 12.8771 6.08221C17.1568 8.08072 17.4243 8.83016 18.2268 10.0792C19.0292 11.3283 19.5642 14.3261 18.4942 15.5751C20.5822 15.9614 23.5227 15.6962 25.4001 14.845L30.0098 15.761Z" stroke="#54514C" stroke-opacity="0.75" stroke-width="1.5" stroke-linecap="round" stroke-linejoin="round"/>
<path d="M21.1816 8.43262V8.44237" stroke="#54514C" stroke-opacity="0.75" stroke-width="1.5" stroke-linecap="round" stroke-linejoin="round"/>
<path d="M25.1055 8.43262V8.44237" stroke="#54514C" stroke-opacity="0.75" stroke-width="1.5" stroke-linecap="round" stroke-linejoin="round"/>
</svg>
