<svg width="32" height="32" viewBox="0 0 32 32" fill="none" xmlns="http://www.w3.org/2000/svg">
<g filter="url(#filter0_d_1041_1226)">
<path d="M16 16C18.2091 16 20 14.2091 20 12C20 9.79086 18.2091 8 16 8C13.7909 8 12 9.79086 12 12C12 14.2091 13.7909 16 16 16Z" stroke="#54514C" stroke-opacity="0.75" stroke-width="1.5" stroke-linecap="round" stroke-linejoin="round"/>
<path d="M20 11.9998V13.4998C20 14.1629 20.2634 14.7988 20.7322 15.2676C21.2011 15.7365 21.837 15.9998 22.5 15.9998C23.163 15.9998 23.7989 15.7365 24.2678 15.2676C24.7366 14.7988 25 14.1629 25 13.4998V11.9998C25.0025 10.0659 24.382 8.18269 23.2304 6.62904C22.0788 5.07539 20.4574 3.934 18.6064 3.37395C16.7554 2.81389 14.7732 2.86497 12.9534 3.51961C11.1337 4.17425 9.57324 5.39763 8.50321 7.00852C7.43317 8.61942 6.91047 10.5321 7.01255 12.4633C7.11463 14.3945 7.83605 16.2415 9.06995 17.7306C10.3039 19.2197 11.9846 20.2718 13.8632 20.7309C15.7418 21.1901 17.7183 21.0319 19.5 20.2798" stroke="#54514C" stroke-opacity="0.75" stroke-width="1.5" stroke-linecap="round" stroke-linejoin="round"/>
</g>
<defs>
<filter id="filter0_d_1041_1226" x="0" y="0" width="32" height="32" filterUnits="userSpaceOnUse" color-interpolation-filters="sRGB">
<feFlood flood-opacity="0" result="BackgroundImageFix"/>
<feColorMatrix in="SourceAlpha" type="matrix" values="0 0 0 0 0 0 0 0 0 0 0 0 0 0 0 0 0 0 127 0" result="hardAlpha"/>
<feOffset dy="4"/>
<feGaussianBlur stdDeviation="2"/>
<feComposite in2="hardAlpha" operator="out"/>
<feColorMatrix type="matrix" values="0 0 0 0 0 0 0 0 0 0 0 0 0 0 0 0 0 0 0.25 0"/>
<feBlend mode="normal" in2="BackgroundImageFix" result="effect1_dropShadow_1041_1226"/>
<feBlend mode="normal" in="SourceGraphic" in2="effect1_dropShadow_1041_1226" result="shape"/>
</filter>
</defs>
</svg>
