<svg width="21" height="45" viewBox="0 0 21 45" fill="none" xmlns="http://www.w3.org/2000/svg">
<path d="M0 24.3756C0 21.7217 0 19.0679 0 16.4164C0.0398715 16.4188 0.0797429 16.4212 0.119614 16.4212C2.05233 16.4212 3.98505 16.4212 5.91567 16.4212C6.07306 16.4212 6.06256 16.4427 6.06256 16.2561C6.06256 14.3608 6.06466 12.4631 6.06256 10.5678C6.06256 10.0007 6.08355 9.43594 6.13811 8.87358C6.18218 8.40454 6.24933 7.9379 6.33747 7.47844C6.49695 6.65524 6.72989 5.85836 7.05515 5.10216C7.64903 3.71899 8.49472 2.5823 9.61532 1.71603C10.3813 1.12495 11.2165 0.70856 12.1041 0.428576C12.505 0.301745 12.9142 0.206024 13.3255 0.139019C13.5479 0.100731 13.7703 0.0791937 13.9928 0.0528704C14.3055 0.0145819 14.6202 -0.00216926 14.935 0.000223766C15.5247 0.00500982 16.1144 0.019368 16.7041 0.0313331C16.9559 0.0361192 17.2077 0.0480843 17.4616 0.0576565C17.6001 0.0624425 17.7386 0.0696216 17.8771 0.0791937C18.131 0.0959449 18.387 0.115089 18.641 0.13184C18.834 0.146199 19.025 0.155771 19.2181 0.174915C19.5223 0.203631 19.8266 0.237134 20.1309 0.268243C20.2253 0.277815 20.3198 0.294566 20.4163 0.308924C20.4163 2.68042 20.4163 5.04473 20.4163 7.41861C20.3743 7.41861 20.3386 7.41861 20.303 7.41861C19.1656 7.41861 18.0282 7.42101 16.8887 7.41861C16.511 7.41861 16.1354 7.43297 15.7597 7.4928C15.4324 7.54544 15.1134 7.6292 14.8091 7.77039C14.1754 8.06473 13.7368 8.57445 13.5017 9.3115C13.3821 9.68721 13.315 10.0773 13.2898 10.4745C13.2667 10.855 13.2583 11.2379 13.2562 11.6184C13.252 12.5995 13.2541 13.5783 13.2541 14.5594C13.2541 15.1313 13.2541 15.7057 13.2541 16.2776C13.2541 16.3207 13.2604 16.3638 13.2646 16.414C13.5311 16.414 13.785 16.414 14.0411 16.414C14.2971 16.414 14.551 16.414 14.807 16.414C15.063 16.414 15.3169 16.414 15.573 16.414C15.829 16.414 16.0829 16.414 16.3389 16.414C16.597 16.414 16.8551 16.414 17.1133 16.414C17.3693 16.414 17.6232 16.414 17.8792 16.414C18.1352 16.414 18.3891 16.414 18.6452 16.414C18.9012 16.414 19.1551 16.414 19.4111 16.414C19.665 16.4164 19.919 16.4092 20.1792 16.4188C19.9064 18.8358 19.6336 21.2384 19.3628 23.641C19.3377 23.8563 19.3146 24.0717 19.2915 24.2847C19.2894 24.2966 19.2873 24.311 19.2831 24.323C19.281 24.3302 19.2789 24.3349 19.2768 24.3397C19.2747 24.3421 19.2747 24.3469 19.2726 24.3469C19.2705 24.3493 19.2684 24.3517 19.2516 24.3637C17.2664 24.3637 15.2687 24.3637 13.2583 24.3637C13.2562 24.4283 13.2541 24.4809 13.2541 24.5359C13.2541 31.234 13.2541 37.9321 13.2541 44.6278C13.2541 44.6661 13.2562 44.7044 13.2541 44.7451C13.252 44.769 13.2478 44.7929 13.2457 44.8169C13.1324 44.836 6.13181 44.8312 6.05837 44.8097C6.05837 44.7618 6.05837 44.7116 6.05837 44.6613C6.05837 37.9465 6.05837 31.234 6.05837 24.5192C6.05837 24.3445 6.06466 24.3637 5.91987 24.3637C3.98295 24.3637 2.04394 24.3637 0.107023 24.3637C0.0734475 24.3708 0.037773 24.3732 0 24.3756Z" fill="white"/>
</svg>
