<svg width="67" height="49" viewBox="0 0 67 49" fill="none" xmlns="http://www.w3.org/2000/svg">
<path d="M0 0V49H67V0H0ZM41.6204 26.7696C43.0512 27.9416 44.8452 28.5828 46.6968 28.5837C51.1824 28.5837 54.8161 24.9265 54.8161 20.4163C54.8161 15.9061 51.1824 12.25 46.6968 12.25C44.8454 12.251 43.0515 12.8917 41.6204 14.063V8.1663H58.8774V32.6663H41.6204V26.7696ZM25.3774 32.6663H8.1204V8.1663H25.3774V32.6663ZM25.3774 5.1038H5.07525V35.7288H25.3785V38.7913H2.0301V2.0413H25.3774V5.1038ZM39.5903 38.7946H27.4086V3.0625H39.5903V38.7946ZM64.9688 38.7913H41.6204V35.7288H61.9236V5.1038H41.6204V2.0413H64.9688V38.7913Z" fill="#FF3E79"/>
<path d="M0 0V49H67V0H0ZM41.6204 26.7696C43.0512 27.9416 44.8452 28.5828 46.6968 28.5837C51.1824 28.5837 54.8161 24.9265 54.8161 20.4163C54.8161 15.9061 51.1824 12.25 46.6968 12.25C44.8454 12.251 43.0515 12.8917 41.6204 14.063V8.1663H58.8774V32.6663H41.6204V26.7696ZM25.3774 32.6663H8.1204V8.1663H25.3774V32.6663ZM25.3774 5.1038H5.07525V35.7288H25.3785V38.7913H2.0301V2.0413H25.3774V5.1038ZM39.5903 38.7946H27.4086V3.0625H39.5903V38.7946ZM64.9688 38.7913H41.6204V35.7288H61.9236V5.1038H41.6204V2.0413H64.9688V38.7913Z" stroke="black"/>
<path d="M20.3368 28C20.8956 28 21.4566 27.9454 22 27.8363L21.549 25.8813C20.305 26.1317 19.0131 25.9884 17.8557 25.4714C16.6983 24.9544 15.7339 24.09 15.0985 23.0001H21.7712V21.0004H14.3692C14.3142 20.6731 14.279 20.3415 14.279 20C14.279 19.6585 14.3142 19.3269 14.3692 18.9996H21.7712V16.9999H15.0985C15.7338 15.9099 16.6982 15.0454 17.8556 14.5284C19.0131 14.0114 20.305 13.8681 21.549 14.1187L22 12.1637C21.4525 12.054 20.8953 11.9991 20.3368 12C18.7145 11.9956 17.1273 12.4681 15.7757 13.3581C14.4242 14.248 13.3689 15.5153 12.7434 16.9999H10V18.9996H12.211C12.1703 19.328 12.1417 19.6596 12.1417 20C12.1417 20.3404 12.1703 20.672 12.211 21.0004H10V23.0001H12.7434C13.3689 24.4847 14.4242 25.752 15.7757 26.6419C17.1273 27.5319 18.7145 28.0044 20.3368 28Z" fill="#FF3E79"/>
<path d="M20.3368 28C20.8956 28 21.4566 27.9454 22 27.8363L21.549 25.8813C20.305 26.1317 19.0131 25.9884 17.8557 25.4714C16.6983 24.9544 15.7339 24.09 15.0985 23.0001H21.7712V21.0004H14.3692C14.3142 20.6731 14.279 20.3415 14.279 20C14.279 19.6585 14.3142 19.3269 14.3692 18.9996H21.7712V16.9999H15.0985C15.7338 15.9099 16.6982 15.0454 17.8556 14.5284C19.0131 14.0114 20.305 13.8681 21.549 14.1187L22 12.1637C21.4525 12.054 20.8953 11.9991 20.3368 12C18.7145 11.9956 17.1273 12.4681 15.7757 13.3581C14.4242 14.248 13.3689 15.5153 12.7434 16.9999H10V18.9996H12.211C12.1703 19.328 12.1417 19.6596 12.1417 20C12.1417 20.3404 12.1703 20.672 12.211 21.0004H10V23.0001H12.7434C13.3689 24.4847 14.4242 25.752 15.7757 26.6419C17.1273 27.5319 18.7145 28.0044 20.3368 28Z" stroke="black"/>
</svg>
