<svg width="34" height="28" viewBox="0 0 34 28" fill="none" xmlns="http://www.w3.org/2000/svg">
<path d="M16.9244 10.1182C15.0839 10.1182 13.5918 11.5116 13.5918 13.2306C13.5918 14.9495 15.0838 16.3431 16.9244 16.3431C18.7649 16.3431 20.257 14.9496 20.257 13.2306C20.257 11.5116 18.765 10.1182 16.9244 10.1182ZM16.9244 14.8609C15.9603 14.8609 15.1787 14.131 15.1787 13.2305C15.1787 12.3301 15.9603 11.6002 16.9244 11.6002C17.8885 11.6002 18.6701 12.3301 18.6701 13.2305C18.6701 14.131 17.8885 14.8609 16.9244 14.8609Z" fill="#54514C" fill-opacity="0.75"/>
<path d="M30.2145 3.00164L8.55277 0.704436C7.71206 0.592807 6.86027 0.822024 6.21207 1.33436C5.56394 1.80371 5.14848 2.49945 5.06153 3.26107L4.66484 6.2994H3.43487C1.68922 6.2994 0.379978 7.74442 0.379978 9.37475V24.5293C0.336011 26.0839 1.64981 27.3776 3.31451 27.4186C3.35461 27.4196 3.39478 27.4199 3.43487 27.4194H25.2156C26.9613 27.4194 28.5482 26.1596 28.5482 24.5293V23.9364C29.0894 23.8388 29.6028 23.6369 30.0558 23.3436C30.6986 22.8381 31.1102 22.1223 31.2063 21.3428L33.0313 6.2994C33.2174 4.66531 31.9618 3.19533 30.2145 3.00164ZM26.9613 24.5293C26.9613 25.3444 26.0884 25.9372 25.2156 25.9372H3.43487C2.64641 25.9589 1.98849 25.3795 1.96533 24.6431C1.96411 24.6051 1.96464 24.5672 1.96692 24.5293V21.7874L8.11635 17.5634C8.85507 17.0337 9.89557 17.0808 10.5761 17.6745L14.9005 21.2316C15.5573 21.7465 16.3839 22.0344 17.2413 22.0467C17.9117 22.0544 18.5711 21.8877 19.1457 21.565L26.9613 17.341V24.5293H26.9613ZM26.9613 15.5996L18.3124 20.3053C17.5698 20.7162 16.6297 20.6418 15.9716 20.12L11.6076 16.5259C10.3568 15.5221 8.52869 15.4606 7.20381 16.3776L1.96692 19.9347V9.37475C1.96692 8.55959 2.56205 7.78151 3.43487 7.78151H25.2156C26.1481 7.81761 26.9012 8.50498 26.9613 9.37475V15.5996V15.5996ZM31.4459 6.09933C31.4454 6.10423 31.4449 6.10919 31.4443 6.11409L29.5797 21.1574C29.5829 21.5475 29.3924 21.9169 29.0639 22.1579C28.9052 22.3061 28.5481 22.3802 28.5481 22.4543V9.37475C28.4855 7.68676 27.0235 6.33763 25.2155 6.2994H6.2517L6.60876 3.4093C6.68622 3.03505 6.89573 2.6959 7.20389 2.4459C7.55183 2.22123 7.97253 2.11648 8.39413 2.14945L30.0162 4.48375C30.8886 4.56113 31.5288 5.28445 31.4459 6.09933Z" fill="#54514C" fill-opacity="0.75"/>
</svg>
