<svg width="30" height="27" viewBox="0 0 30 27" fill="none" xmlns="http://www.w3.org/2000/svg">
<path d="M20.8809 19.1309H22.5587V23.1422H20.8809V19.1309Z" fill="#54514C" fill-opacity="0.75"/>
<path d="M21.7166 18.0904C22.1554 18.0904 22.5758 17.7301 22.5555 17.3069C22.5351 16.8824 22.1869 16.5234 21.7166 16.5234C21.2778 16.5234 20.8574 16.8838 20.8777 17.3069C20.898 17.7314 21.2463 18.0904 21.7166 18.0904Z" fill="#54514C" fill-opacity="0.75"/>
<path d="M23.2005 13.4125V0.0849609H4.06392C2.03093 0.0849609 0.376953 1.58423 0.376953 3.48292V23.4857H0.394682C0.58103 25.3575 2.27147 26.8278 4.32342 26.8278H21.7303C25.7451 26.8278 29.0114 23.8227 29.0114 20.0732C29.0114 16.7939 26.513 14.0493 23.2005 13.4125ZM21.5201 13.2762C17.8234 13.3746 14.8083 16.059 14.4796 19.4562H7.12429V1.60894H21.5201V13.2762ZM4.06392 1.60894H5.4438V19.4562H4.32342C3.48055 19.4562 2.6992 19.7051 2.05738 20.1272V3.48292C2.05738 2.44956 2.95752 1.60894 4.06392 1.60894ZM4.32342 25.2584C3.07391 25.2584 2.05738 24.309 2.05738 23.1421C2.05738 21.9751 3.07391 21.0257 4.32342 21.0257H14.521C14.591 21.4893 14.7109 21.9381 14.876 22.367H4.63533V23.9365H15.742C16.1066 24.4279 16.5386 24.8725 17.0256 25.2585H4.32342V25.2584ZM21.7304 25.3038C18.6422 25.3038 16.1298 22.9574 16.1298 20.0732C16.1298 17.1891 18.6422 14.8426 21.7304 14.8426C24.8186 14.8426 27.331 17.1891 27.331 20.0732C27.331 22.9574 24.8186 25.3038 21.7304 25.3038Z" fill="#54514C" fill-opacity="0.75"/>
<path d="M11.6094 4.65918H17.2334V6.2286H11.6094V4.65918Z" fill="#54514C" fill-opacity="0.75"/>
<path d="M9.70703 8.06738H19.1305V9.6368H9.70703V8.06738Z" fill="#54514C" fill-opacity="0.75"/>
</svg>
