<svg width="30" height="28" viewBox="0 0 30 28" fill="none" xmlns="http://www.w3.org/2000/svg">
<path d="M28.715 0.320968C28.537 0.252328 28.3313 0.289768 28.1948 0.417688L23.2826 5.00542V1.62424C23.2826 1.3782 23.0693 1.17852 22.8053 1.17852H3.23845C1.65926 1.17852 0.375 2.37794 0.375 3.85281V24.3557C0.375 25.8305 1.65926 27.0299 3.23845 27.0299H22.8053C23.0693 27.0299 23.2826 26.8303 23.2826 26.5842V14.2888L25.5151 12.2037C27.7687 10.099 29.0095 7.30085 29.0095 4.32482V0.732808C29.0095 0.552739 28.8935 0.390054 28.715 0.320968ZM22.3281 26.1385H3.23845C2.18565 26.1385 1.32948 25.3389 1.32948 24.3557C1.32948 23.3724 2.18565 22.5728 3.23845 22.5728H22.3281V26.1385ZM22.3281 21.6814H3.23845C2.50445 21.6814 1.83679 21.9426 1.32948 22.3678V3.85281C1.32948 2.86956 2.18565 2.06995 3.23845 2.06995H22.3281V5.89685L15.7866 12.0063C15.6968 12.0896 15.6467 12.2033 15.6467 12.3214V16.1483L12.9231 18.692L13.5979 19.3222L16.3215 16.7785H20.4191C20.5461 16.7785 20.6673 16.7317 20.7565 16.6479L22.3281 15.1802V21.6814ZM28.055 4.32482C28.055 7.06329 26.913 9.63729 24.8403 11.5735L20.2216 15.8871H17.276L25.0517 8.62507L24.3769 7.99483L16.6012 15.2569V12.5059L28.055 1.80876V4.32482Z" fill="#54514C" fill-opacity="0.75"/>
<path d="M11.831 12.3225C14.4625 12.3225 16.6034 10.323 16.6034 7.86535C16.6034 5.40768 14.4625 3.4082 11.831 3.4082C9.1995 3.4082 7.05859 5.40768 7.05859 7.86535C7.05859 10.323 9.1995 12.3225 11.831 12.3225ZM9.48346 10.6716C9.64858 9.58447 10.6336 8.75677 11.831 8.75677C13.0284 8.75677 14.0134 9.58447 14.1786 10.6716C13.53 11.1458 12.7163 11.4311 11.831 11.4311C10.9457 11.4311 10.132 11.1458 9.48346 10.6716ZM10.8765 6.97392C10.8765 6.48229 11.3046 6.08249 11.831 6.08249C12.3574 6.08249 12.7855 6.48229 12.7855 6.97392C12.7855 7.46554 12.3574 7.86535 11.831 7.86535C11.3046 7.86535 10.8765 7.46554 10.8765 6.97392ZM11.831 4.29963C13.9361 4.29963 15.6489 5.8993 15.6489 7.86535C15.6489 8.62261 15.3931 9.32417 14.9603 9.90226C14.6553 9.12939 14.0335 8.50628 13.2446 8.1613C13.5491 7.84529 13.74 7.43167 13.74 6.97392C13.74 5.99067 12.8838 5.19106 11.831 5.19106C10.7782 5.19106 9.92204 5.99067 9.92204 6.97392C9.92204 7.43167 10.1129 7.84529 10.4174 8.1613C9.62854 8.50628 9.00669 9.12939 8.70174 9.90226C8.26888 9.32417 8.01308 8.62261 8.01308 7.86535C8.01308 5.8993 9.7259 4.29963 11.831 4.29963Z" fill="#54514C" fill-opacity="0.75"/>
<path d="M7.5332 18.5596H12.3056V19.451H7.5332V18.5596Z" fill="#54514C" fill-opacity="0.75"/>
<path d="M7.5332 16.3311H13.7373V17.2225H7.5332V16.3311Z" fill="#54514C" fill-opacity="0.75"/>
<path d="M7.5332 14.1025H14.6918V14.994H7.5332V14.1025Z" fill="#54514C" fill-opacity="0.75"/>
</svg>
