<svg width="41" height="45" viewBox="0 0 41 45" fill="none" xmlns="http://www.w3.org/2000/svg">
<g clip-path="url(#clip0_1_6203)">
<path d="M11.2206 22.2841C11.2206 22.2852 11.2206 22.2863 11.2206 22.2874L10.045 22.2846L11.2206 22.2841Z" fill="#FAA43F" fill-opacity="0.9" stroke="white" stroke-width="5"/>
<mask id="path-2-inside-1_1_6203" fill="white">
<path d="M33.8563 10.3039C33.8549 10.8373 33.7099 11.3582 33.4398 11.8009C33.1696 12.2436 32.7863 12.5883 32.3383 12.7914C31.8903 12.9945 31.3977 13.0469 30.9227 12.942C30.4476 12.8372 30.0115 12.5797 29.6693 12.2022C29.3271 11.8246 29.0941 11.3439 28.9999 10.8208C28.9057 10.2976 28.9544 9.75544 29.1399 9.26273C29.3254 8.77003 29.6394 8.34887 30.0421 8.05244C30.4449 7.75601 30.9184 7.59759 31.4029 7.59719C31.726 7.5956 32.0461 7.66457 32.3448 7.80011C32.6434 7.93565 32.9147 8.13506 33.1429 8.3868C33.3711 8.63854 33.5516 8.93761 33.6741 9.26669C33.7966 9.59577 33.8585 9.94833 33.8563 10.3039Z"/>
</mask>
<path d="M33.8563 10.3039C33.8549 10.8373 33.7099 11.3582 33.4398 11.8009C33.1696 12.2436 32.7863 12.5883 32.3383 12.7914C31.8903 12.9945 31.3977 13.0469 30.9227 12.942C30.4476 12.8372 30.0115 12.5797 29.6693 12.2022C29.3271 11.8246 29.0941 11.3439 28.9999 10.8208C28.9057 10.2976 28.9544 9.75544 29.1399 9.26273C29.3254 8.77003 29.6394 8.34887 30.0421 8.05244C30.4449 7.75601 30.9184 7.59759 31.4029 7.59719C31.726 7.5956 32.0461 7.66457 32.3448 7.80011C32.6434 7.93565 32.9147 8.13506 33.1429 8.3868C33.3711 8.63854 33.5516 8.93761 33.6741 9.26669C33.7966 9.59577 33.8585 9.94833 33.8563 10.3039Z" fill="white"/>
<path d="M33.8563 10.3039L28.8564 10.2736L28.8564 10.282L28.8564 10.2905L33.8563 10.3039ZM31.4029 7.59719L31.407 12.5972L31.4173 12.5972L31.4276 12.5971L31.4029 7.59719ZM28.8564 10.2905C28.8573 9.93665 28.9516 9.55702 29.1718 9.19627L37.7078 14.4056C38.4683 13.1594 38.8525 11.7379 38.8563 10.3174L28.8564 10.2905ZM29.1718 9.19627C29.394 8.83215 29.7573 8.47165 30.2738 8.23751L34.4028 17.3453C35.8153 16.7049 36.9452 15.6551 37.7078 14.4056L29.1718 9.19627ZM30.2738 8.23751C30.7984 7.99967 31.4076 7.92869 32.0005 8.0596L29.8448 17.8245C31.3879 18.1651 32.9822 17.9893 34.4028 17.3453L30.2738 8.23751ZM32.0005 8.0596C32.5879 8.18926 33.0549 8.49228 33.3739 8.84424L25.9646 15.5601C26.9681 16.6671 28.3074 17.4851 29.8448 17.8245L32.0005 8.0596ZM33.3739 8.84424C33.6885 9.19127 33.8565 9.57798 33.9208 9.93457L24.0791 11.7069C24.3317 13.1098 24.9656 14.458 25.9646 15.5601L33.3739 8.84424ZM33.9208 9.93457C33.9849 10.2906 33.955 10.6639 33.8193 11.0244L24.4605 7.50107C23.9538 8.84702 23.8265 10.3046 24.0791 11.7069L33.9208 9.93457ZM33.8193 11.0244C33.6829 11.3866 33.4241 11.7715 33.0059 12.0794L27.0784 4.02552C25.8546 4.9262 24.9679 6.15343 24.4605 7.50107L33.8193 11.0244ZM33.0059 12.0794C32.5805 12.3924 32.0237 12.5967 31.407 12.5972L31.3988 2.5972C29.8132 2.5985 28.3093 3.11957 27.0784 4.02552L33.0059 12.0794ZM31.4276 12.5971C31.0183 12.5992 30.6261 12.5109 30.2786 12.3532L34.411 3.247C33.4661 2.8182 32.4336 2.59205 31.3783 2.59726L31.4276 12.5971ZM30.2786 12.3532C29.9327 12.1963 29.652 11.9805 29.4383 11.7447L36.8475 5.02888C36.1774 4.28958 35.3541 3.67501 34.411 3.247L30.2786 12.3532ZM29.4383 11.7447C29.2254 11.5099 29.0796 11.2567 28.9881 11.0105L38.3601 7.52285C38.0236 6.61856 37.5167 5.76718 36.8475 5.02888L29.4383 11.7447ZM28.9881 11.0105C28.8966 10.7647 28.855 10.5156 28.8564 10.2736L38.8562 10.3343C38.862 9.3811 38.6965 8.42683 38.3601 7.52285L28.9881 11.0105Z" fill="#1A3B59" mask="url(#path-2-inside-1_1_6203)"/>
<path d="M29.2963 2.09619H11.562C6.22822 2.09619 1.9043 6.85602 1.9043 12.7276V32.1399C1.9043 38.0114 6.22822 42.7712 11.562 42.7712H29.2963C34.6302 42.7712 38.9541 38.0114 38.9541 32.1399V12.7276C38.9541 6.85602 34.6302 2.09619 29.2963 2.09619Z" stroke="white" stroke-width="5" stroke-miterlimit="10"/>
</g>
<defs>
<clipPath id="clip0_1_6203">
<rect width="40.8578" height="44.8669" fill="white"/>
</clipPath>
</defs>
</svg>
