<svg width="31" height="31" viewBox="0 0 31 31" fill="none" xmlns="http://www.w3.org/2000/svg">
<path d="M10.8392 13.9284C14.3791 13.9284 17.2487 11.0587 17.2487 7.51887C17.2487 3.979 14.3791 1.10938 10.8392 1.10938C7.29932 1.10938 4.42969 3.979 4.42969 7.51887C4.42969 11.0587 7.29932 13.9284 10.8392 13.9284Z" stroke="#54514C" stroke-opacity="0.75" stroke-width="1.5" stroke-linecap="round" stroke-linejoin="round"/>
<path d="M1.22266 29.9531V26.7484C1.22266 25.0485 1.89794 23.4182 3.09995 22.2162C4.30197 21.0142 5.93225 20.3389 7.63215 20.3389H14.0416C15.7416 20.3389 17.3718 21.0142 18.5738 22.2162C19.7759 23.4182 20.4511 25.0485 20.4511 26.7484V29.9531" stroke="#54514C" stroke-opacity="0.75" stroke-width="1.5" stroke-linecap="round" stroke-linejoin="round"/>
<path d="M22.0527 1.31445C23.4314 1.66746 24.6534 2.46929 25.5261 3.59353C26.3988 4.71777 26.8724 6.10047 26.8724 7.52365C26.8724 8.94683 26.3988 10.3295 25.5261 11.4538C24.6534 12.578 23.4314 13.3798 22.0527 13.7329" stroke="#54514C" stroke-opacity="0.75" stroke-width="1.5" stroke-linecap="round" stroke-linejoin="round"/>
<path d="M30.0669 29.9501V26.7453C30.0588 25.3307 29.5828 23.9585 28.7133 22.8426C27.8438 21.7267 26.6295 20.9298 25.2598 20.5762" stroke="#54514C" stroke-opacity="0.75" stroke-width="1.5" stroke-linecap="round" stroke-linejoin="round"/>
</svg>
