<svg width="19" height="24" viewBox="0 0 19 24" fill="none" xmlns="http://www.w3.org/2000/svg">
<path d="M16.332 24H2.83203C1.59203 24 0.582031 22.991 0.582031 21.75V11.25C0.582031 10.009 1.59203 9 2.83203 9H16.332C17.572 9 18.582 10.009 18.582 11.25V21.75C18.582 22.991 17.572 24 16.332 24ZM2.83203 10.5C2.41903 10.5 2.08203 10.836 2.08203 11.25V21.75C2.08203 22.164 2.41903 22.5 2.83203 22.5H16.332C16.745 22.5 17.082 22.164 17.082 21.75V11.25C17.082 10.836 16.745 10.5 16.332 10.5H2.83203Z" fill="#54514C" fill-opacity="0.75"/>
<path d="M14.832 10.5C14.418 10.5 14.082 10.164 14.082 9.75V6C14.082 3.519 12.063 1.5 9.58203 1.5C7.10103 1.5 5.08203 3.519 5.08203 6V9.75C5.08203 10.164 4.74603 10.5 4.33203 10.5C3.91803 10.5 3.58203 10.164 3.58203 9.75V6C3.58203 2.691 6.27303 0 9.58203 0C12.891 0 15.582 2.691 15.582 6V9.75C15.582 10.164 15.246 10.5 14.832 10.5Z" fill="#54514C" fill-opacity="0.75"/>
<path d="M9.58203 17C8.47903 17 7.58203 16.103 7.58203 15C7.58203 13.897 8.47903 13 9.58203 13C10.685 13 11.582 13.897 11.582 15C11.582 16.103 10.685 17 9.58203 17ZM9.58203 14.5C9.30703 14.5 9.08203 14.724 9.08203 15C9.08203 15.276 9.30703 15.5 9.58203 15.5C9.85703 15.5 10.082 15.276 10.082 15C10.082 14.724 9.85703 14.5 9.58203 14.5Z" fill="#54514C" fill-opacity="0.75"/>
<path d="M9.58203 20C9.16803 20 8.83203 19.664 8.83203 19.25V16.5C8.83203 16.086 9.16803 15.75 9.58203 15.75C9.99603 15.75 10.332 16.086 10.332 16.5V19.25C10.332 19.664 9.99603 20 9.58203 20Z" fill="#54514C" fill-opacity="0.75"/>
</svg>
