<svg width="35" height="44" viewBox="0 0 35 44" fill="none" xmlns="http://www.w3.org/2000/svg">
<path d="M28.6666 19.7773H6.44443C3.98984 19.7773 2 21.7672 2 24.2218V37.5551C2 40.0097 3.98984 41.9995 6.44443 41.9995H28.6666C31.1212 41.9995 33.111 40.0097 33.111 37.5551V24.2218C33.111 21.7672 31.1212 19.7773 28.6666 19.7773Z" stroke="#FFB156" stroke-width="2.75" stroke-linecap="round" stroke-linejoin="round"/>
<path d="M17.5552 33.1114C18.7825 33.1114 19.7774 32.1165 19.7774 30.8892C19.7774 29.6619 18.7825 28.667 17.5552 28.667C16.3279 28.667 15.333 29.6619 15.333 30.8892C15.333 32.1165 16.3279 33.1114 17.5552 33.1114Z" stroke="#FFB156" stroke-width="2.75" stroke-linecap="round" stroke-linejoin="round"/>
<path d="M8.6665 19.7777V10.8889C8.6665 8.53139 9.60301 6.27047 11.27 4.60349C12.937 2.9365 15.1979 2 17.5554 2C19.9128 2 22.1738 2.9365 23.8407 4.60349C25.5077 6.27047 26.4442 8.53139 26.4442 10.8889V19.7777" stroke="#FFB156" stroke-width="2.75" stroke-linecap="round" stroke-linejoin="round"/>
</svg>
