<svg width="26" height="26" viewBox="0 0 26 26" fill="none" xmlns="http://www.w3.org/2000/svg">
<path d="M25.0007 15.6667L21.0007 11.6667H11.6673C11.3137 11.6667 10.9746 11.5262 10.7245 11.2761C10.4745 11.0261 10.334 10.687 10.334 10.3333V2.33333C10.334 1.97971 10.4745 1.64057 10.7245 1.39052C10.9746 1.14048 11.3137 1 11.6673 1H23.6673C24.0209 1 24.3601 1.14048 24.6101 1.39052C24.8602 1.64057 25.0007 1.97971 25.0007 2.33333V15.6667Z" stroke="#7F7C79" stroke-width="1.5" stroke-linecap="round" stroke-linejoin="round"/>
<path d="M15.6667 16.9997V19.6663C15.6667 20.02 15.5262 20.3591 15.2761 20.6092C15.0261 20.8592 14.687 20.9997 14.3333 20.9997H5L1 24.9997V11.6663C1 11.3127 1.14048 10.9736 1.39052 10.7235C1.64057 10.4735 1.97971 10.333 2.33333 10.333H5" stroke="#7F7C79" stroke-width="1.5" stroke-linecap="round" stroke-linejoin="round"/>
</svg>
