<svg width="28" height="27" viewBox="0 0 28 27" fill="none" xmlns="http://www.w3.org/2000/svg">
<path d="M26.8198 0.509716C26.8185 0.508479 26.8171 0.507397 26.8159 0.506161C26.5977 0.289925 26.297 0.166016 25.9901 0.166016H25.9886C25.7233 0.166016 25.4636 0.257209 25.2575 0.422541C22.4522 2.66321 19.6366 4.97601 16.8885 7.29654C16.2202 7.86076 15.5514 8.4294 14.8832 9.00119L7.25403 1.37208C6.50068 0.618838 5.27499 0.618941 4.52169 1.37208L0.898336 4.99549C0.74743 5.14645 0.74743 5.39107 0.898336 5.54198C1.04924 5.69283 1.29392 5.69283 1.44477 5.54198L3.97525 3.01155L4.52823 3.56453L1.99781 6.09496C1.8469 6.24592 1.8469 6.49054 1.99781 6.64145C2.07323 6.71688 2.17215 6.75459 2.27102 6.75459C2.36989 6.75459 2.46882 6.71688 2.54424 6.64145L5.07472 4.11102L5.6277 4.664L3.09722 7.19443C2.94632 7.34539 2.94632 7.59001 3.09722 7.74092C3.17265 7.81635 3.27157 7.85406 3.37044 7.85406C3.46931 7.85406 3.56823 7.81635 3.64366 7.74092L6.17414 5.21044L6.72712 5.76342L4.19669 8.29385C4.04579 8.44481 4.04579 8.68943 4.19669 8.84034C4.27212 8.91576 4.37104 8.95348 4.46991 8.95348C4.56878 8.95348 4.6677 8.91576 4.74313 8.84034L7.27356 6.30991L7.82654 6.86289L5.29611 9.39332C5.1452 9.54427 5.1452 9.7889 5.29611 9.93981C5.37154 10.0152 5.47046 10.0529 5.56933 10.0529C5.6682 10.0529 5.76712 10.0152 5.84255 9.93981L8.37298 7.40938L8.92596 7.96236L6.39553 10.4928C6.24462 10.6437 6.24462 10.8884 6.39553 11.0393C6.47096 11.1147 6.56988 11.1524 6.66875 11.1524C6.76762 11.1524 6.86654 11.1147 6.94197 11.0393L9.47239 8.50885L10.0254 9.06183L7.49495 11.5923C7.34404 11.7432 7.34404 11.9878 7.49495 12.1387C7.57037 12.2142 7.6693 12.2519 7.76817 12.2519C7.86704 12.2519 7.96596 12.2142 8.04139 12.1387L10.5718 9.60832L11.1248 10.1613L8.59442 12.6918C8.44351 12.8427 8.44351 13.0874 8.59442 13.2383C8.66984 13.3137 8.76877 13.3514 8.86764 13.3514C8.96651 13.3514 9.06543 13.3137 9.14085 13.2383L11.6713 10.7078L12.2438 11.2802C11.0573 12.3135 9.87694 13.3529 8.70988 14.3936C8.70936 14.3936 8.70936 14.3936 8.70936 14.3942C8.36267 14.7025 7.98451 15.0577 7.61144 15.3941C7.38289 15.5595 7.42642 15.8501 7.53982 15.9635C7.53982 15.9635 7.53982 15.964 7.54034 15.964C7.91232 16.4143 8.11789 16.9893 8.11789 17.5838C8.11789 18.2788 7.8505 18.929 7.3647 19.4144C7.35981 19.4193 6.20433 20.5748 6.19928 20.5798C4.51891 22.2993 1.55967 21.1259 1.55797 18.6906C1.559 17.2121 2.75311 15.9909 4.26176 15.9898C5.08348 15.9903 5.85064 16.3561 6.36637 16.9924C6.50625 17.1648 6.76308 17.1835 6.92589 17.0357C6.92795 17.0342 6.9295 17.0326 6.93156 17.0306L6.93517 17.0274C7.11616 16.8647 7.10338 16.5715 6.90116 16.4267C6.24066 15.658 5.27978 15.217 4.26434 15.217H4.25919C2.32723 15.217 0.782928 16.7902 0.785195 18.6906C0.783495 20.1226 1.65859 21.3874 2.95317 21.9133C3.72187 22.2246 4.56394 22.246 5.3246 22.0021C4.59959 24.2575 6.28697 26.545 8.63223 26.545H8.63635C10.5527 26.545 12.1146 24.9936 12.1125 23.0694C12.1135 22.1549 11.7611 21.2919 11.1217 20.6386C11.1221 20.6381 11.9107 19.7416 11.9107 19.7416C13.3028 18.1925 14.6798 16.6364 16.0402 15.0765L16.6223 15.6586L14.0919 18.1891C13.941 18.34 13.941 18.5847 14.0919 18.7356C14.1674 18.811 14.2663 18.8487 14.3652 18.8487C14.4641 18.8487 14.563 18.811 14.6385 18.7356L17.1689 16.2051L17.7219 16.7581L15.1914 19.2885C15.0405 19.4395 15.0405 19.6841 15.1914 19.835C15.2669 19.9105 15.3658 19.9482 15.4647 19.9482C15.5636 19.9482 15.6625 19.9105 15.738 19.835L18.2684 17.3046L18.8213 17.8575L16.2909 20.388C16.14 20.5389 16.14 20.7835 16.2909 20.9345C16.3664 21.0099 16.4653 21.0476 16.5642 21.0476C16.663 21.0476 16.762 21.0099 16.8375 20.9345L19.3679 18.404L19.9208 18.957L17.3904 21.4874C17.2395 21.6384 17.2395 21.883 17.3904 22.0339C17.4659 22.1093 17.5648 22.1471 17.6637 22.1471C17.7625 22.1471 17.8614 22.1093 17.9369 22.0339L20.4673 19.5034L21.0203 20.0564L18.4899 22.5868C18.339 22.7378 18.339 22.9824 18.4899 23.1333C18.5654 23.2088 18.6643 23.2465 18.7632 23.2465C18.862 23.2465 18.961 23.2088 19.0364 23.1333L21.5669 20.6029L22.1198 21.1558L19.5894 23.6863C19.4385 23.8372 19.4385 24.0818 19.5894 24.2328C19.6648 24.3082 19.7638 24.3459 19.8626 24.3459C19.9615 24.3459 20.0604 24.3082 20.1359 24.2328L22.6663 21.7023L23.2193 22.2553L20.6888 24.7857C20.5379 24.9366 20.5379 25.1813 20.6888 25.3322C20.7643 25.4076 20.8632 25.4453 20.9621 25.4453C21.061 25.4453 21.1599 25.4076 21.2354 25.3322L23.7658 22.8017L24.3187 23.3547L21.7883 25.8851C21.6374 26.0361 21.6374 26.2807 21.7883 26.4316C21.8638 26.507 21.9627 26.5447 22.0616 26.5447C22.1604 26.5447 22.2594 26.507 22.3348 26.4316L25.1381 23.6283C25.1382 23.6281 25.1384 23.628 25.1385 23.6279C25.1387 23.6278 25.1388 23.6276 25.1389 23.6275L25.9582 22.8082C26.3231 22.4433 26.5241 21.9581 26.5241 21.442C26.5241 20.9259 26.3231 20.4407 25.9583 20.0758L18.3206 12.4387C21.2833 8.98254 24.1554 5.51591 26.9073 2.0718C27.2808 1.60445 27.243 0.932914 26.8198 0.509716ZM4.52174 2.46506L5.06818 1.91862C5.52013 1.46668 6.2556 1.46668 6.70759 1.91862L14.2951 9.50615C13.8056 9.92667 13.3165 10.3483 12.8284 10.7718L4.52174 2.46506ZM25.4116 20.6226C25.6306 20.8416 25.7512 21.1327 25.7512 21.4423C25.7512 21.7519 25.6306 22.043 25.4116 22.262L24.8652 22.8084C24.6098 22.5532 17.097 15.0403 16.5488 14.4921C16.9728 14.004 17.3954 13.5157 17.8159 13.027L25.4116 20.6226ZM11.5509 18.985C11.3636 18.8416 10.8642 18.5934 10.7812 17.8883C10.758 17.6936 10.5937 17.5473 10.3984 17.5473C10.1649 17.5473 9.98704 17.75 10.0135 17.9791C10.014 17.9791 10.014 17.9791 10.014 17.9791C10.0877 18.6091 10.4298 19.1661 10.9522 19.5066C10.9796 19.5247 11.0069 19.5432 11.0352 19.5638C10.7672 19.8696 10.5459 20.1271 10.2923 20.4072C10.2217 20.4855 10.1856 20.5911 10.1939 20.6962C10.2016 20.8013 10.2536 20.9002 10.3355 20.9667C10.984 21.4961 11.3391 22.258 11.3397 23.0693C11.3386 24.5585 10.1389 25.7711 8.63486 25.7722C7.14826 25.7702 5.93003 24.5721 5.93003 23.0693C5.93178 21.8464 6.70528 21.1914 6.76468 21.1074L7.91104 19.9611C8.54259 19.3295 8.89092 18.4751 8.89092 17.5838C8.89144 16.9326 8.70493 16.3035 8.35257 15.7657C8.65511 15.489 8.91823 15.2435 9.2238 14.9711L9.22535 14.9691C17.6035 7.49887 25.6412 1.07738 25.7923 0.990875C25.6886 1.09449 10.6122 16.1644 10.5427 16.2428C10.401 16.4025 10.4159 16.6472 10.5751 16.7884C10.7351 16.9309 10.9802 16.9142 11.1207 16.756C11.1669 16.7033 26.2283 1.64741 26.3387 1.537C26.3072 1.5926 20.0841 9.47488 11.5509 18.985Z" fill="#8C8C8C"/>
</svg>
