<svg width="31" height="31" viewBox="0 0 31 31" fill="none" xmlns="http://www.w3.org/2000/svg">
<path d="M12.96 3.11033C13.6427 0.296558 17.6454 0.296558 18.328 3.11033C18.4304 3.53303 18.6312 3.92558 18.914 4.25602C19.1968 4.58647 19.5536 4.84546 19.9555 5.01194C20.3573 5.17841 20.7927 5.24765 21.2263 5.21403C21.66 5.18041 22.0795 5.04488 22.4509 4.81846C24.9234 3.31223 27.7548 6.14202 26.2485 8.61608C26.0224 8.98728 25.8871 9.40659 25.8536 9.83993C25.82 10.2733 25.8892 10.7084 26.0555 11.11C26.2218 11.5116 26.4805 11.8682 26.8105 12.151C27.1406 12.4338 27.5327 12.6347 27.9551 12.7374C30.7688 13.42 30.7688 17.4227 27.9551 18.1053C27.5324 18.2078 27.1398 18.4085 26.8094 18.6913C26.4789 18.9741 26.2199 19.331 26.0534 19.7328C25.887 20.1346 25.8177 20.5701 25.8514 21.0037C25.885 21.4373 26.0205 21.8569 26.2469 22.2282C27.7532 24.7007 24.9234 27.5321 22.4493 26.0259C22.0781 25.7998 21.6588 25.6645 21.2255 25.6309C20.7921 25.5974 20.357 25.6666 19.9554 25.8328C19.5538 25.9991 19.1972 26.2578 18.9144 26.5879C18.6316 26.9179 18.4307 27.3101 18.328 27.7324C17.6454 30.5462 13.6427 30.5462 12.96 27.7324C12.8576 27.3097 12.6568 26.9171 12.374 26.5867C12.0912 26.2563 11.7344 25.9973 11.3326 25.8308C10.9308 25.6643 10.4953 25.5951 10.0617 25.6287C9.62806 25.6623 9.20849 25.7979 8.83714 26.0243C6.36467 27.5305 3.53328 24.7007 5.03951 22.2266C5.26561 21.8554 5.40093 21.4361 5.43447 21.0028C5.46801 20.5695 5.39883 20.1343 5.23255 19.7327C5.06627 19.3312 4.80758 18.9745 4.47751 18.6917C4.14745 18.4089 3.75531 18.208 3.33298 18.1053C0.519214 17.4227 0.519214 13.42 3.33298 12.7374C3.75569 12.635 4.14824 12.4342 4.47868 12.1514C4.80912 11.8686 5.06812 11.5118 5.23459 11.1099C5.40107 10.7081 5.47031 10.2727 5.43669 9.83904C5.40307 9.4054 5.26753 8.98583 5.04111 8.61448C3.53488 6.14202 6.36467 3.31062 8.83874 4.81685C10.4411 5.7911 12.5178 4.92902 12.96 3.11033Z" stroke="#54514C" stroke-opacity="0.75" stroke-width="1.5" stroke-linecap="round" stroke-linejoin="round"/>
<path d="M15.645 20.2285C18.2999 20.2285 20.4521 18.0763 20.4521 15.4214C20.4521 12.7665 18.2999 10.6143 15.645 10.6143C12.9901 10.6143 10.8379 12.7665 10.8379 15.4214C10.8379 18.0763 12.9901 20.2285 15.645 20.2285Z" stroke="#54514C" stroke-opacity="0.75" stroke-width="1.5" stroke-linecap="round" stroke-linejoin="round"/>
</svg>
