<svg width="28" height="30" viewBox="0 0 28 30" fill="none" xmlns="http://www.w3.org/2000/svg">
<path d="M23.7486 4.40723H4.56886C2.80494 4.40723 1.375 5.7427 1.375 7.3901V25.3028C1.375 26.9502 2.80494 28.2856 4.56886 28.2856H23.7486C25.5125 28.2856 26.9424 26.9502 26.9424 25.3028V7.3901C26.9424 5.7427 25.5125 4.40723 23.7486 4.40723Z" stroke="#54514C" stroke-opacity="0.75" stroke-width="2" stroke-linecap="round" stroke-linejoin="round"/>
<path d="M20.9316 1.54297V7.51901" stroke="#54514C" stroke-opacity="0.75" stroke-width="2" stroke-linecap="round" stroke-linejoin="round"/>
<path d="M8.14648 1.54297V7.51901" stroke="#54514C" stroke-opacity="0.75" stroke-width="2" stroke-linecap="round" stroke-linejoin="round"/>
<path d="M1.375 13.4912H26.9535" stroke="#54514C" stroke-opacity="0.75" stroke-width="2" stroke-linecap="round" stroke-linejoin="round"/>
<path d="M8.06513 17.3691H6.16205C6.04019 17.3691 5.94141 17.4614 5.94141 17.5752V19.3526C5.94141 19.4664 6.04019 19.5586 6.16205 19.5586H8.06513C8.18699 19.5586 8.28578 19.4664 8.28578 19.3526V17.5752C8.28578 17.4614 8.18699 17.3691 8.06513 17.3691Z" fill="#54514C" fill-opacity="0.75"/>
<path d="M6.94141 18.5586V18.3691H7.28578V18.5586H6.94141Z" stroke="#54514C" stroke-opacity="0.75" stroke-width="2"/>
<path d="M14.9772 17.3691H13.0742C12.9523 17.3691 12.8535 17.4614 12.8535 17.5752V19.3526C12.8535 19.4664 12.9523 19.5586 13.0742 19.5586H14.9772C15.0991 19.5586 15.1979 19.4664 15.1979 19.3526V17.5752C15.1979 17.4614 15.0991 17.3691 14.9772 17.3691Z" fill="#54514C" fill-opacity="0.75"/>
<path d="M13.8535 18.5586V18.3691H14.1979V18.5586H13.8535Z" stroke="#54514C" stroke-opacity="0.75" stroke-width="2"/>
<path d="M21.8893 17.3691H19.9863C19.8644 17.3691 19.7656 17.4614 19.7656 17.5752V19.3526C19.7656 19.4664 19.8644 19.5586 19.9863 19.5586H21.8893C22.0112 19.5586 22.11 19.4664 22.11 19.3526V17.5752C22.11 17.4614 22.0112 17.3691 21.8893 17.3691Z" fill="#54514C" fill-opacity="0.75"/>
<path d="M20.7656 18.5586V18.3691H21.11V18.5586H20.7656Z" stroke="#54514C" stroke-opacity="0.75" stroke-width="2"/>
<path d="M8.06513 22.1182H6.16205C6.04019 22.1182 5.94141 22.2104 5.94141 22.3242V24.1016C5.94141 24.2154 6.04019 24.3077 6.16205 24.3077H8.06513C8.18699 24.3077 8.28578 24.2154 8.28578 24.1016V22.3242C8.28578 22.2104 8.18699 22.1182 8.06513 22.1182Z" fill="#54514C" fill-opacity="0.75"/>
<path d="M6.94141 23.3077V23.1182H7.28578V23.3077H6.94141Z" stroke="#54514C" stroke-opacity="0.75" stroke-width="2"/>
<path d="M14.9772 22.1182H13.0742C12.9523 22.1182 12.8535 22.2104 12.8535 22.3242V24.1016C12.8535 24.2154 12.9523 24.3077 13.0742 24.3077H14.9772C15.0991 24.3077 15.1979 24.2154 15.1979 24.1016V22.3242C15.1979 22.2104 15.0991 22.1182 14.9772 22.1182Z" fill="#54514C" fill-opacity="0.75"/>
<path d="M13.8535 23.3077V23.1182H14.1979V23.3077H13.8535Z" stroke="#54514C" stroke-opacity="0.75" stroke-width="2"/>
<path d="M21.8893 22.1182H19.9863C19.8644 22.1182 19.7656 22.2104 19.7656 22.3242V24.1016C19.7656 24.2154 19.8644 24.3077 19.9863 24.3077H21.8893C22.0112 24.3077 22.11 24.2154 22.11 24.1016V22.3242C22.11 22.2104 22.0112 22.1182 21.8893 22.1182Z" fill="#54514C" fill-opacity="0.75"/>
<path d="M20.7656 23.3077V23.1182H21.11V23.3077H20.7656Z" stroke="#54514C" stroke-opacity="0.75" stroke-width="2"/>
</svg>
