<svg width="31" height="29" viewBox="0 0 31 29" fill="none" xmlns="http://www.w3.org/2000/svg">
<path d="M28.2198 21.5454V26.5597C28.2198 27.003 28.0313 27.4281 27.6957 27.7416C27.36 28.055 26.9048 28.2311 26.4302 28.2311H4.95431C4.00502 28.2311 3.09461 27.8789 2.42336 27.252C1.7521 26.6251 1.375 25.7749 1.375 24.8883V4.83114M24.6405 8.174V3.15971C24.6405 2.71642 24.452 2.29129 24.1163 1.97783C23.7807 1.66438 23.3255 1.48828 22.8509 1.48828H4.95431C4.00502 1.48828 3.09461 1.84047 2.42336 2.46738C1.7521 3.09429 1.375 3.94456 1.375 4.83114C1.375 5.71772 1.7521 6.56799 2.42336 7.1949C3.09461 7.8218 4.00502 8.174 4.95431 8.174H26.4302C26.9048 8.174 27.36 8.35009 27.6957 8.66355C28.0313 8.977 28.2198 9.40213 28.2198 9.84542V14.8597L24.6405 8.174Z" stroke="#54514C" stroke-opacity="0.75" stroke-width="1.5" stroke-linecap="round" stroke-linejoin="round"/>
<path d="M30.0094 14.8594V21.5451H22.8508C21.9015 21.5451 20.9911 21.1929 20.3198 20.566C19.6486 19.9391 19.2715 19.0888 19.2715 18.2022C19.2715 17.3157 19.6486 16.4654 20.3198 15.8385C20.9911 15.2116 21.9015 14.8594 22.8508 14.8594H30.0094Z" stroke="#54514C" stroke-opacity="0.75" stroke-width="1.5" stroke-linecap="round" stroke-linejoin="round"/>
</svg>
