<svg width="212" height="236" viewBox="0 0 212 236" fill="none" xmlns="http://www.w3.org/2000/svg">
<g opacity="0.75">
<path opacity="0.88" d="M150.726 190.636L173.458 234.117L180.592 233.133L160.573 190.348L150.726 190.636Z" fill="#273137"/>
<path d="M97.148 177.236L120.651 188.596H122.932L126.365 176.446L132.547 170.755L177.286 168.072L193.85 135.908L198.732 131.22C199.717 130.451 200.932 130.033 202.183 130.033L208.035 130.816L207.369 130.033H160.128L154.54 145.025L140.956 153.077L121.122 156.709L98.1221 163.027L97.148 177.236Z" fill="#282828"/>
<path d="M97.1477 234.118H107.288L132.025 191.174L150.73 190.637L160.577 190.363L161.189 190.345C161.189 190.345 181.49 190.557 182.12 190.774C182.75 190.99 204.526 233.09 204.526 233.09H210.653L188.878 185.285L210.997 137.213C211.288 136.581 211.432 135.892 211.417 135.196C211.402 134.501 211.229 133.818 210.91 133.2L209.976 131.375C209.768 130.971 209.452 130.632 209.063 130.395C208.674 130.158 208.227 130.033 207.771 130.033H200.249L195.958 133.383C193.876 135.011 192.198 137.094 191.054 139.471L177.293 168.065L132.554 170.748L126.372 176.439L122.932 188.596L122.715 189.385L97.1477 234.118Z" fill="#363636"/>
<path d="M162.829 43.5075C161.93 41.394 160.463 39.5686 158.589 38.2324C156.715 36.8962 154.506 36.1009 152.208 35.9343C147.105 35.5737 142.622 38.4118 140.619 41.9315C139.192 44.4559 139.457 47.6186 139.985 53.9296C140.413 59.0469 140.967 59.5626 141.412 64.6655C141.952 70.9008 142.223 74.0166 141.253 76.6672C139.442 81.5934 136.44 80.8144 131.899 87.8755C128.491 93.1768 127.915 97.1329 127.778 98.4528C127.463 101.305 127.119 104.392 128.886 106.664C131.83 110.451 139.312 110.271 144.425 107.926C150.817 104.991 154.438 98.2328 156.973 93.5554C158.882 90.0105 160.149 86.5268 164.108 83.1369C166.237 81.3121 166.693 81.615 168.707 79.9778C174.834 74.9903 176.395 67.4748 176.634 66.2415C177.235 63.1365 178.488 56.6524 174.414 50.7705C170.528 45.1736 164.383 43.8068 162.829 43.5075Z" fill="#282828"/>
<path d="M151.502 70.1436V85.4595C151.502 87.1658 152.182 88.8022 153.394 90.0087C154.606 91.2153 156.249 91.8931 157.962 91.8931C159.676 91.8931 161.319 91.2153 162.531 90.0087C163.742 88.8022 164.423 87.1658 164.423 85.4595V70.1436C164.423 68.4373 163.742 66.8009 162.531 65.5943C161.319 64.3878 159.676 63.71 157.962 63.71C156.249 63.71 154.606 64.3878 153.394 65.5943C152.182 66.8009 151.502 68.4373 151.502 70.1436Z" fill="#FFC1A6"/>
<path d="M161.642 75.9531C161.642 75.9531 156.648 81.1605 151.502 79.2673C151.502 76.5049 151.896 76.7429 151.896 76.7429C151.896 76.7429 160.37 77.374 161.642 75.9531Z" fill="#E89680"/>
<path d="M160.215 46.6662C160.041 51.1102 160.967 55.5287 162.909 59.5334C163.565 60.8591 164.334 62.126 165.209 63.32C165.01 61.3077 166.027 59.7137 167.269 59.4541C168.511 59.1944 169.685 60.4169 169.884 60.6369C171.097 61.9785 171.383 64.272 170.373 65.5306C169.71 66.3457 168.54 66.6883 167.914 66.8722C167.526 66.986 167.128 67.0656 166.726 67.1102C164.303 67.4095 162.304 74.8096 158.48 77.3737C155.138 79.6168 149.561 78.7224 146.591 76.0321C144.78 74.4057 144.259 71.4774 143.259 65.6893C142.231 59.7173 141.738 56.6736 142.865 54.1492C144.925 49.544 149.8 47.7841 151.194 47.2973C154.087 46.2718 157.206 46.0535 160.215 46.6662Z" fill="#FFC1A6"/>
<path d="M154.268 55.4229C155.746 55.4733 157.227 55.5527 158.708 55.5527" stroke="#1E1D1D" stroke-width="1.5" stroke-miterlimit="10"/>
<path d="M148.481 53.8213H143.882" stroke="#1E1D1D" stroke-width="1.5" stroke-miterlimit="10"/>
<path d="M156.065 60.7168C155.365 60.7168 154.797 60.1517 154.797 59.4546C154.797 58.7575 155.365 58.1924 156.065 58.1924C156.765 58.1924 157.332 58.7575 157.332 59.4546C157.332 60.1517 156.765 60.7168 156.065 60.7168Z" fill="#1E1D1D"/>
<path d="M145.707 60.7168C145.007 60.7168 144.44 60.1517 144.44 59.4546C144.44 58.7575 145.007 58.1924 145.707 58.1924C146.407 58.1924 146.975 58.7575 146.975 59.4546C146.975 60.1517 146.407 60.7168 145.707 60.7168Z" fill="#1E1D1D"/>
<path d="M151.227 58.2969C150.394 60.3164 147.967 63.3457 148.46 64.24C148.587 64.4672 150.089 64.7737 150.901 65.0406" stroke="#263238" stroke-miterlimit="10"/>
<path d="M152.407 67.3556C152.636 67.3905 152.87 67.3795 153.094 67.3232C153.319 67.2668 153.53 67.1662 153.715 67.0274C153.925 66.8579 154.077 66.6199 154.305 66.4721C154.754 66.1835 155.417 65.9888 155.717 66.4324C155.857 66.6596 155.918 66.9261 155.891 67.1912C155.864 67.4562 155.751 67.7053 155.569 67.9001C155.207 68.2896 154.627 68.2608 154.095 68.2608C153.743 68.298 153.388 68.2394 153.066 68.0913C152.85 68.2635 152.652 68.4581 152.476 68.6719C152.142 69.0051 151.724 69.2429 151.267 69.3607C150.785 69.5013 150.365 69.3607 150.263 68.8702C150.223 68.6315 150.223 68.3877 150.263 68.149C150.492 66.6884 151.31 67.2185 152.407 67.3556Z" fill="#FF2C68"/>
<path d="M91.5635 229.808H78.0882C78.0882 229.808 78.5627 231.073 78.0882 230.994C77.6138 230.915 71.2692 232.256 71.2692 232.797V234.106L91.549 233.904L91.5635 229.808Z" fill="#FF3E79"/>
<path d="M110.439 166.561H97.8653C97.8653 166.561 95.008 202.559 93.5196 208.664C92.0312 214.77 89.6157 230.547 89.6157 230.547H79.3455V169.734C79.3455 169.734 77.4442 157.707 83.5716 151.815C89.699 145.922 108.096 146.34 108.096 146.34C108.096 146.34 117.837 157.076 110.439 166.561Z" fill="#FFC1A6"/>
<path d="M109.877 229.808H96.3981C96.3981 229.808 96.8761 231.073 96.3981 230.994C95.9201 230.915 89.5826 232.256 89.5826 232.797V234.106L109.862 233.904L109.877 229.808Z" fill="#FF3E79"/>
<path d="M128.85 166.561H116.277C116.277 166.561 113.416 202.559 111.931 208.664C110.446 214.77 108.035 230.558 108.035 230.558H97.768V169.734C97.768 169.734 95.8631 157.707 101.994 151.815C108.125 145.922 126.515 146.34 126.515 146.34C126.515 146.34 136.249 157.076 128.85 166.561Z" fill="#FFC1A6"/>
<path d="M131.624 125.727C131.624 125.727 127.713 132.553 123.4 132.712C119.087 132.871 118.091 130.974 116.157 126.87C114.223 122.766 109.877 103.346 110.247 99.7145C108.023 99.0834 106.578 97.1901 105.934 96.8728C105.289 96.5554 103.42 92.6029 103.493 91.8997C103.565 91.1965 103.996 88.0302 104.431 86.2919C104.865 84.5537 105.155 82.9994 105.934 82.188C106.712 81.3766 107.447 79.6816 107.447 79.6816L108.313 81.5569L108.349 85.7799L109.638 83.1509L109.45 79.696C109.45 79.696 109.356 76.7281 109.885 76.6776C110.413 76.6271 111.083 76.3494 110.939 77.6188C110.794 78.8882 111.706 83.8721 111.706 83.8721L112.854 82.8732L112.807 80.5543L112.615 77.1356C112.615 77.1356 112.278 75.6606 113.046 75.5055C113.814 75.3505 113.959 76.5045 113.959 76.5045L114.343 82.0834L114.582 83.3997C114.582 83.3997 114.676 84.24 115.06 83.3997C115.444 82.5594 115.444 80.2406 115.444 80.2406C115.444 80.2406 115.205 78.0768 115.349 77.2943C115.494 76.5117 116.497 76.6632 116.497 76.6632L117.073 77.9795L117.555 84.0813L117.218 88.1888C117.47 87.4912 117.881 86.8607 118.417 86.346C119.326 85.4517 120.332 84.1823 120.524 84.1823C120.716 84.1823 121.006 83.8649 121.723 83.9695C122.44 84.0741 123.114 84.6547 122.683 85.1812C122.252 85.7077 122.299 85.2858 121.77 86.0215C121.241 86.7571 119.902 89.4438 119.902 89.4438C119.892 90.237 119.828 91.0286 119.71 91.8132C119.568 92.2856 119.326 95.8125 119.184 96.5013C119.043 97.1901 124.168 113.869 124.168 113.869L124.598 116.134L127.094 113.819L131.624 125.727Z" fill="#FFC1A6"/>
<path d="M184.561 131.811C183.836 119.286 183.167 106.491 182.425 93.9667C179.915 93.1734 177.111 92.7772 174.736 93.9087C170.535 95.9715 169.477 100.173 169.343 100.761C169.908 111.042 168.782 121.317 169.343 131.602C173.852 131.378 180.052 132.02 184.561 131.811Z" fill="#FF3E79"/>
<path d="M91.858 147.967C91.858 147.967 107.282 148.443 109.816 148.328C112.351 148.212 121.981 147.607 123.578 148.328C125.175 149.049 129.705 153.268 129.597 157.365C129.488 161.462 128.441 167.052 128.441 167.052C128.441 167.052 165.963 168.638 169.772 167.261C173.582 165.883 176.53 160.019 176.729 157.711C176.928 155.403 174.611 144.649 174.611 144.649C174.611 144.649 170.066 130.138 170.71 129.388C171.355 128.638 176.211 118.349 176.211 118.349L182.426 93.9667C182.426 93.4327 181.889 92.4936 181.176 91.4501C180.464 90.4066 179.466 89.588 178.301 89.091C174.187 87.1941 165.506 83.9196 165.506 83.9196L164.42 84.0278V85.4703C164.42 87.1766 163.739 88.813 162.528 90.0195C161.316 91.2261 159.673 91.9039 157.959 91.9039C156.246 91.9039 154.603 91.2261 153.391 90.0195C152.179 88.813 151.499 87.1766 151.499 85.4703V83.5806C149.793 83.1695 146.954 82.6502 145.705 83.2957L143.868 84.2442L133.826 97.3927L126.946 108.774L123.158 114.768L131.487 129.297C131.487 129.297 139.733 118.958 139.841 118.453C139.95 117.948 140.903 122.446 140.903 122.446C140.903 122.446 142.069 129.388 140.794 132.233C139.519 135.078 134.775 139.979 130.965 140.596C127.156 141.213 116.266 143.279 112.456 143.798C108.647 144.318 91.858 147.967 91.858 147.967Z" fill="#FF3E79"/>
<path d="M185.17 136.098C184.999 138.28 184.25 140.487 182.689 142.027C180.476 144.191 177.079 144.656 173.969 144.504C169.695 144.299 165.527 143.192 161.326 142.377C152.019 140.574 142.495 140.195 133.079 139.29C131.801 139.167 130.276 138.853 129.82 137.66C132.067 137.959 134.349 137.848 136.556 137.332C134.17 136.765 131.701 136.628 129.266 136.928C128.904 136.019 129.697 134.998 130.628 134.706C131.558 134.414 132.569 134.627 133.525 134.793C134.481 134.959 135.538 135.067 136.393 134.594L130.175 133.473C129.773 133.401 129.302 133.274 129.154 132.892C129.106 132.697 129.131 132.492 129.224 132.314C129.318 132.136 129.473 131.998 129.661 131.926C130.042 131.792 130.45 131.756 130.849 131.821L138.091 132.402C135.795 132.417 133.553 131.709 131.685 130.379C134.633 129.202 137.886 129.017 140.949 129.852C140.949 128.965 140.119 128.345 139.395 127.833C138.671 127.321 137.896 126.563 138.091 125.701C138.287 124.839 139.54 124.464 140.391 124.825C141.242 125.186 141.84 125.986 142.415 126.715C143.665 128.287 145.16 129.73 147.018 130.498C148.612 131.154 150.364 131.28 152.088 131.367C162.474 131.727 172.781 131.367 183.066 129.794C184.923 129.51 184.739 129.924 184.974 131.706C185.193 133.159 185.258 134.631 185.17 136.098Z" fill="#FFC1A6"/>
<path d="M47.1432 225.178V233.916H66.0107C66.0107 233.916 60.8321 231.492 60.1984 230.757C59.5647 230.021 59.8797 225.495 59.8797 225.495L47.1432 225.178Z" fill="#FF3E79"/>
<path d="M2.53472 222.166L-0.000261307 230.525L18.0488 236C18.0488 236 13.7828 232.195 13.3917 231.29C13.0006 230.385 14.6266 226.165 14.6266 226.165L2.53472 222.166Z" fill="#FF3E79"/>
<path d="M16.5967 229.808C16.5967 229.808 4.54829 227.597 0.850845 222.019C6.55817 214.02 27.8013 172.551 28.12 170.654C28.4387 168.757 4.65332 130.985 3.38583 127.815C2.11834 124.645 -0.735325 116.448 0.850845 112.449L1.69462 110.869L22.0397 109.661C22.0397 109.661 50.4206 162.551 50.4206 166.5C50.4206 170.449 50.7392 173.445 48.9937 176.918C47.2482 180.391 16.5967 229.808 16.5967 229.808Z" fill="#282828"/>
<path d="M63.7399 229.083H43.92L57.0802 165.458C57.0802 165.458 30.4448 145.879 22.8326 140.354C15.2205 134.83 9.83182 129.932 7.45618 122.514C6.0444 117.989 6.0444 113.144 7.45618 108.619L42.4932 110.512C42.4932 110.512 72.7753 150.142 73.7278 154.722C74.6802 159.302 75.1546 164.982 74.5209 169.562C73.8871 174.142 63.7399 229.083 63.7399 229.083Z" fill="#282828"/>
<path d="M57.0801 165.458L24.7555 141.375C22.0612 139.366 19.356 137.408 16.8645 135.169C14.373 132.929 12.077 130.517 10.3713 127.693C9.51736 126.288 8.80877 124.801 8.25643 123.253C7.69722 121.713 7.31807 120.113 7.12653 118.486C6.93584 116.86 6.91886 115.218 7.07585 113.589C7.15464 112.775 7.27551 111.966 7.43799 111.165C7.59047 110.375 7.79615 109.595 8.05363 108.832L7.43074 109.243L42.4569 111.407L42.5547 109.622L7.49955 107.995L7.0179 107.974L6.87668 108.406C6.35967 110.059 6.0376 111.765 5.917 113.491C5.77868 115.202 5.8236 116.922 6.05099 118.623C6.2772 120.324 6.70008 121.992 7.31123 123.596C7.90712 125.199 8.66806 126.736 9.58185 128.183C11.3926 131.068 13.8044 133.542 16.3539 135.756C18.9033 137.971 21.6737 139.918 24.3934 141.887L57.0801 165.458Z" fill="#363636"/>
<path d="M18.2737 129.222C20.834 131.025 24.2236 131.025 27.3598 130.924C28.3601 128.208 29.2064 125.439 29.8947 122.629C30.0429 122.196 30.0429 121.725 29.8947 121.291C29.5579 120.57 28.5802 120.48 27.7798 120.495L16.0357 120.729C15.047 120.751 14.062 120.765 13.0734 120.79C12.0847 120.815 11.9652 120.841 12.4831 121.645C13.2834 122.889 14.1779 124.076 14.9674 125.331C15.8872 126.784 16.865 128.223 18.2737 129.222Z" fill="#363636"/>
<path d="M41.8118 93.4547C44.4777 97.9828 48.6138 101.471 53.5379 103.343C56.1127 104.313 59.0823 104.786 61.5702 103.617C62.8992 102.986 63.9748 101.94 64.9671 100.866C68.8927 96.621 71.9491 91.6732 75.3677 87.0139C78.7863 82.3546 82.6974 77.8792 87.771 75.1131C89.0312 74.4207 90.3675 73.8329 91.4793 72.9277C92.5911 72.0226 93.4892 70.7099 93.4747 69.2782C91.9083 71.1747 89.7823 72.5322 87.398 73.1585C86.1377 73.4867 84.6059 73.5192 83.7331 72.5635C82.5779 71.2833 83.476 69.0906 84.9753 68.236C86.4745 67.3813 88.2961 67.3957 90.0163 67.2118C91.7364 67.0279 93.6377 66.4905 94.4814 64.9903C90.9397 63.2881 86.6085 64.0166 83.1682 65.9171C79.7279 67.8176 76.9937 70.7351 74.3248 73.6093L60.2013 88.8242C58.8759 90.2668 56.942 91.8102 55.1965 90.9556C54.4179 90.5949 53.9254 89.8051 53.451 89.0839C51.7671 86.5198 43.7746 75.1673 39.9215 77.7854C38.2267 78.9358 38.6431 82.3978 38.8061 84.0928C39.1225 87.3919 40.1476 90.5847 41.8118 93.4547Z" fill="#FFC1A6"/>
<path d="M67.22 83.84C66.9665 83.0755 65.9778 82.906 65.1703 82.8627C63.3053 82.7618 61.4149 82.668 59.5969 83.0935C55.7402 83.9951 52.8358 87.0605 50.1813 89.9996C50.3153 90.0393 50.3189 89.8842 50.4493 89.9238C50.7034 94.0258 51.5435 98.0707 52.9444 101.936C53.6361 103.837 54.5161 105.759 56.0697 107.057C58.9451 109.463 63.164 109.08 66.8796 108.536C75.4514 107.277 84.0015 105.867 92.5516 104.454C96.5062 103.801 100.54 103.123 104.082 101.244C106.461 99.9635 108.534 98.1862 110.159 96.0338C111.784 93.8815 112.923 91.4048 113.498 88.7734C113.86 86.9919 113.965 85.0662 113.186 83.4217C112.408 81.7773 110.554 80.5367 108.772 80.937C106.599 81.4238 105.6 83.822 104.593 85.7874C103.679 87.562 102.517 89.1987 101.142 90.6487C99.8922 91.965 97.991 93.9629 96.2056 94.5291C95.1808 94.8537 93.7866 94.7022 92.7001 94.7959C91.4037 94.9113 90.1145 95.0556 88.8216 95.1998C86.2396 95.492 83.6575 95.7985 81.061 95.9211C78.514 96.0396 75.9619 95.9793 73.4234 95.7408C72.0763 95.611 70.5951 95.3621 69.7405 94.2983C68.2919 92.5132 69.5304 89.5704 68.1797 87.7096C67.698 87.046 67.8175 85.874 67.5749 85.0914C67.8175 84.5433 67.4192 84.4243 67.22 83.84Z" fill="#FFC1A6"/>
<path d="M48.6927 81.1825C49.1417 87.6738 49.5365 93.0832 49.5365 93.0832L68.6104 88.8783L67.9802 56.9735C67.9802 56.9735 65.9486 52.7867 62.6966 51.748L50.4599 80.555C50.4599 80.555 49.6741 80.7894 48.6927 81.1825Z" fill="#FF3E79"/>
<path d="M0.387054 113.819L40.1681 114.541C40.1681 114.541 42.8987 86.1411 44.0865 84.136C44.8108 82.8991 47.0705 81.828 48.6857 81.1825C49.6743 80.7894 50.4457 80.555 50.4457 80.555L62.6824 51.748L62.791 51.4992C62.791 51.4992 31.9222 46.5586 31.5999 46.5586C31.2776 46.5586 24.4114 53.1978 24.4114 53.1978C24.4114 53.1978 16.0822 65.7224 12.048 75.5098C8.01373 85.2973 0.387054 113.819 0.387054 113.819Z" fill="#FF3E79"/>
<path d="M3.49442 96.3536L35.4062 102.189V115.038L67.5352 156.225L75.6182 151.021L44.8761 114.713L44.2822 103.801L44.141 101.096L43.5471 90.1291L52.8541 80.1433L52.1696 77.6045L38.3721 84.5827L35.4062 98.4488V99.5055L3.97968 93.7606L3.49442 96.3536Z" fill="#363636"/>
<path d="M10.8206 106.051C9.99285 105.004 9.38379 103.802 9.02929 102.517C8.67479 101.232 8.58201 99.8891 8.75641 98.5678C8.92661 97.2984 9.31774 95.845 10.2267 94.8894C11.0524 94.0311 11.9106 94.0671 12.8812 94.6189C13.7612 95.1166 14.7209 95.5349 14.8983 96.6492C15.1083 98.0016 14.0328 99.2205 12.979 99.8949C10.281 101.63 6.92762 100.897 4.02326 100.209C3.46194 100.079 3.02011 99.4477 2.46604 99.3143C5.00102 99.9165 7.78588 100.551 10.3281 99.5559C12.1098 98.8563 14.9381 96.0073 12.4249 94.3665L13.9568 95.2428C11.4218 94.1068 10.3824 98.3298 10.2557 100.007C10.0653 102.501 10.8227 104.976 12.3778 106.942C12.0374 106.509 11.1683 106.484 10.8206 106.047V106.051Z" fill="#4C4C4C"/>
<path d="M9.97393 98.7627C9.82908 93.6237 13.4215 89.0726 17.0393 85.7512C19.6684 83.335 23.7063 79.8116 27.516 80.8286C28.9826 81.2181 30.3189 81.9105 30.1342 83.7137C29.8807 86.1587 27.3494 88.1602 25.5532 89.5667C23.4564 91.2075 21.2835 92.7474 19.1976 94.4027C17.1117 96.058 14.9823 97.4681 12.2844 97.6917C12.1432 97.6917 11.0169 97.4428 10.9843 97.331C9.50315 92.9061 4.85328 90.4358 3.74151 85.7188C2.90859 82.2098 4.86053 76.7571 9.38727 77.5685C17.8106 79.0832 13.617 92.7871 12.0164 97.9369C12.0164 97.9621 10.7163 97.5762 10.7163 97.5762C11.8498 93.9267 12.7914 90.0968 13.034 86.2669C13.2006 83.5766 12.8493 78.5134 9.56471 77.6118L10.5461 77.8678C5.79121 77.5361 4.06018 82.8373 5.20455 86.6456C6.52273 91.0128 10.8829 93.4434 12.2952 97.6664L10.9952 97.3058C15.6306 96.9235 19.2556 92.8664 22.8226 90.2591C24.9194 88.73 32.3215 82.9094 27.1466 80.688L27.6246 80.8214L27.1792 80.7024L28.0048 80.9152C25.832 80.6303 23.8113 81.9971 22.073 83.1402C20.1806 84.3944 18.4373 85.8583 16.8763 87.5039C13.8959 90.6377 11.1581 94.5758 11.2849 99.0656C11.2849 98.9466 9.98841 98.8565 9.98479 98.705L9.97393 98.7627Z" fill="#4C4C4C"/>
<path d="M63.4709 44.2522C58.9483 43.0151 56.96 35.9293 59.0298 28.4257C61.0997 20.9221 66.4439 15.8421 70.9664 17.0793C75.489 18.3164 77.4773 25.4022 75.4075 32.9058C73.3377 40.4094 67.9935 45.4894 63.4709 44.2522Z" fill="#FFC1A6"/>
<path d="M67.5246 28.9056C67.9881 28.6676 76.216 24.3833 78.1498 20.456C78.5323 19.6803 78.7773 18.8446 78.8741 17.9858C78.9537 16.7452 78.5916 15.4181 77.6862 13.6582C76.1797 10.7371 68.0171 4.02584 65.0838 3.56063C62.1504 3.09542 56.2838 2.21909 52.876 4.11239C50.5764 2.61217 50.3411 -0.781341 46.7704 0.163505C44.5904 0.686048 42.7081 2.04939 41.5374 3.95371C41.1427 4.50547 41.4614 9.0025 41.5374 9.72376C41.7402 11.5269 44.0724 10.8056 44.7967 11.6964C46.85 14.2208 39.9114 22.9768 37.8472 25.6166C25.73 41.1056 19.1391 49.7427 20.3016 58.5636C20.45 59.6924 21.3083 65.2533 25.5852 67.94C29.4456 70.3598 34.0303 69.1372 39.0097 67.7308C45.4449 65.9277 54.3463 63.4033 59.2895 54.6797C59.2895 54.6797 62.8385 48.4372 62.3532 38.574C62.241 36.2876 62.1541 34.5133 60.9807 32.7859C60.3941 31.924 59.8436 31.5273 59.3946 30.3661C59.094 29.5872 58.4458 27.9211 59.2895 26.2586C60.3035 24.2571 62.6176 23.9614 62.7769 23.9433C63.6111 23.8389 64.4575 23.9859 65.2069 24.3653C66.7243 25.1442 67.6043 26.9257 67.5246 28.9056Z" fill="#363636"/>
<path d="M74.7461 19.9907C73.3229 19.4534 71.7259 19.4894 70.223 19.6553C68.7201 19.8212 67.2353 20.1349 65.7904 20.2215C64.3619 20.3077 62.9299 20.1217 61.5714 19.6733C60.1976 19.2282 58.8896 18.6024 57.6821 17.8125C56.4453 17.0211 55.2687 16.14 54.1621 15.1763C53.0213 14.235 51.924 13.2145 50.7761 12.2444C48.5091 10.2789 46.2095 8.34957 43.8158 6.51758C45.8256 8.75709 47.9297 10.9028 50.0627 13.0089C51.1201 14.0908 52.2029 15.1114 53.3219 16.1356C54.4532 17.1651 55.6641 18.1045 56.9433 18.9449C58.2596 19.7868 59.6884 20.44 61.1876 20.885C62.7075 21.3282 64.3034 21.451 65.8737 21.2457C67.4236 21.0581 68.8686 20.611 70.3171 20.29C71.7586 19.897 73.2645 19.7952 74.7461 19.9907Z" fill="#3F3F3F"/>
<path d="M50.6375 4.45898C49.6308 6.28016 48.7507 8.14822 47.9142 10.0307C47.4038 11.0181 47.103 12.0996 47.0306 13.2078C47.0327 13.8141 47.1648 14.4128 47.4181 14.9641C47.6678 15.4894 47.9936 15.9755 48.385 16.4066C49.1305 17.1937 49.9724 17.8843 50.891 18.4622C51.7737 19.0451 52.6998 19.5599 53.6614 20.0021C55.5629 20.9003 57.6046 21.4686 59.6982 21.6826C57.7782 20.9641 55.9214 20.0884 54.1466 19.0644C53.2731 18.5572 52.427 18.0047 51.6117 17.4091C50.8059 16.8505 50.0585 16.2126 49.3809 15.505C48.7536 14.8807 48.3687 14.0554 48.2945 13.1754C48.2402 12.3099 48.5697 11.3722 48.8811 10.3985C49.5439 8.45114 50.1414 6.4785 50.6375 4.45898Z" fill="#3F3F3F"/>
<path d="M69.8096 23.6042C67.2946 22.7062 64.7148 21.9998 62.0924 21.491C60.7814 21.2349 59.456 21.033 58.1088 20.8635C57.3707 20.763 56.619 20.8665 55.936 21.1628C55.5913 21.3161 55.2676 21.5124 54.9727 21.747C54.6828 21.99 54.4237 22.2673 54.2014 22.5728C53.7665 23.1934 53.4996 23.915 53.4264 24.6681L53.1873 26.6299C53.0183 27.9378 52.83 29.2421 52.6224 30.5427C52.2132 33.1501 51.7497 35.743 51.1956 38.3215C50.6415 40.9 50.1092 43.4713 48.8091 45.6278C48.1547 46.7015 47.3091 47.6474 46.3139 48.4191C45.3108 49.2197 44.2027 49.9337 43.109 50.7163C41.9906 51.488 40.9522 52.3686 40.0091 53.3453C39.0727 54.3239 38.2413 55.3972 37.5284 56.5476C36.1065 58.8285 35.1869 61.384 34.8305 64.0451C36.0548 58.9019 39.2355 54.4326 43.7029 51.5782C44.7893 50.8569 45.9554 50.1789 47.0455 49.3423C48.1747 48.5072 49.1406 47.4732 49.8955 46.2914C50.6099 45.1065 51.1651 43.8335 51.5469 42.5048C51.9488 41.1993 52.2349 39.8902 52.5138 38.592C53.0461 35.9846 53.5133 33.3592 53.879 30.723C54.0601 29.4067 54.2195 28.0832 54.3571 26.7561C54.4259 26.0926 54.4911 25.4326 54.549 24.7691C54.549 24.5888 54.5816 24.477 54.5997 24.3291C54.6257 24.1899 54.6608 24.0526 54.7047 23.918C54.7896 23.6467 54.9114 23.3882 55.0669 23.1498C55.2257 22.9129 55.413 22.6961 55.6246 22.5043C55.8431 22.3145 56.0868 22.1556 56.3488 22.0319C56.8777 21.7777 57.4661 21.6718 58.0509 21.7254C59.3691 21.8191 60.6836 21.9526 61.9946 22.1257C64.6245 22.4775 67.2333 22.9711 69.8096 23.6042Z" fill="#3F3F3F"/>
<path d="M53.7119 17.3945C49.388 18.0076 45.3827 20.77 43.0795 24.6071C42.4997 25.5702 42.0296 26.5947 41.678 27.6616C41.3563 28.7206 41.1011 29.7986 40.9139 30.8892C40.7111 31.9711 40.5518 33.0206 40.3236 34.0483C40.2077 34.5676 40.1027 35.087 39.9615 35.5954C39.8202 36.1039 39.6935 36.6232 39.5233 37.1281C38.904 39.1673 38.1441 41.1615 37.2491 43.0965C36.3799 45.0511 35.3768 46.9444 34.3519 48.8377C33.3271 50.731 32.2298 52.5882 31.1289 54.4491L29.492 57.2512C28.9769 58.1964 28.3416 59.0715 27.6017 59.8549C28.4489 59.1651 29.1906 58.356 29.8035 57.4531C30.4445 56.5768 31.0637 55.6896 31.6866 54.8025C32.9179 53.021 34.131 51.2179 35.2609 49.3606C36.4075 47.5053 37.4578 45.5926 38.4079 43.6302C39.3584 41.6478 40.162 39.5987 40.8125 37.4996C41.4274 35.4005 41.8826 33.2583 42.1741 31.0912C42.3237 30.0467 42.5366 29.0123 42.8115 27.9934C43.1129 26.9963 43.5094 26.0302 43.9957 25.1084C45.0223 23.2465 46.4097 21.606 48.0776 20.2818C49.7454 18.9577 51.6605 17.9763 53.7119 17.3945Z" fill="#3F3F3F"/>
<path d="M109.504 52.0326C105.958 50.2294 105.73 47.0379 104.01 47.1929C102.424 47.3336 100.302 50.2475 100.099 52.4545C100.066 52.8151 100.034 53.6843 99.4651 54.0341C98.9726 54.3334 98.5344 53.9692 97.879 54.1387C97.0098 54.3622 96.3507 55.3756 96.1878 56.2447C95.9198 57.6872 97.1257 58.0479 97.5603 60.4533C97.8283 61.9174 97.4915 62.4006 97.984 62.8731C98.8604 63.7133 100.32 62.5882 101.366 63.3996C102.004 63.8973 102.073 64.8421 102.214 66.7679C102.369 68.9316 102.018 69.1985 102.319 69.8224C103.362 71.9861 109.366 72.4946 111.09 70.1361C112.289 68.4989 110.673 66.4974 112.042 65.0873C113.129 63.9694 114.599 64.7519 116.692 63.7205C117.243 63.4501 119.441 62.3393 119.864 60.4569C120.462 57.7846 117.232 54.6147 114.262 53.2984C112.031 52.3067 111.546 53.0748 109.504 52.0326Z" fill="#F9B2C9"/>
<path d="M98.9615 66.8864C99.0702 67.5283 99.2838 67.9394 99.6858 67.8709C101.069 67.6185 105.183 67.8709 106.675 67.8709C108.167 67.8709 106.979 66.0101 106.675 63.1467C106.51 61.4939 105.711 59.9683 104.444 58.8877L99.11 62.494C99.0828 62.66 99.0647 62.8273 99.0557 62.9952C98.9434 63.8607 98.7624 65.7396 98.9615 66.8864Z" fill="#FF3E79"/>
<path d="M82.7746 71.6792C82.7746 71.6792 83.7958 72.7899 86.1678 73.2731C88.2356 71.3221 96.1592 68.0115 98.9622 66.8864C98.763 65.7396 98.9622 63.8607 99.0527 62.9844L84.4259 67.6726L82.7746 71.6792Z" fill="#282828"/>
<path d="M91.1424 92.5928L109.974 93.0688C110.13 93.0722 110.285 93.033 110.421 92.9555C110.557 92.878 110.669 92.7651 110.745 92.6289L116.152 82.8486C116.222 82.7205 116.259 82.5765 116.258 82.4304C116.257 82.2843 116.218 82.1408 116.145 82.0139C116.073 81.8869 115.968 81.7806 115.843 81.7051C115.717 81.6297 115.574 81.5875 115.427 81.5828L97.2987 81.251C97.154 81.25 97.0115 81.286 96.8847 81.3554C96.7579 81.4249 96.6511 81.5255 96.5744 81.6477L90.4507 91.2873C90.3703 91.4139 90.3249 91.5593 90.319 91.7089C90.3131 91.8585 90.3469 92.007 90.4171 92.1394C90.4873 92.2718 90.5912 92.3835 90.7186 92.4631C90.8459 92.5427 90.9921 92.5874 91.1424 92.5928Z" fill="#282828"/>
<path d="M93.4385 91.1539L108.236 91.2404L112.831 83.4004H98.5121L93.4385 91.1539Z" fill="#DBDBDB"/>
<path d="M81.7304 92.1348H107.044C107.38 92.1348 107.652 92.406 107.652 92.7406V94.5293C107.652 94.8639 107.38 95.1352 107.044 95.1352H81.7304C81.3944 95.1352 81.122 94.8639 81.122 94.5293V92.7406C81.122 92.406 81.3944 92.1348 81.7304 92.1348Z" fill="#282828"/>
</g>
</svg>
