<svg width="24" height="26" viewBox="0 0 24 26" fill="none" xmlns="http://www.w3.org/2000/svg">
<path d="M1 6.33301H22.3333" stroke="#FF3E79" stroke-width="1.5" stroke-linecap="round" stroke-linejoin="round"/>
<path d="M9 11.667V19.667" stroke="#FF3E79" stroke-width="1.5" stroke-linecap="round" stroke-linejoin="round"/>
<path d="M14.334 11.667V19.667" stroke="#FF3E79" stroke-width="1.5" stroke-linecap="round" stroke-linejoin="round"/>
<path d="M2.33398 6.33301L3.66732 22.333C3.66732 23.0403 3.94827 23.7185 4.44837 24.2186C4.94846 24.7187 5.62674 24.9997 6.33398 24.9997H17.0007C17.7079 24.9997 18.3862 24.7187 18.8863 24.2186C19.3864 23.7185 19.6673 23.0403 19.6673 22.333L21.0007 6.33301" stroke="#FF3E79" stroke-width="1.5" stroke-linecap="round" stroke-linejoin="round"/>
<path d="M7.66699 6.33333V2.33333C7.66699 1.97971 7.80747 1.64057 8.05752 1.39052C8.30757 1.14048 8.6467 1 9.00033 1H14.3337C14.6873 1 15.0264 1.14048 15.2765 1.39052C15.5265 1.64057 15.667 1.97971 15.667 2.33333V6.33333" stroke="#FF3E79" stroke-width="1.5" stroke-linecap="round" stroke-linejoin="round"/>
</svg>
