<svg width="31" height="29" viewBox="0 0 31 29" fill="none" xmlns="http://www.w3.org/2000/svg">
<path d="M6.74398 27.6263C9.70919 27.6263 12.113 25.3813 12.113 22.612C12.113 19.8426 9.70919 17.5977 6.74398 17.5977C3.77877 17.5977 1.375 19.8426 1.375 22.612C1.375 25.3813 3.77877 27.6263 6.74398 27.6263Z" stroke="#54514C" stroke-opacity="0.75" stroke-width="1.5" stroke-linecap="round" stroke-linejoin="round"/>
<path d="M24.6405 27.6263C27.6057 27.6263 30.0094 25.3813 30.0094 22.612C30.0094 19.8426 27.6057 17.5977 24.6405 17.5977C21.6753 17.5977 19.2715 19.8426 19.2715 22.612C19.2715 25.3813 21.6753 27.6263 24.6405 27.6263Z" stroke="#54514C" stroke-opacity="0.75" stroke-width="1.5" stroke-linecap="round" stroke-linejoin="round"/>
<path d="M10.5938 19.0188L26.4322 0.883789" stroke="#54514C" stroke-opacity="0.75" stroke-width="1.5" stroke-linecap="round" stroke-linejoin="round"/>
<path d="M4.95508 0.883789L20.7936 19.0188" stroke="#54514C" stroke-opacity="0.75" stroke-width="1.5" stroke-linecap="round" stroke-linejoin="round"/>
</svg>
