<svg width="30" height="29" viewBox="0 0 30 29" fill="none" xmlns="http://www.w3.org/2000/svg">
<path d="M6.26367 25.1039C6.26367 25.1039 11.3561 23.2539 11.416 22.0381C11.4759 20.8222 11.5359 20.7165 11.416 20.5579C11.2962 20.3993 9.91829 18.3907 9.79841 17.5978C9.79841 17.5978 8.48036 15.589 9.55883 13.4746C9.55883 13.4746 9.31916 10.4087 9.85835 9.51C10.3975 8.61144 11.9553 6.81415 15.5498 6.97273C19.1445 7.13132 20.4026 8.66431 20.5823 9.0872C20.7621 9.51001 21.0616 10.0915 21.0616 11.4659C21.0017 12.8403 20.8219 13.3689 21.1814 13.6332C21.5409 13.8447 22.14 16.9106 20.5224 17.7035C20.5224 17.7035 19.504 19.9236 18.7251 20.6108C18.7251 20.6108 18.2458 22.4081 19.3841 22.9896C20.5224 23.571 24.2968 25.3154 24.2968 25.3154" stroke="#54514C" stroke-opacity="0.75" stroke-width="1.5" stroke-miterlimit="10"/>
<path d="M15.215 28.03C22.8586 28.03 29.055 22.0433 29.055 14.6585C29.055 7.27368 22.8586 1.28711 15.215 1.28711C7.57141 1.28711 1.375 7.27368 1.375 14.6585C1.375 22.0433 7.57141 28.03 15.215 28.03Z" stroke="#54514C" stroke-opacity="0.75" stroke-width="1.5" stroke-miterlimit="10"/>
</svg>
