<svg width="26" height="26" viewBox="0 0 26 26" fill="none" xmlns="http://www.w3.org/2000/svg">
<path d="M13 25C19.6274 25 25 19.6274 25 13C25 6.37258 19.6274 1 13 1C6.37258 1 1 6.37258 1 13C1 19.6274 6.37258 25 13 25Z" stroke="#54514C" stroke-opacity="0.75" stroke-width="1.5" stroke-linecap="round" stroke-linejoin="round"/>
<path d="M9 8.74835C9 8.01944 9.33782 7.32039 9.93914 6.80497C10.5405 6.28956 11.356 6 12.2064 6H13.1225C13.9729 6 14.7885 6.28956 15.3898 6.80497C15.9911 7.32039 16.3289 8.01944 16.3289 8.74835C16.3627 9.34314 16.2022 9.93279 15.8718 10.4285C15.5413 10.9242 15.0587 11.2991 14.4967 11.4967C13.9347 11.7602 13.4521 12.2601 13.1216 12.921C12.7912 13.5819 12.6307 14.3681 12.6645 15.1612" stroke="#54514C" stroke-opacity="0.75" stroke-width="1.5" stroke-linecap="round" stroke-linejoin="round"/>
<path d="M12.6641 18.8252V18.8344" stroke="#54514C" stroke-opacity="0.75" stroke-width="1.5" stroke-linecap="round" stroke-linejoin="round"/>
</svg>
