<svg width="50" height="50" viewBox="0 0 50 50" fill="none" xmlns="http://www.w3.org/2000/svg">
<path d="M31.8133 25.0034H18.1819M31.8133 25.0034H33.6865C34.0932 25.0034 34.4832 25.1649 34.7707 25.4525C35.0583 25.74 35.2198 26.13 35.2198 26.5367V36.2478C35.2198 36.4492 35.1802 36.6486 35.1031 36.8346C35.0261 37.0206 34.9131 37.1897 34.7707 37.332C34.6284 37.4744 34.4593 37.5874 34.2733 37.6644C34.0873 37.7415 33.8879 37.7811 33.6865 37.7811H16.3087C16.1074 37.7811 15.908 37.7415 15.7219 37.6644C15.5359 37.5874 15.3669 37.4744 15.2245 37.332C15.0821 37.1897 14.9692 37.0206 14.8921 36.8346C14.8151 36.6486 14.7754 36.4492 14.7754 36.2478V26.5367C14.7754 26.13 14.9369 25.74 15.2245 25.4525C15.512 25.1649 15.9021 25.0034 16.3087 25.0034H18.1819H31.8133ZM31.8133 25.0034V18.6145C31.8133 16.4857 30.4486 12.2256 24.9976 12.2256C19.5466 12.2256 18.1819 16.4857 18.1819 18.6145V25.0034H31.8133Z" stroke="#FF3E79" stroke-width="3" stroke-linecap="round" stroke-linejoin="round"/>
<path d="M2 42.8889V7.11111C2 5.75556 2.53849 4.45553 3.49701 3.49701C4.45553 2.53849 5.75556 2 7.11111 2H42.8889C44.2444 2 45.5445 2.53849 46.503 3.49701C47.4615 4.45553 48 5.75556 48 7.11111V42.8889C48 44.2444 47.4615 45.5445 46.503 46.503C45.5445 47.4615 44.2444 48 42.8889 48H7.11111C5.75556 48 4.45553 47.4615 3.49701 46.503C2.53849 45.5445 2 44.2444 2 42.8889Z" stroke="#FF3E79" stroke-width="3"/>
</svg>
