<svg width="24" height="23" viewBox="0 0 24 23" fill="none" xmlns="http://www.w3.org/2000/svg">
<path d="M8.11421 10.5989C10.7499 10.5989 12.8866 8.60333 12.8866 6.14171C12.8866 3.6801 10.7499 1.68457 8.11421 1.68457C5.47848 1.68457 3.3418 3.6801 3.3418 6.14171C3.3418 8.60333 5.47848 10.5989 8.11421 10.5989Z" stroke="#54514C" stroke-opacity="0.75" stroke-width="1.5" stroke-linecap="round" stroke-linejoin="round"/>
<path d="M0.955078 21.7414V19.5128C0.955078 18.3307 1.45788 17.197 2.35289 16.3611C3.24789 15.5253 4.46177 15.0557 5.72749 15.0557H10.4999C11.7656 15.0557 12.9795 15.5253 13.8745 16.3611C14.7695 17.197 15.2723 18.3307 15.2723 19.5128V21.7414" stroke="#54514C" stroke-opacity="0.75" stroke-width="1.5" stroke-linecap="round" stroke-linejoin="round"/>
<path d="M16.4648 1.82812C17.4914 2.0736 18.4013 2.63119 19.0511 3.41298C19.7008 4.19478 20.0535 5.15631 20.0535 6.14598C20.0535 7.13566 19.7008 8.09718 19.0511 8.87898C18.4013 9.66077 17.4914 10.2184 16.4648 10.4638" stroke="#54514C" stroke-opacity="0.75" stroke-width="1.5" stroke-linecap="round" stroke-linejoin="round"/>
<path d="M22.4309 21.7403V19.5117C22.4248 18.5279 22.0705 17.5737 21.423 16.7977C20.7756 16.0217 19.8715 15.4676 18.8516 15.2217" stroke="#54514C" stroke-opacity="0.75" stroke-width="1.5" stroke-linecap="round" stroke-linejoin="round"/>
</svg>
