<svg width="160" height="111" viewBox="0 0 160 111" fill="none" xmlns="http://www.w3.org/2000/svg">
<path d="M140.37 101.706C140.355 101.642 138.897 95.1965 141.874 89.8431C144.852 84.4898 151.207 82.1289 151.271 82.1056L151.561 82L151.63 82.2935C151.645 82.3579 153.103 88.8035 150.126 94.1569C147.148 99.5102 140.793 101.871 140.729 101.894L140.439 102L140.37 101.706ZM151.163 82.7163C149.89 83.2472 144.866 85.5709 142.351 90.0922C139.836 94.614 140.595 99.9614 140.837 101.284C142.109 100.754 147.132 98.4339 149.649 93.9078C152.164 89.3862 151.405 84.0394 151.163 82.7163Z" fill="#FFB156"/>
<path d="M147.65 92.2393C142.127 95.4382 140 101.792 140 101.792C140 101.792 146.827 102.96 152.35 99.7607C157.873 96.5618 160 90.2078 160 90.2078C160 90.2078 153.173 89.0404 147.65 92.2393Z" fill="#FFB156"/>
<path d="M57 89C56.5886 89 56.173 88.9935 55.765 88.9807L55.7743 88.6845C56.3601 88.7027 56.9579 88.7078 57.5464 88.6997L57.5504 88.9962C57.3672 88.9987 57.1838 89 57 89ZM59.3348 88.9312L59.3174 88.6352C59.9041 88.6006 60.4983 88.5519 61.0834 88.4907L61.1144 88.7855C60.5248 88.8474 59.9261 88.8965 59.3348 88.9312ZM53.9822 88.885C53.3907 88.8397 52.7929 88.7803 52.2054 88.7082L52.2416 88.4139C52.8246 88.4853 53.4177 88.5444 54.0048 88.5893L53.9822 88.885ZM62.8854 88.5589L62.8409 88.2658C63.4238 88.1773 64.0111 88.0746 64.5862 87.9604L64.644 88.2512C64.0644 88.3663 63.4727 88.4698 62.8854 88.5589ZM50.4387 88.4504C49.8543 88.3514 49.2644 88.2376 48.6855 88.1119L48.7484 87.8219C49.3229 87.9468 49.9083 88.0597 50.4882 88.1579L50.4387 88.4504ZM66.387 87.8629L66.3157 87.575C66.8879 87.4336 67.4632 87.2772 68.0258 87.1103L68.1101 87.3947C67.5431 87.5629 66.9635 87.7204 66.387 87.8629ZM46.9498 87.6929C46.3766 87.5404 45.7997 87.3727 45.2352 87.1942L45.3246 86.9115C45.8848 87.0886 46.4572 87.255 47.026 87.4062L46.9498 87.6929ZM69.8098 86.8475L69.7124 86.5674C70.2677 86.3744 70.826 86.1657 71.3724 85.947L71.4825 86.2225C70.9321 86.4427 70.3693 86.653 69.8098 86.8475ZM43.541 86.6152C42.9843 86.4106 42.4241 86.1898 41.8761 85.9589L41.9912 85.6855C42.535 85.9146 43.0909 86.1337 43.6434 86.3369L43.541 86.6152ZM73.1209 85.5226L72.9981 85.2527C73.5313 85.0104 74.0673 84.7518 74.5911 84.484L74.726 84.7481C74.1982 85.0179 73.6582 85.2784 73.1209 85.5226ZM76.2941 83.9005L76.1472 83.6431C76.6586 83.3513 77.169 83.0445 77.6642 82.7313L77.8226 82.9818C77.3237 83.2975 76.8095 83.6067 76.2941 83.9005ZM79.3078 81.9939L79.1381 81.7509C79.6196 81.4145 80.1001 81.0622 80.5662 80.7039L80.7469 80.9391C80.2773 81.3001 79.7931 81.6551 79.3078 81.9939ZM34.1055 81.5763C33.6268 81.2286 33.1487 80.8644 32.6842 80.4935L32.8692 80.2618C33.3302 80.6298 33.8047 80.9912 34.2797 81.3362L34.1055 81.5763ZM82.1367 79.8197L81.9456 79.5929C82.3943 79.2142 82.8409 78.8196 83.2732 78.4199L83.4745 78.6377C83.039 79.0405 82.589 79.4381 82.1367 79.8197ZM31.3139 79.3473C30.8681 78.9569 30.4252 78.5508 29.9976 78.1403L30.2029 77.9263C30.6274 78.3338 31.0669 78.7368 31.5093 79.1243L31.3139 79.3473ZM84.7574 77.3957L84.5463 77.1874C84.96 76.7682 85.3692 76.3343 85.7624 75.898L85.9828 76.0964C85.5866 76.5362 85.1743 76.9732 84.7574 77.3957ZM28.7379 76.8749C28.3288 76.4448 27.9249 76.0002 27.5372 75.5536L27.7612 75.3593C28.1459 75.8026 28.5468 76.2437 28.9528 76.6704L28.7379 76.8749ZM87.1478 74.7425L86.9187 74.5543C87.2925 74.0994 87.6605 73.6301 88.0128 73.159L88.2503 73.3365C87.8954 73.8112 87.5245 74.2843 87.1478 74.7425ZM26.3982 74.1795C26.0309 73.7154 25.6692 73.2362 25.3231 72.7553L25.5638 72.5821C25.9072 73.0592 26.2662 73.5348 26.6307 73.9956L26.3982 74.1795ZM89.2875 71.8815L89.0421 71.7149C89.3729 71.2279 89.6968 70.7267 90.0049 70.2249L90.2577 70.3802C89.9471 70.8857 89.6207 71.3908 89.2875 71.8815ZM24.3145 71.284C23.9914 70.7886 23.6751 70.2788 23.3744 69.7685L23.6298 69.6179C23.9283 70.1243 24.2422 70.6303 24.5629 71.1218L24.3145 71.284ZM91.1581 68.8356L90.8986 68.6922C91.1833 68.177 91.4599 67.6478 91.721 67.1194L91.9869 67.2509C91.7239 67.7832 91.445 68.3164 91.1582 68.8356H91.1581ZM92.742 65.6294L92.4703 65.5104C92.7066 64.9707 92.9336 64.4179 93.1449 63.8676L93.4217 63.9739C93.2089 64.5286 92.9801 65.0855 92.742 65.6294H92.742ZM20.9846 64.9895C20.7572 64.4438 20.5395 63.8856 20.3375 63.3301L20.6163 63.2287C20.8167 63.78 21.0328 64.3339 21.2583 64.8754L20.9846 64.9895ZM94.0244 62.2883L93.7429 62.195C93.928 61.6374 94.1026 61.0674 94.2619 60.5007L94.5475 60.5809C94.3869 61.1519 94.2108 61.7264 94.0244 62.2883ZM19.7662 61.6384C19.5898 61.0732 19.424 60.4958 19.2734 59.922L19.5603 59.8467C19.7097 60.4161 19.8743 60.9892 20.0493 61.55L19.7662 61.6384ZM94.9911 58.8513L94.7022 58.7841C94.835 58.2125 94.9563 57.6288 95.063 57.0494L95.3547 57.103C95.2472 57.687 95.1249 58.2751 94.9911 58.8513ZM18.8604 58.1849C18.7367 57.6056 18.6248 57.0155 18.5278 56.4306L18.8203 56.3819C18.9167 56.9625 19.0278 57.5481 19.1505 58.1229L18.8604 58.1849ZM95.6374 55.3401L95.3434 55.2999C95.4232 54.719 95.4905 54.1267 95.5437 53.5394L95.8391 53.566C95.7855 54.158 95.7176 54.7548 95.6374 55.3401ZM18.2759 54.663C18.206 54.0759 18.1486 53.478 18.1052 52.8858L18.4011 52.8641C18.444 53.4519 18.5011 54.0452 18.5705 54.6279L18.2759 54.663ZM95.9599 51.7848L95.6636 51.7715C95.6899 51.1838 95.7034 50.5878 95.7034 50H96C96 50.5923 95.9865 51.1928 95.9599 51.7848ZM18.0154 51.1025C18.0052 50.7388 18.0001 50.3678 18 50C18 49.7718 18.002 49.544 18.0059 49.3166L18.3024 49.3218C18.2985 49.5475 18.2966 49.7735 18.2966 50C18.2966 50.3651 18.3018 50.7333 18.3118 51.0944L18.0154 51.1025ZM18.3728 47.5513L18.0768 47.5327C18.1138 46.9402 18.1649 46.3416 18.2286 45.7538L18.5234 45.7857C18.4602 46.3692 18.4096 46.9631 18.3728 47.5513H18.3728ZM95.5119 45.7419C95.4527 45.1572 95.3712 44.8722 95.2852 44.29L95.5786 44.2467C95.6652 44.8333 95.7395 45.281 95.7993 45.8701L95.5119 45.7419ZM18.7543 44.029L18.4612 43.9837C18.5521 43.3969 18.6577 42.8056 18.775 42.2258L19.0657 42.2846C18.9493 42.86 18.8445 43.4468 18.7543 44.029H18.7543ZM94.9859 42.5438C94.8728 41.9652 94.7452 41.3829 94.6064 40.8129L94.8946 40.7428C95.0344 41.3171 95.163 41.904 95.2769 42.4869L94.9859 42.5438ZM19.4568 40.5565L19.1692 40.4844C19.3132 39.91 19.4727 39.3308 19.6433 38.7628L19.9272 38.8481C19.758 39.4117 19.5998 39.9865 19.4568 40.5565ZM94.1477 39.1013C93.9823 38.5366 93.8016 37.9685 93.6106 37.4127L93.8909 37.3163C94.0835 37.8764 94.2657 38.4489 94.4324 39.0179L94.1477 39.1013ZM20.4778 37.1587L20.198 37.0603C20.3951 36.4997 20.6079 35.9364 20.8305 35.386L21.1055 35.4972C20.8845 36.0433 20.6733 36.6024 20.4778 37.1587ZM92.996 35.7507C92.7796 35.2049 92.5479 34.6572 92.3073 34.1226L92.5778 34.0008C92.8203 34.5395 93.0538 35.0914 93.2717 35.6414L92.996 35.7507ZM21.8089 33.8671L21.5394 33.7432C21.7871 33.2038 22.0507 32.6629 22.323 32.1354L22.5865 32.2714C22.3163 32.7949 22.0547 33.3317 21.8089 33.8671ZM91.5445 32.5272C91.2791 32.0036 90.9978 31.4789 90.7087 30.968L90.9667 30.8218C91.2582 31.3368 91.5415 31.8654 91.8089 32.3931L91.5445 32.5272ZM23.4367 30.7137L23.1796 30.5657C23.4755 30.0519 23.7875 29.5377 24.107 29.0374L24.357 29.197C24.0399 29.6935 23.7302 30.2039 23.4367 30.7137ZM89.8021 29.448C89.4887 28.9491 89.1606 28.4521 88.8268 27.9708L89.0704 27.8018C89.4068 28.2868 89.7375 28.7876 90.0532 29.2903L89.8021 29.448ZM25.3456 27.7244L25.1032 27.5535C25.4451 27.0686 25.8026 26.5853 26.1659 26.1169L26.4002 26.2987C26.0397 26.7635 25.6848 27.2431 25.3456 27.7244ZM87.7847 26.5392C87.4273 26.0711 87.0552 25.6057 86.6782 25.1561L86.9056 24.9656C87.2853 25.4187 87.6603 25.8875 88.0205 26.3592L87.7847 26.5392ZM27.5185 24.923L27.2928 24.7307C27.6764 24.28 28.0763 23.8315 28.4813 23.3975L28.6981 23.5998C28.2962 24.0305 27.8994 24.4758 27.5185 24.923ZM85.5098 23.8245C85.1115 23.3908 84.6982 22.961 84.2817 22.5471L84.4908 22.3367C84.9105 22.7539 85.3268 23.1868 85.7282 23.6237L85.5098 23.8245ZM29.9363 22.3321L29.729 22.1201C30.153 21.7052 30.5919 21.295 31.0332 20.901L31.2307 21.1222C30.7928 21.5132 30.3572 21.9203 29.9363 22.3321V22.3321ZM82.9967 21.3267C82.5601 20.9307 82.1093 20.5402 81.6569 20.1659L81.8461 19.9374C82.3018 20.3145 82.7561 20.708 83.196 21.107L82.9967 21.3267ZM32.5786 19.9726L32.3913 19.7426C32.85 19.3691 33.3241 19.0006 33.8004 18.6476L33.9771 18.8858C33.5043 19.2363 33.0338 19.6018 32.5786 19.9726H32.5786ZM35.4231 17.8643L35.2576 17.6183C35.7485 17.2879 36.2539 16.9645 36.7598 16.6567L36.9139 16.9101C36.4119 17.2155 35.9103 17.5366 35.4231 17.8643H35.4231ZM38.4464 16.0253L38.304 15.7651C38.8234 15.4809 39.3559 15.2052 39.8868 14.9454L40.0171 15.2119C39.4903 15.4696 38.9618 15.7432 38.4464 16.0253ZM74.2389 15.3382C73.7112 15.0753 73.1706 14.8213 72.6322 14.5833L72.7521 14.312C73.2947 14.5518 73.8395 14.8078 74.3712 15.0727L74.2389 15.3382ZM41.623 14.4715L41.5051 14.1994C42.0479 13.9642 42.6031 13.7386 43.1553 13.5288L43.2605 13.8061C42.7126 14.0142 42.1616 14.2381 41.623 14.4715ZM70.9919 13.9029C70.4427 13.69 69.8807 13.4868 69.3213 13.2991L69.4157 13.0179C69.9793 13.2071 70.5457 13.4118 71.099 13.6265L70.9919 13.9029ZM44.9311 13.2153L44.8387 12.9335C45.4023 12.7488 45.9774 12.5748 46.5478 12.4166L46.6271 12.7023C46.061 12.8593 45.4904 13.0319 44.9311 13.2153H44.9311ZM67.6287 12.7744C67.0631 12.6131 66.4861 12.463 65.914 12.3281L65.9821 12.0395C66.5587 12.1754 67.14 12.3267 67.7101 12.4891L67.6287 12.7744ZM48.345 12.2679L48.279 11.9788C48.8568 11.8468 49.4454 11.7265 50.0283 11.6214L50.081 11.9132C49.5024 12.0176 48.9184 12.1369 48.345 12.2679ZM64.1804 11.9614C63.6029 11.853 63.0147 11.7566 62.4319 11.6748L62.4731 11.3811C63.0603 11.4635 63.6532 11.5607 64.2352 11.6699L64.1804 11.9614ZM51.8316 11.6387L51.7924 11.3447C52.3794 11.2664 52.9765 11.2005 53.5669 11.1491L53.5927 11.4445C53.0068 11.4956 52.4143 11.5609 51.8316 11.6387ZM60.672 11.4685C60.0879 11.4135 59.4933 11.3711 58.9046 11.3426L58.9191 11.0463C59.5121 11.0751 60.1112 11.1178 60.6998 11.1733L60.672 11.4685ZM55.3611 11.3307L55.3487 11.0345C55.8938 11.0117 56.4493 11.0001 57 11L57.1342 11.0002L57.1334 11.2968L57 11.2966C56.4535 11.2967 55.902 11.3082 55.3611 11.3307Z" fill="#54514C" fill-opacity="0.75"/>
<path d="M24.5 86C36.9264 86 47 75.7025 47 63C47 50.2974 36.9264 40 24.5 40C12.0736 40 2 50.2974 2 63C2 75.7025 12.0736 86 24.5 86Z" fill="#FFB156"/>
<path opacity="0.1" d="M24.5 83C35.2696 83 44 74.0457 44 63C44 51.9543 35.2696 43 24.5 43C13.7304 43 5 51.9543 5 63C5 74.0457 13.7304 83 24.5 83Z" fill="black"/>
<path d="M23.6818 75V72.0475C22.2861 72.0184 20.8422 71.492 20 70.7612L20.5775 68.8027C21.5783 69.6047 22.7921 70.045 24.0427 70.0596C25.7513 70.0596 26.9064 68.8611 26.9064 67.1949C26.9064 65.587 25.9679 64.5932 24.1871 63.7161C21.7326 62.5469 20.2165 61.2021 20.2165 58.659C20.2165 56.2326 21.6363 54.391 23.8503 53.9525V51H25.3422V53.8356C26.4547 53.8518 27.5399 54.2067 28.4706 54.8587L27.8689 56.7881C26.9763 56.1347 25.9186 55.788 24.8369 55.7941C22.984 55.7941 22.2861 57.1388 22.2861 58.3082C22.2861 59.8282 23.1764 60.5882 25.2701 61.6407C27.7486 62.8685 29 64.3885 29 66.9902C29 69.2996 27.6764 71.4629 25.1978 71.9596V75H23.6818Z" fill="white"/>
<path d="M49 109.267C32.7565 111.578 16.2435 111.578 0 109.267V104C16.2607 106.077 32.7393 106.077 49 104V109.267Z" fill="#FFB156"/>
<path d="M49 101.019C32.7565 103.66 16.2435 103.66 0 101.019V95C16.2607 97.3742 32.7393 97.3742 49 95V101.019Z" fill="#FFB156"/>
<path d="M49 92.2668C32.7565 94.5777 16.2435 94.5777 0 92.2668V87C16.2607 89.0774 32.7393 89.0774 49 87V92.2668Z" fill="#FFB156"/>
<path d="M122.381 3.40455C120.463 0.163284 116.668 0.0122267 116.668 0.0122267C116.668 0.0122267 112.97 -0.460687 110.597 4.4758C108.386 9.077 105.334 13.5196 110.106 14.5967L110.968 11.9141L111.502 14.7964C112.181 14.8453 112.863 14.8569 113.543 14.8313C118.653 14.6663 123.52 14.8795 123.363 13.0459C123.155 10.6082 124.227 6.52329 122.381 3.40455Z" fill="#2F2E41"/>
<path d="M115.305 14.4479C115.314 14.8127 115.312 15.1975 115.13 15.5142C114.771 16.1421 113.894 16.2361 113.366 16.731C112.811 17.2514 112.748 18.0961 112.722 18.8565C112.694 19.6514 112.67 20.4725 112.961 21.2131C113.138 21.6211 113.363 22.007 113.63 22.3631C113.952 22.8275 114.277 23.2899 114.605 23.7502C114.781 24.0094 114.976 24.2545 115.19 24.4832C115.777 25.0819 116.583 25.4133 117.388 25.6497C117.908 25.8025 118.47 25.9215 118.986 25.7555C119.327 25.6223 119.642 25.4288 119.915 25.1842C120.314 24.8982 120.668 24.5547 120.967 24.165C121.4 23.5365 121.52 22.7496 121.61 21.9915C121.875 19.7498 121.978 17.4917 121.919 15.2351C121.93 14.9892 121.886 14.7439 121.79 14.5172C121.522 13.9954 120.807 13.884 120.43 13.4352C120.107 13.0514 120.094 12.5037 120.097 12.0025L120.104 10.7265C120.115 10.619 120.093 10.5106 120.042 10.4156C119.995 10.3645 119.939 10.3231 119.876 10.2937C119.813 10.2644 119.745 10.2478 119.676 10.2448C118.883 10.1132 118.079 10.0594 117.275 10.0842C116.624 10.1041 115.374 10.0496 114.81 10.4125C114.299 10.7418 114.939 11.6514 115.058 12.1624C115.217 12.9139 115.3 13.6797 115.305 14.4479Z" fill="#E09999"/>
<path d="M104.71 99.8832C104.544 100.447 104.467 101.103 104.811 101.579C105.001 101.818 105.252 102.001 105.536 102.11C106.254 102.423 107.058 102.485 107.84 102.448C107.99 102.455 108.14 102.431 108.28 102.377C108.42 102.323 108.548 102.241 108.655 102.135C110.473 100.63 111.702 98.5328 112.128 96.2113C112.162 96.0914 112.155 95.9635 112.109 95.8478C112.049 95.7581 111.965 95.687 111.867 95.6426C111.463 95.3891 111.027 95.19 110.57 95.0503C108.073 94.4055 105.329 97.7776 104.71 99.8832Z" fill="#313131"/>
<path d="M130.903 91.9888C131.239 92.3785 131.653 92.6935 132.117 92.9135C132.351 93.0214 132.605 93.0752 132.862 93.0708C133.119 93.0664 133.372 93.004 133.601 92.8882C134.288 92.497 134.483 91.5881 134.428 90.7993C134.327 89.3404 133.63 88.0258 132.829 86.834C132.576 86.457 132.015 85.3348 131.523 85.3208C131.289 85.3142 130.414 86.1621 130.176 86.3235C129.308 86.9131 128.707 87.3349 128.888 88.4667C129.089 89.729 130.054 91.0799 130.903 91.9888Z" fill="#313131"/>
<path d="M116.8 12.2567C119.649 12.2567 121.958 9.94758 121.958 7.09916C121.958 4.25075 119.649 1.94165 116.8 1.94165C113.952 1.94165 111.643 4.25075 111.643 7.09916C111.643 9.94758 113.952 12.2567 116.8 12.2567Z" fill="#E09999"/>
<path d="M114.676 19.8741C114.348 19.3865 114.078 18.8622 113.871 18.3119C113.665 17.7562 113.66 17.1458 113.857 16.5868C113.3 16.2634 112.543 16.5252 112.137 17.0257C111.732 17.5262 111.607 18.197 111.571 18.8404C111.536 19.4837 111.574 20.1365 111.434 20.7655C111.124 22.157 109.974 23.301 109.889 24.724C109.805 26.1239 110.765 27.3435 111.237 28.6641C111.523 29.4871 111.643 30.3589 111.589 31.2287C111.574 31.5094 111.556 31.8295 111.754 32.029C111.857 32.1191 111.979 32.1848 112.111 32.2213C114.39 33.0231 116.852 33.0925 119.267 33.1536L123.256 33.2547C123.497 33.2835 123.741 33.2425 123.96 33.1367C124.318 32.9173 124.366 32.4254 124.372 32.0057C124.424 28.3907 124.271 24.7762 124.117 21.164C124.061 19.8548 124.004 18.538 123.727 17.2573C123.656 16.9312 123.54 16.5685 123.239 16.4246C122.984 16.3027 122.682 16.3816 122.417 16.4795C121.181 16.9393 120.112 17.7619 119.351 18.8394C118.533 20.0043 118.13 21.4017 117.329 22.5754C116.748 23.4271 116.412 22.6848 116.024 22.0576C115.575 21.3296 115.125 20.6018 114.676 19.8741Z" fill="white"/>
<path d="M113.355 15.1874C113.048 15.3383 112.701 15.4039 112.409 15.5817C112.059 15.7946 111.822 16.1464 111.595 16.4872L110.372 18.3262C110.085 18.7209 109.85 19.1509 109.672 19.6056C109.481 20.1634 109.468 20.7639 109.45 21.3531C109.4 22.9922 109.299 24.6286 109.144 26.2623C109.084 27.05 108.97 27.8327 108.805 28.6052C108.659 29.2317 108.453 29.8423 108.248 30.4518L105.982 37.1667C105.843 37.5012 105.776 37.8617 105.787 38.2241C105.825 38.5835 106.063 38.9489 106.418 39.0129C106.654 39.0328 106.89 38.9851 107.099 38.8754C107.963 38.5143 108.822 38.0868 109.488 37.4274C110.582 36.3434 111.022 34.7809 111.42 33.2929C111.632 32.5034 111.844 31.7028 111.844 30.8856C111.842 29.0305 110.746 27.3123 110.717 25.4575C110.722 24.9535 110.768 24.4507 110.853 23.9539C111.048 22.6029 111.251 21.2417 111.719 19.9594C112.187 18.6772 112.944 17.4639 114.059 16.6757C114.593 16.2978 116.028 15.5412 115.467 14.6725C114.909 13.8065 113.901 14.919 113.355 15.1874Z" fill="#FFB156"/>
<path d="M123.292 31.8107C119.596 31.5241 115.896 31.2858 112.194 31.0958C111.883 31.0798 111.529 31.0804 111.315 31.3072C111.224 31.4188 111.155 31.5476 111.114 31.6859L110.323 33.819C109.973 34.7638 109.813 35.6558 109.114 36.3813C108.414 37.1067 107.582 37.6952 106.891 38.4291C105.861 39.5289 105.183 40.9118 104.945 42.3999C104.753 43.621 104.862 44.8864 104.547 46.0816C104.158 47.5548 104.782 49.0888 104.772 50.6123C104.758 52.8814 104.446 55.1368 104.136 57.3845C103.235 63.9014 102.334 70.4185 101.356 76.9242C100.552 82.2655 99.7613 88.0313 102.27 92.8148C102.869 93.9581 103.686 95.0438 104.833 95.6368C105.468 95.9354 106.14 96.1465 106.832 96.2645C108.608 96.6362 110.405 96.9023 112.213 97.0615C112.946 97.1261 113.801 97.125 114.271 96.5587C114.587 96.1787 114.631 95.6493 114.661 95.1564L114.859 91.9372C115.115 87.7714 115.021 83.4526 114.092 79.3838C113.778 78.0119 113.384 76.6582 113.122 75.2756C112.873 73.9624 112.744 72.6292 112.736 71.2926C112.716 70.3344 112.804 69.3771 112.999 68.4387C113.679 65.4133 115.932 62.6851 115.604 59.6015C117.68 62.6459 118.368 66.1315 119.017 69.7585C119.491 72.4043 120.004 75.0556 120.901 77.5893C121.876 80.3438 123.324 83.0785 123.118 85.9933C123.068 86.6008 122.967 87.2031 122.816 87.7939C122.227 90.2403 124.719 92.3325 127.017 91.3066C127.032 91.2996 127.048 91.2925 127.064 91.2853C129.188 90.3069 130.26 87.7311 132.427 86.8509C133.432 86.4424 134.685 86.3847 135.093 85.1496C135.183 84.8642 135.214 84.5632 135.182 84.2656C135.087 83.2667 134.517 82.4586 134.074 81.6C133.108 79.7271 132.742 77.6114 132.394 75.5328C132.049 73.4675 131.71 71.4012 131.377 69.3339C131.16 67.9824 130.943 66.6225 130.499 65.3277C130.304 64.7608 130.066 64.208 129.911 63.6294C129.328 61.4675 129.931 59.1643 129.687 56.9386C129.413 54.4351 128.91 51.9491 128.36 49.4915C127.647 46.3081 127.501 43.0283 127.386 39.768C127.341 38.473 127.293 37.1462 126.805 35.9458C126.117 34.2527 124.759 32.9008 123.292 31.8107Z" fill="#54514C"/>
<path d="M121.533 3.09197L117.783 1.12793L112.605 1.93137L111.534 6.66291L114.201 6.56024L114.946 4.822V6.53155L116.176 6.48433L116.891 3.71684L117.337 6.66291L121.711 6.57362L121.533 3.09197Z" fill="#2F2E41"/>
<path d="M119.561 17.4696C119.864 17.1824 120.247 16.9925 120.659 16.9245C120.804 16.9238 120.942 16.868 121.047 16.7685C121.098 16.6817 121.121 16.5811 121.113 16.4807C121.126 15.5717 121.051 14.6635 120.888 13.7692C121.242 13.6436 121.618 13.5926 121.992 13.6192L125.464 13.6289C126.162 13.6308 126.885 13.6379 127.52 13.9274C128.171 14.2549 128.693 14.7901 129.005 15.4483C129.313 16.1026 129.539 16.7923 129.677 17.5018C130.09 19.2835 128.608 21.0767 128.476 22.9008C128.438 23.4268 128.482 23.9568 128.434 24.482C128.383 25.035 128.23 25.5775 128.217 26.1327C128.202 26.8192 128.402 27.4917 128.632 28.1385C129.337 30.1148 130.34 31.9698 131.154 33.9035C131.362 34.3445 131.503 34.8146 131.57 35.2977C131.602 35.5397 131.584 35.7856 131.518 36.0206C131.453 36.2556 131.34 36.4747 131.187 36.6648C130.847 37.0457 130.33 37.2012 129.854 37.383C129.255 37.6115 128.683 37.9053 128.149 38.2589C127.933 38.4187 127.7 38.5537 127.454 38.6615C127.213 38.7369 126.966 38.7916 126.715 38.8248C126.072 38.9473 125.465 39.2066 124.843 39.4126C124.638 39.4805 124.402 39.5398 124.216 39.429C124.113 39.3549 124.029 39.2558 123.974 39.1408C122.783 37.0779 122.362 34.6671 122.089 32.3006C121.816 29.9341 121.665 27.5294 120.941 25.26C120.721 24.57 120.448 23.8926 120.322 23.1792C120.141 22.1478 120.277 21.0801 120.091 20.0497C119.926 19.1362 119.498 18.3957 119.561 17.4696Z" fill="#FFB156"/>
<path d="M127.477 37.1559C126.443 37.6502 125.626 38.4363 124.934 39.3496C124.787 39.5429 124.984 39.9035 125.423 39.8976C125.831 39.8921 126.075 39.3684 126.483 39.363C126.608 40.4546 126.834 41.5323 127.159 42.5821C127.973 41.8666 128.461 40.8593 128.928 39.8805L129.851 37.9458C130.19 37.2355 130.529 36.5249 130.834 35.7996C130.917 35.63 130.968 35.4467 130.985 35.2586C131.026 34.0105 129.795 34.0029 129.264 34.784C128.684 35.6384 128.503 36.6652 127.477 37.1559Z" fill="#E09999"/>
<path d="M127.689 15.6978C128.478 16.5176 129.272 17.3443 129.885 18.3032C130.497 19.2621 130.923 20.3738 130.894 21.5112C130.864 21.7992 130.874 22.09 130.926 22.375C131.015 22.6378 131.147 22.8836 131.319 23.1022C132.091 24.2369 132.691 25.4802 133.099 26.7914C133.165 27.0501 133.263 27.2996 133.39 27.5343C133.506 27.7249 133.665 27.886 133.794 28.0688C134.018 28.3991 134.14 28.7876 134.146 29.1865C134.153 29.5855 134.042 29.9775 133.829 30.3147C133.764 30.3955 133.717 30.4888 133.69 30.5887C133.637 30.902 134.03 31.0906 134.175 31.3736C134.322 31.6605 134.181 32.0271 133.938 32.2386C133.679 32.4318 133.38 32.5653 133.063 32.6298C133.47 33.2122 132.976 34.031 132.81 34.722C132.695 35.2055 132.696 35.7089 132.62 36.2003C132.544 36.6917 132.374 37.197 131.995 37.5194C131.947 37.5657 131.888 37.5988 131.823 37.6157C131.613 37.6567 131.47 37.4138 131.397 37.213C131.168 36.5875 130.937 35.9499 130.533 35.42C130.13 34.8901 129.519 34.4751 128.853 34.4771C128.797 34.3453 128.775 34.2023 128.786 34.06C128.797 33.9176 128.842 33.7801 128.918 33.6587C129.051 33.407 129.247 33.1937 129.394 32.9498C129.58 32.6174 129.707 32.255 129.769 31.8789C130.098 30.1511 129.767 28.3627 128.841 26.8671C128.626 26.5124 128.366 26.1872 128.067 25.8994C127.742 25.5947 127.361 25.3497 127.061 25.0203C126.598 24.4723 126.318 23.7932 126.26 23.0782C126.205 22.3679 126.224 21.6538 126.317 20.9475C126.452 19.5458 126.625 18.142 126.826 16.7481C126.841 16.5665 126.888 16.3891 126.965 16.2237C127.122 15.9305 127.388 15.8392 127.689 15.6978Z" fill="#FFB156"/>
<path d="M68.2747 52.9985C66.6702 51.874 64.7355 51.9599 64 52.0458C64.2801 52.8427 65.1205 54.8755 66.725 56.0006C68.3335 57.128 70.2656 57.0395 71 56.9542C70.72 56.1575 69.8795 54.1239 68.2747 52.9985Z" fill="#54514C" fill-opacity="0.75"/>
<path d="M76.5192 75H65.4831C64.8246 75 64.193 75.2634 63.7273 75.7322C63.2616 76.2011 63 76.837 63 77.5C63 78.163 63.2616 78.7989 63.7273 79.2678C64.193 79.7366 64.8246 80 65.4831 80H76.5192C77.1774 79.9994 77.8084 79.7357 78.2735 79.2669C78.7387 78.7982 79 78.1626 79 77.5C79 76.8374 78.7387 76.2018 78.2735 75.7331C77.8084 75.2643 77.1774 75.0006 76.5192 75Z" fill="#54514C" fill-opacity="0.75"/>
<path d="M128.356 48H64.6438C63.9026 48 63.1687 48.1448 62.484 48.4263C61.7993 48.7077 61.1771 49.1202 60.653 49.6402C60.1289 50.1601 59.7132 50.7775 59.4296 51.4569C59.146 52.1363 59 52.8645 59 53.5999V84.4001C59 85.8853 59.5946 87.3097 60.653 88.3598C61.7114 89.41 63.147 90 64.6438 90H128.356C129.097 90 129.831 89.8552 130.516 89.5737C131.201 89.2923 131.823 88.8798 132.347 88.3598C132.871 87.8398 133.287 87.2225 133.57 86.5431C133.854 85.8637 134 85.1355 134 84.4001V53.5999C134 52.8645 133.854 52.1363 133.57 51.4569C133.287 50.7775 132.871 50.1602 132.347 49.6402C131.823 49.1202 131.201 48.7077 130.516 48.4263C129.831 48.1448 129.097 48 128.356 48ZM63.0674 51.82C63.1933 51.7974 66.1766 51.2936 68.647 52.7685C71.1173 54.2432 72.0664 57.0947 72.1055 57.2153L72.2054 57.5228L71.8848 57.5792C71.4275 57.65 70.9651 57.6837 70.5022 57.68C69.3803 57.68 67.7545 57.4958 66.3051 56.6303C63.8348 55.156 62.8859 52.3044 62.8467 52.1839L62.7469 51.8764L63.0674 51.82ZM76.8977 80.4161H65.5341C64.7053 80.4161 63.9104 80.0894 63.3244 79.5079C62.7383 78.9265 62.4091 78.1378 62.4091 77.3154C62.4091 76.4931 62.7383 75.7044 63.3244 75.1229C63.9104 74.5414 64.7053 74.2148 65.5341 74.2148H76.8977C77.7265 74.2148 78.5214 74.5414 79.1074 75.1229C79.6935 75.7044 80.0227 76.4931 80.0227 77.3154C80.0227 78.1378 79.6935 78.9265 79.1074 79.5079C78.5214 80.0894 77.7265 80.4161 76.8977 80.4161ZM128.602 79.8523C128.6 80.7486 128.24 81.6075 127.601 82.2413C126.962 82.8751 126.097 83.2323 125.193 83.2349H116.67C115.767 83.2323 114.902 82.875 114.263 82.2413C113.624 81.6075 113.264 80.7486 113.261 79.8523V74.7785C113.264 73.8822 113.624 73.0234 114.263 72.3896C114.902 71.7558 115.767 71.3986 116.67 71.396H125.193C126.097 71.3986 126.962 71.7558 127.601 72.3896C128.24 73.0234 128.6 73.8822 128.602 74.7785L128.602 79.8523Z" fill="#54514C" fill-opacity="0.75"/>
<path d="M118.95 79H115.05C114.772 79 114.504 79.1054 114.308 79.2929C114.111 79.4804 114 79.7348 114 80C114 80.2652 114.111 80.5196 114.308 80.7071C114.504 80.8946 114.772 81 115.05 81H118.95C119.228 81 119.496 80.8946 119.692 80.7071C119.889 80.5196 120 80.2652 120 80C120 79.7348 119.889 79.4804 119.692 79.2929C119.496 79.1054 119.228 79 118.95 79ZM118.95 80.4286H115.05C114.991 80.4287 114.932 80.4177 114.877 80.3962C114.823 80.3748 114.773 80.3432 114.731 80.3034C114.689 80.2636 114.656 80.2163 114.633 80.1642C114.611 80.1122 114.599 80.0564 114.599 80C114.599 79.9436 114.611 79.8878 114.633 79.8358C114.656 79.7837 114.689 79.7364 114.731 79.6966C114.773 79.6568 114.823 79.6253 114.877 79.6038C114.932 79.5823 114.991 79.5713 115.05 79.5714H118.95C119.009 79.5713 119.068 79.5823 119.123 79.6038C119.177 79.6253 119.227 79.6568 119.269 79.6966C119.311 79.7364 119.344 79.7837 119.367 79.8358C119.389 79.8878 119.401 79.9436 119.401 80C119.401 80.0564 119.389 80.1122 119.367 80.1642C119.344 80.2163 119.311 80.2636 119.269 80.3034C119.227 80.3432 119.177 80.3748 119.123 80.3962C119.068 80.4177 119.009 80.4287 118.95 80.4286Z" fill="#54514C" fill-opacity="0.75"/>
<path d="M125.95 79H122.051C121.913 78.9998 121.777 79.0255 121.649 79.0757C121.522 79.1259 121.406 79.1995 121.308 79.2924C121.21 79.3852 121.133 79.4955 121.08 79.617C121.027 79.7384 121 79.8686 121 80C121 80.1314 121.027 80.2616 121.08 80.383C121.133 80.5045 121.21 80.6148 121.308 80.7076C121.406 80.8005 121.522 80.8741 121.649 80.9243C121.777 80.9745 121.913 81.0002 122.051 81H125.95C126.229 81 126.496 80.8946 126.693 80.7071C126.889 80.5196 127 80.2652 127 80C127 79.7348 126.889 79.4804 126.693 79.2929C126.496 79.1054 126.229 79 125.95 79ZM125.95 80.4286H122.051C121.992 80.4287 121.934 80.4177 121.879 80.3962C121.824 80.3748 121.774 80.3432 121.733 80.3034C121.691 80.2636 121.657 80.2163 121.635 80.1642C121.612 80.1122 121.6 80.0564 121.6 80C121.6 79.9436 121.612 79.8878 121.635 79.8358C121.657 79.7837 121.691 79.7364 121.733 79.6966C121.774 79.6568 121.824 79.6253 121.879 79.6038C121.934 79.5823 121.992 79.5713 122.051 79.5714H125.95C126.069 79.5717 126.184 79.617 126.268 79.6973C126.352 79.7777 126.399 79.8865 126.399 80C126.399 80.1135 126.352 80.2224 126.268 80.3027C126.184 80.3831 126.069 80.4283 125.95 80.4286Z" fill="#54514C" fill-opacity="0.75"/>
<path d="M118.949 76H115.05C114.771 76 114.504 76.1054 114.307 76.2929C114.111 76.4804 114 76.7348 114 77C114 77.2652 114.111 77.5196 114.307 77.7071C114.504 77.8946 114.771 78 115.05 78H118.949C119.087 78.0002 119.223 77.9745 119.351 77.9243C119.478 77.8741 119.594 77.8005 119.692 77.7076C119.79 77.6148 119.867 77.5045 119.92 77.383C119.973 77.2616 120 77.1314 120 77C120 76.8686 119.973 76.7384 119.92 76.617C119.867 76.4955 119.79 76.3852 119.692 76.2924C119.594 76.1995 119.478 76.1259 119.351 76.0757C119.223 76.0255 119.087 75.9998 118.949 76ZM118.949 77.4286H115.05C114.93 77.4286 114.816 77.3834 114.732 77.303C114.647 77.2227 114.6 77.1137 114.6 77C114.6 76.8863 114.647 76.7773 114.732 76.697C114.816 76.6166 114.93 76.5714 115.05 76.5714H118.949C119.068 76.5714 119.182 76.6166 119.267 76.697C119.351 76.7773 119.399 76.8863 119.399 77C119.399 77.1137 119.351 77.2227 119.267 77.303C119.182 77.3834 119.068 77.4286 118.949 77.4286Z" fill="#54514C" fill-opacity="0.75"/>
<path d="M125.95 76H122.051C121.913 75.9998 121.777 76.0255 121.649 76.0757C121.522 76.1259 121.406 76.1995 121.308 76.2924C121.21 76.3852 121.133 76.4955 121.08 76.617C121.027 76.7384 121 76.8686 121 77C121 77.1314 121.027 77.2616 121.08 77.383C121.133 77.5045 121.21 77.6148 121.308 77.7076C121.406 77.8005 121.522 77.8741 121.649 77.9243C121.777 77.9745 121.913 78.0002 122.051 78H125.95C126.229 78 126.496 77.8946 126.693 77.7071C126.889 77.5196 127 77.2652 127 77C127 76.7348 126.889 76.4804 126.693 76.2929C126.496 76.1054 126.229 76 125.95 76ZM125.95 77.4286H122.051C121.932 77.4286 121.818 77.3834 121.733 77.303C121.649 77.2227 121.601 77.1137 121.601 77C121.601 76.8863 121.649 76.7773 121.733 76.697C121.818 76.6166 121.932 76.5714 122.051 76.5714H125.95C126.07 76.5714 126.184 76.6166 126.268 76.697C126.353 76.7773 126.4 76.8863 126.4 77C126.4 77.1137 126.353 77.2227 126.268 77.303C126.184 77.3834 126.07 77.4286 125.95 77.4286Z" fill="#54514C" fill-opacity="0.75"/>
<path d="M118.95 74H115.05C114.772 74 114.504 74.1054 114.308 74.2929C114.111 74.4804 114 74.7348 114 75C114 75.2652 114.111 75.5196 114.308 75.7071C114.504 75.8946 114.772 76 115.05 76H118.95C119.228 76 119.496 75.8946 119.692 75.7071C119.889 75.5196 120 75.2652 120 75C120 74.7348 119.889 74.4804 119.692 74.2929C119.496 74.1054 119.228 74 118.95 74ZM118.95 75.4286H115.05C114.931 75.4286 114.816 75.3834 114.732 75.303C114.647 75.2227 114.6 75.1137 114.6 75C114.6 74.8863 114.647 74.7773 114.732 74.697C114.816 74.6166 114.931 74.5714 115.05 74.5714H118.95C119.069 74.5714 119.184 74.6166 119.268 74.697C119.353 74.7773 119.4 74.8863 119.4 75C119.4 75.1137 119.353 75.2227 119.268 75.303C119.184 75.3834 119.069 75.4286 118.95 75.4286Z" fill="#54514C" fill-opacity="0.75"/>
<path d="M125.952 74H122.052C121.914 73.9998 121.777 74.0255 121.649 74.0757C121.522 74.1259 121.406 74.1995 121.308 74.2924C121.21 74.3852 121.133 74.4955 121.08 74.617C121.027 74.7384 121 74.8686 121 75C121 75.1314 121.027 75.2616 121.08 75.383C121.133 75.5045 121.21 75.6148 121.308 75.7076C121.406 75.8005 121.522 75.8741 121.649 75.9243C121.777 75.9745 121.914 76.0002 122.052 76H125.952C126.23 75.9996 126.496 75.8941 126.693 75.7066C126.89 75.5191 127 75.265 127 75C127 74.735 126.89 74.4809 126.693 74.2934C126.496 74.1059 126.23 74.0004 125.952 74ZM125.952 75.4286H122.052C121.932 75.4286 121.818 75.3834 121.733 75.303C121.649 75.2227 121.602 75.1137 121.602 75C121.602 74.8863 121.649 74.7773 121.733 74.697C121.818 74.6166 121.932 74.5714 122.052 74.5714H125.952C126.071 74.5714 126.185 74.6166 126.27 74.697C126.354 74.7773 126.402 74.8863 126.402 75C126.402 75.1137 126.354 75.2227 126.27 75.303C126.185 75.3834 126.071 75.4286 125.952 75.4286Z" fill="#54514C" fill-opacity="0.75"/>
</svg>
