<svg width="48" height="50" viewBox="0 0 48 50" fill="none" xmlns="http://www.w3.org/2000/svg">
<path d="M3.08557 6.23198C4.6413 7.21427 6.43102 7.76267 8.26656 7.81954C9.74144 7.85016 11.1823 8.28423 12.4316 9.07426L13.6372 7.05534C12.0815 6.07305 10.2917 5.52465 8.4562 5.46778C6.98132 5.43716 5.54045 5.00309 4.29121 4.21307L3.08557 6.23198ZM6.70249 0.17523C7.95174 0.965257 9.39261 1.39932 10.8675 1.42995C12.703 1.48681 14.4927 2.03522 16.0485 3.0175L14.8428 5.03642C13.5936 4.24639 12.1527 3.81233 10.6778 3.7817C8.84231 3.72484 7.05259 3.17643 5.49685 2.19415L6.70249 0.17523ZM1.87993 8.2509C3.12917 9.04093 4.57004 9.47499 6.04492 9.50562C7.88045 9.56248 9.67018 10.1109 11.2259 11.0932L10.0203 13.1121C8.77102 12.3221 7.33016 11.888 5.85528 11.8574C4.01974 11.8005 2.23002 11.2521 0.674282 10.2698L1.87993 8.2509ZM23.0096 28.3461C18.7546 24.5543 14.696 20.5491 10.8497 16.3463L19.2892 2.21388C19.2892 2.21388 34.9286 6.07549 41.0338 9.72138C43.7471 11.352 45.7791 13.9063 46.7506 16.9076C47.7221 19.9089 47.5666 23.1522 46.3133 26.0321C45.0599 28.9121 42.7943 31.232 39.9392 32.5589C37.0841 33.8858 33.8347 34.129 30.7972 33.2432L21.5554 44.6506L19.5204 43.4353C18.8643 44.349 17.9974 45.0917 16.9919 45.6013C15.9863 46.1109 14.8714 46.3728 13.74 46.3651C12.4633 46.3581 11.2085 46.6781 10.096 47.2943C8.98355 47.9105 8.05067 48.8023 7.38688 49.884L5.35179 48.6687C6.19159 47.2834 7.36817 46.1325 8.77387 45.3212C10.1796 44.5099 11.7695 44.0641 13.3983 44.0247C15.4859 43.765 16.7257 43.492 17.4853 42.22L15.4502 41.0047L23.0096 28.3461ZM31.3887 25.8727C32.3949 26.4736 33.5554 26.765 34.7232 26.7101C35.8911 26.6551 37.0139 26.2562 37.9498 25.5639C38.8856 24.8716 39.5924 23.9169 39.9808 22.8206C40.3691 21.7243 40.4216 20.5356 40.1316 19.4048C39.8416 18.274 39.2222 17.252 38.3515 16.4678C37.4809 15.6837 36.3983 15.1728 35.2405 14.9996C34.0827 14.8265 32.9018 14.9989 31.847 15.4951C30.7923 15.9913 29.9112 16.7889 29.3151 17.7872C28.5157 19.1258 28.2851 20.7297 28.6739 22.246C29.0628 23.7624 30.0393 25.0669 31.3887 25.8727Z" fill="#FF3E79"/>
</svg>
