<svg width="25" height="24" viewBox="0 0 25 24" fill="none" xmlns="http://www.w3.org/2000/svg">
<path d="M10.0753 8.97656L1.19854 10.7398C0.483162 10.891 -0.000476837 11.4955 -0.000476837 12.2109V22.4882C-0.000476837 23.3245 0.674602 23.9996 1.51089 23.9996H10.5791C10.297 23.9996 10.0753 23.7779 10.0753 23.4958V22.992H1.51089C1.23885 22.992 1.0071 22.7703 1.0071 22.4882V12.2109C1.0071 11.9791 1.16831 11.7676 1.40006 11.7172L10.0753 10.0043V8.97656Z" fill="#54514C" fill-opacity="0.75"/>
<path d="M4.53379 13.9238C4.25166 13.9238 4.03 14.1455 4.03 14.4276C4.03 14.7097 4.25166 14.9314 4.53379 14.9314H6.54894C6.83107 14.9314 7.05273 14.7097 7.05273 14.4276C7.05273 14.1455 6.83107 13.9238 6.54894 13.9238H4.53379Z" fill="#54514C" fill-opacity="0.75"/>
<path d="M4.53379 16.9473C4.25166 16.9473 4.03 17.1689 4.03 17.4511C4.03 17.7332 4.25166 17.9548 4.53379 17.9548H6.54894C6.83107 17.9548 7.05273 17.7332 7.05273 17.4511C7.05273 17.1689 6.83107 16.9473 6.54894 16.9473H4.53379Z" fill="#54514C" fill-opacity="0.75"/>
<path d="M4.53379 19.9697C4.25166 19.9697 4.03 20.1914 4.03 20.4735C4.03 20.7556 4.25166 20.9773 4.53379 20.9773H6.54894C6.83107 20.9773 7.05273 20.7556 7.05273 20.4735C7.05273 20.1914 6.83107 19.9697 6.54894 19.9697H4.53379Z" fill="#54514C" fill-opacity="0.75"/>
<path d="M10.0754 23.4965C10.0754 23.7786 10.2971 24.0003 10.5792 24.0003C10.8613 24.0003 11.083 23.7786 11.083 23.4965V22.9927V9.39036C11.083 9.23922 11.0125 9.09816 10.9016 8.9974C10.7807 8.90672 10.6296 8.86642 10.4785 8.89664L10.0754 8.97725V10.005V22.9927V23.4965Z" fill="#54514C" fill-opacity="0.75"/>
<path d="M11.0828 22.9922V23.496C11.0828 23.7781 10.8612 23.9998 10.5791 23.9998H14.6094C14.3273 23.9998 14.1056 23.7781 14.1056 23.496V22.9922H11.0828Z" fill="#54514C" fill-opacity="0.75"/>
<path d="M13.6021 4.85547C13.32 4.85547 13.0984 5.07714 13.0984 5.35926C13.0984 5.64138 13.32 5.86305 13.6021 5.86305H15.6173C15.8994 5.86305 16.1211 5.64138 16.1211 5.35926C16.1211 5.07714 15.8994 4.85547 15.6173 4.85547H13.6021Z" fill="#54514C" fill-opacity="0.75"/>
<path d="M13.0984 8.3827C13.0984 8.66482 13.32 8.88649 13.6021 8.88649H15.6173C15.8994 8.88649 16.1211 8.66482 16.1211 8.3827C16.1211 8.10057 15.8994 7.87891 15.6173 7.87891H13.6021C13.32 7.87891 13.0984 8.10057 13.0984 8.3827Z" fill="#54514C" fill-opacity="0.75"/>
<path d="M13.6021 10.9014C13.32 10.9014 13.0984 11.123 13.0984 11.4052C13.0984 11.6873 13.32 11.9089 13.6021 11.9089H15.6173C15.8994 11.9089 16.1211 11.6873 16.1211 11.4052C16.1211 11.123 15.8994 10.9014 15.6173 10.9014H13.6021Z" fill="#54514C" fill-opacity="0.75"/>
<path d="M13.6021 13.9238C13.32 13.9238 13.0984 14.1455 13.0984 14.4276C13.0984 14.7097 13.32 14.9314 13.6021 14.9314H15.6173C15.8994 14.9314 16.1211 14.7097 16.1211 14.4276C16.1211 14.1455 15.8994 13.9238 15.6173 13.9238H13.6021Z" fill="#54514C" fill-opacity="0.75"/>
<path d="M18.1364 14.4276C18.1364 14.7097 18.3581 14.9314 18.6402 14.9314H20.6554C20.9375 14.9314 21.1592 14.7097 21.1592 14.4276C21.1592 14.1455 20.9375 13.9238 20.6554 13.9238H18.6402C18.3581 13.9238 18.1364 14.1455 18.1364 14.4276Z" fill="#54514C" fill-opacity="0.75"/>
<path d="M18.6402 4.85547C18.3581 4.85547 18.1364 5.07714 18.1364 5.35926C18.1364 5.64138 18.3581 5.86305 18.6402 5.86305H20.6554C20.9375 5.86305 21.1592 5.64138 21.1592 5.35926C21.1592 5.07714 20.9375 4.85547 20.6554 4.85547H18.6402Z" fill="#54514C" fill-opacity="0.75"/>
<path d="M18.6402 7.87891C18.3581 7.87891 18.1364 8.10057 18.1364 8.3827C18.1364 8.66482 18.3581 8.88649 18.6402 8.88649H20.6554C20.9375 8.88649 21.1592 8.66482 21.1592 8.3827C21.1592 8.10057 20.9375 7.87891 20.6554 7.87891H18.6402Z" fill="#54514C" fill-opacity="0.75"/>
<path d="M18.6402 10.9014C18.3581 10.9014 18.1364 11.123 18.1364 11.4052C18.1364 11.6873 18.3581 11.9089 18.6402 11.9089H20.6554C20.9375 11.9089 21.1592 11.6873 21.1592 11.4052C21.1592 11.123 20.9375 10.9014 20.6554 10.9014H18.6402Z" fill="#54514C" fill-opacity="0.75"/>
<path d="M15.1135 18.4586C15.1135 18.1765 15.3452 17.9548 15.6173 17.9548H18.64C18.9221 17.9548 19.1438 18.1765 19.1438 18.4586V22.9927H20.1514V18.4586C20.1514 17.6223 19.4763 16.9473 18.64 16.9473H15.6173C14.781 16.9473 14.1059 17.6223 14.1059 18.4586V22.9927H15.1135V18.4586Z" fill="#54514C" fill-opacity="0.75"/>
<path d="M19.1438 22.9922H15.1135H14.1059V23.496C14.1059 23.7781 14.3276 23.9998 14.6097 23.9998H19.6476C19.9297 23.9998 20.1514 23.7781 20.1514 23.496V22.9922H19.1438Z" fill="#54514C" fill-opacity="0.75"/>
<path d="M22.4184 0.0196165L11.3451 1.70227C10.6096 1.82318 10.0755 2.44788 10.0755 3.19349V8.97699L10.4786 8.89639C10.6297 8.86616 10.7808 8.90646 10.9017 8.99714C11.0126 9.0979 11.0831 9.23896 11.0831 9.3901V3.19349C11.0831 2.9416 11.2645 2.73 11.5063 2.6897L22.5796 1.01712C22.6098 1.00704 22.64 1.00704 22.6703 1.00704C22.7912 1.00704 22.902 1.04735 22.9927 1.12795C23.1136 1.22871 23.1741 1.3597 23.1741 1.51083V22.4886C23.1741 22.7708 22.9423 22.9924 22.6703 22.9924H20.1513V23.4962C20.1513 23.7783 19.9297 24 19.6475 24H22.6703C23.5066 24 24.1816 23.3249 24.1816 22.4886V1.51083C24.1816 1.0675 23.9902 0.644316 23.6476 0.362193C23.305 0.0699955 22.8617 -0.050914 22.4184 0.0196165Z" fill="#54514C" fill-opacity="0.75"/>
</svg>
