<svg width="25" height="24" viewBox="0 0 25 24" fill="none" xmlns="http://www.w3.org/2000/svg">
<path d="M10.0763 8.97656L1.19952 10.7398C0.484138 10.891 0.000499725 11.4955 0.000499725 12.2109V22.4882C0.000499725 23.3245 0.675578 23.9996 1.51187 23.9996H10.5801C10.298 23.9996 10.0763 23.7779 10.0763 23.4958V22.992H1.51187C1.23982 22.992 1.00808 22.7703 1.00808 22.4882V12.2109C1.00808 11.9791 1.16929 11.7676 1.40103 11.7172L10.0763 10.0043V8.97656Z" fill="#FF3E79"/>
<path d="M4.53379 13.9238C4.25166 13.9238 4.03 14.1455 4.03 14.4276C4.03 14.7097 4.25166 14.9314 4.53379 14.9314H6.54894C6.83107 14.9314 7.05273 14.7097 7.05273 14.4276C7.05273 14.1455 6.83107 13.9238 6.54894 13.9238H4.53379Z" fill="#FF3E79"/>
<path d="M4.53379 16.9473C4.25166 16.9473 4.03 17.1689 4.03 17.4511C4.03 17.7332 4.25166 17.9548 4.53379 17.9548H6.54894C6.83107 17.9548 7.05273 17.7332 7.05273 17.4511C7.05273 17.1689 6.83107 16.9473 6.54894 16.9473H4.53379Z" fill="#FF3E79"/>
<path d="M4.53379 19.9697C4.25166 19.9697 4.03 20.1914 4.03 20.4735C4.03 20.7556 4.25166 20.9773 4.53379 20.9773H6.54894C6.83107 20.9773 7.05273 20.7556 7.05273 20.4735C7.05273 20.1914 6.83107 19.9697 6.54894 19.9697H4.53379Z" fill="#FF3E79"/>
<path d="M10.0764 23.4965C10.0764 23.7786 10.2981 24.0003 10.5802 24.0003C10.8623 24.0003 11.084 23.7786 11.084 23.4965V22.9927V9.39036C11.084 9.23922 11.0135 9.09816 10.9026 8.9974C10.7817 8.90672 10.6306 8.86642 10.4794 8.89664L10.0764 8.97725V10.005V22.9927V23.4965Z" fill="#FF3E79"/>
<path d="M11.0828 22.9922V23.496C11.0828 23.7781 10.8612 23.9998 10.5791 23.9998H14.6094C14.3273 23.9998 14.1056 23.7781 14.1056 23.496V22.9922H11.0828Z" fill="#FF3E79"/>
<path d="M13.6021 4.85547C13.32 4.85547 13.0984 5.07714 13.0984 5.35926C13.0984 5.64138 13.32 5.86305 13.6021 5.86305H15.6173C15.8994 5.86305 16.1211 5.64138 16.1211 5.35926C16.1211 5.07714 15.8994 4.85547 15.6173 4.85547H13.6021Z" fill="#FF3E79"/>
<path d="M13.0984 8.3827C13.0984 8.66482 13.32 8.88649 13.6021 8.88649H15.6173C15.8994 8.88649 16.1211 8.66482 16.1211 8.3827C16.1211 8.10057 15.8994 7.87891 15.6173 7.87891H13.6021C13.32 7.87891 13.0984 8.10057 13.0984 8.3827Z" fill="#FF3E79"/>
<path d="M13.6021 10.9014C13.32 10.9014 13.0984 11.123 13.0984 11.4052C13.0984 11.6873 13.32 11.9089 13.6021 11.9089H15.6173C15.8994 11.9089 16.1211 11.6873 16.1211 11.4052C16.1211 11.123 15.8994 10.9014 15.6173 10.9014H13.6021Z" fill="#FF3E79"/>
<path d="M13.6021 13.9238C13.32 13.9238 13.0984 14.1455 13.0984 14.4276C13.0984 14.7097 13.32 14.9314 13.6021 14.9314H15.6173C15.8994 14.9314 16.1211 14.7097 16.1211 14.4276C16.1211 14.1455 15.8994 13.9238 15.6173 13.9238H13.6021Z" fill="#FF3E79"/>
<path d="M18.1355 14.4276C18.1355 14.7097 18.3571 14.9314 18.6393 14.9314H20.6544C20.9365 14.9314 21.1582 14.7097 21.1582 14.4276C21.1582 14.1455 20.9365 13.9238 20.6544 13.9238H18.6393C18.3571 13.9238 18.1355 14.1455 18.1355 14.4276Z" fill="#FF3E79"/>
<path d="M18.6393 4.85547C18.3571 4.85547 18.1355 5.07714 18.1355 5.35926C18.1355 5.64138 18.3571 5.86305 18.6393 5.86305H20.6544C20.9365 5.86305 21.1582 5.64138 21.1582 5.35926C21.1582 5.07714 20.9365 4.85547 20.6544 4.85547H18.6393Z" fill="#FF3E79"/>
<path d="M18.6393 7.87891C18.3571 7.87891 18.1355 8.10057 18.1355 8.3827C18.1355 8.66482 18.3571 8.88649 18.6393 8.88649H20.6544C20.9365 8.88649 21.1582 8.66482 21.1582 8.3827C21.1582 8.10057 20.9365 7.87891 20.6544 7.87891H18.6393Z" fill="#FF3E79"/>
<path d="M18.6393 10.9014C18.3571 10.9014 18.1355 11.123 18.1355 11.4052C18.1355 11.6873 18.3571 11.9089 18.6393 11.9089H20.6544C20.9365 11.9089 21.1582 11.6873 21.1582 11.4052C21.1582 11.123 20.9365 10.9014 20.6544 10.9014H18.6393Z" fill="#FF3E79"/>
<path d="M15.1125 18.4586C15.1125 18.1765 15.3442 17.9548 15.6163 17.9548H18.639C18.9211 17.9548 19.1428 18.1765 19.1428 18.4586V22.9927H20.1504V18.4586C20.1504 17.6223 19.4753 16.9473 18.639 16.9473H15.6163C14.78 16.9473 14.1049 17.6223 14.1049 18.4586V22.9927H15.1125V18.4586Z" fill="#FF3E79"/>
<path d="M19.1428 22.9922H15.1125H14.1049V23.496C14.1049 23.7781 14.3266 23.9998 14.6087 23.9998H19.6466C19.9287 23.9998 20.1504 23.7781 20.1504 23.496V22.9922H19.1428Z" fill="#FF3E79"/>
<path d="M22.4184 0.0196165L11.3451 1.70227C10.6096 1.82318 10.0755 2.44788 10.0755 3.19349V8.97699L10.4786 8.89639C10.6297 8.86616 10.7808 8.90646 10.9017 8.99714C11.0126 9.0979 11.0831 9.23896 11.0831 9.3901V3.19349C11.0831 2.9416 11.2645 2.73 11.5063 2.6897L22.5796 1.01712C22.6098 1.00704 22.64 1.00704 22.6703 1.00704C22.7912 1.00704 22.902 1.04735 22.9927 1.12795C23.1136 1.22871 23.1741 1.3597 23.1741 1.51083V22.4886C23.1741 22.7708 22.9423 22.9924 22.6703 22.9924H20.1513V23.4962C20.1513 23.7783 19.9297 24 19.6475 24H22.6703C23.5066 24 24.1816 23.3249 24.1816 22.4886V1.51083C24.1816 1.0675 23.9902 0.644316 23.6476 0.362193C23.305 0.0699955 22.8617 -0.050914 22.4184 0.0196165Z" fill="#FF3E79"/>
</svg>
